<svg width="24" height="25" viewBox="0 0 24 25" fill="none" xmlns="http://www.w3.org/2000/svg">
<path fill-rule="evenodd" clip-rule="evenodd" d="M6.54 5.72168C6.6 6.61168 6.75 7.48168 6.99 8.31168L5.79 9.51168C5.38 8.31168 5.12 7.04168 5.03 5.72168H6.54ZM16.4 17.7417C17.25 17.9817 18.12 18.1317 19 18.1917V19.6817C17.68 19.5917 16.41 19.3317 15.2 18.9317L16.4 17.7417ZM7.5 3.72168H4C3.45 3.72168 3 4.17168 3 4.72168C3 14.1117 10.61 21.7217 20 21.7217C20.55 21.7217 21 21.2717 21 20.7217V17.2317C21 16.6817 20.55 16.2317 20 16.2317C18.76 16.2317 17.55 16.0317 16.43 15.6617C16.33 15.6217 16.22 15.6117 16.12 15.6117C15.86 15.6117 15.61 15.7117 15.41 15.9017L13.21 18.1017C10.38 16.6517 8.06 14.3417 6.62 11.5117L8.82 9.31168C9.1 9.03168 9.18 8.64168 9.07 8.29168C8.7 7.17168 8.5 5.97168 8.5 4.72168C8.5 4.17168 8.05 3.72168 7.5 3.72168Z" fill="url(#paint0_linear_112_382)"/>
<defs>
<linearGradient id="paint0_linear_112_382" x1="5.21379" y1="21.7217" x2="21.8861" y2="20.4235" gradientUnits="userSpaceOnUse">
<stop offset="0.000646782" stop-color="#D8F700"/>
<stop offset="0.905443" stop-color="#3BDB00"/>
</linearGradient>
</defs>
</svg>
