<svg width="891" height="200" viewBox="0 0 891 200" fill="none" xmlns="http://www.w3.org/2000/svg">
<mask id="path-1-outside-1_112_221" maskUnits="userSpaceOnUse" x="-1" y="-1" width="893" height="202" fill="black">
<rect fill="white" x="-1" y="-1" width="893" height="202"/>
<path d="M95.6191 200C82.1191 200 69.5358 197.833 57.8691 193.5C46.3691 189 36.3691 182.667 27.8691 174.5C19.3691 166.333 12.7025 156.75 7.86914 145.75C3.20247 134.75 0.869141 122.667 0.869141 109.5C0.869141 96.3333 3.20247 84.25 7.86914 73.25C12.7025 62.25 19.3691 52.6667 27.8691 44.5C36.5358 36.3333 46.6191 30.0833 58.1191 25.75C69.6191 21.25 82.2025 19 95.8691 19C111.036 19 124.702 21.6667 136.869 27C149.202 32.1667 159.536 39.8333 167.869 50L141.869 74C135.869 67.1667 129.202 62.0833 121.869 58.75C114.536 55.25 106.536 53.5 97.8691 53.5C89.7025 53.5 82.2025 54.8333 75.3691 57.5C68.5358 60.1667 62.6191 64 57.6191 69C52.6191 74 48.7025 79.9167 45.8691 86.75C43.2025 93.5833 41.8691 101.167 41.8691 109.5C41.8691 117.833 43.2025 125.417 45.8691 132.25C48.7025 139.083 52.6191 145 57.6191 150C62.6191 155 68.5358 158.833 75.3691 161.5C82.2025 164.167 89.7025 165.5 97.8691 165.5C106.536 165.5 114.536 163.833 121.869 160.5C129.202 157 135.869 151.75 141.869 144.75L167.869 168.75C159.536 178.917 149.202 186.667 136.869 192C124.702 197.333 110.952 200 95.6191 200ZM192.469 197V11.5H231.469V197H192.469ZM267.664 197V62.5H306.664V197H267.664ZM287.164 43.75C279.997 43.75 274.164 41.6667 269.664 37.5C265.164 33.3333 262.914 28.1667 262.914 22C262.914 15.8333 265.164 10.6667 269.664 6.49999C274.164 2.33332 279.997 0.249985 287.164 0.249985C294.331 0.249985 300.164 2.24999 304.664 6.25C309.164 10.0833 311.414 15.0833 311.414 21.25C311.414 27.75 309.164 33.1667 304.664 37.5C300.331 41.6667 294.497 43.75 287.164 43.75ZM409.609 199C394.276 199 380.776 196 369.109 190C357.609 184 348.693 175.833 342.359 165.5C336.026 155 332.859 143.083 332.859 129.75C332.859 116.25 335.943 104.333 342.109 94C348.443 83.5 357.026 75.3333 367.859 69.5C378.693 63.5 390.943 60.5 404.609 60.5C417.776 60.5 429.609 63.3333 440.109 69C450.776 74.5 459.193 82.5 465.359 93C471.526 103.333 474.609 115.75 474.609 130.25C474.609 131.75 474.526 133.5 474.359 135.5C474.193 137.333 474.026 139.083 473.859 140.75H364.609V118H453.359L438.359 124.75C438.359 117.75 436.943 111.667 434.109 106.5C431.276 101.333 427.359 97.3333 422.359 94.5C417.359 91.5 411.526 90 404.859 90C398.193 90 392.276 91.5 387.109 94.5C382.109 97.3333 378.193 101.417 375.359 106.75C372.526 111.917 371.109 118.083 371.109 125.25V131.25C371.109 138.583 372.693 145.083 375.859 150.75C379.193 156.25 383.776 160.5 389.609 163.5C395.609 166.333 402.609 167.75 410.609 167.75C417.776 167.75 424.026 166.667 429.359 164.5C434.859 162.333 439.859 159.083 444.359 154.75L465.109 177.25C458.943 184.25 451.193 189.667 441.859 193.5C432.526 197.167 421.776 199 409.609 199ZM582.324 60.5C592.991 60.5 602.491 62.6667 610.824 67C619.324 71.1667 625.991 77.6667 630.824 86.5C635.658 95.1667 638.074 106.333 638.074 120V197H599.074V126C599.074 115.167 596.658 107.167 591.824 102C587.158 96.8333 580.491 94.25 571.824 94.25C565.658 94.25 560.074 95.5833 555.074 98.25C550.241 100.75 546.408 104.667 543.574 110C540.908 115.333 539.574 122.167 539.574 130.5V197H500.574V62.5H537.824V99.75L530.824 88.5C535.658 79.5 542.574 72.5833 551.574 67.75C560.574 62.9167 570.824 60.5 582.324 60.5ZM728.426 199C712.592 199 700.259 195 691.426 187C682.592 178.833 678.176 166.75 678.176 150.75V32.75H717.176V150.25C717.176 155.917 718.676 160.333 721.676 163.5C724.676 166.5 728.759 168 733.926 168C740.092 168 745.342 166.333 749.676 163L760.176 190.5C756.176 193.333 751.342 195.5 745.676 197C740.176 198.333 734.426 199 728.426 199ZM657.426 95.5V65.5H750.676V95.5H657.426ZM827.318 199C815.818 199 804.735 197.667 794.068 195C783.568 192.167 775.235 188.667 769.068 184.5L782.068 156.5C788.235 160.333 795.485 163.5 803.818 166C812.318 168.333 820.652 169.5 828.818 169.5C837.818 169.5 844.152 168.417 847.818 166.25C851.652 164.083 853.568 161.083 853.568 157.25C853.568 154.083 852.068 151.75 849.068 150.25C846.235 148.583 842.402 147.333 837.568 146.5C832.735 145.667 827.402 144.833 821.568 144C815.902 143.167 810.152 142.083 804.318 140.75C798.485 139.25 793.152 137.083 788.318 134.25C783.485 131.417 779.568 127.583 776.568 122.75C773.735 117.917 772.318 111.667 772.318 104C772.318 95.5 774.735 88 779.568 81.5C784.568 75 791.735 69.9167 801.068 66.25C810.402 62.4167 821.568 60.5 834.568 60.5C843.735 60.5 853.068 61.5 862.568 63.5C872.068 65.5 879.985 68.4167 886.318 72.25L873.318 100C866.818 96.1667 860.235 93.5833 853.568 92.25C847.068 90.75 840.735 90 834.568 90C825.902 90 819.568 91.1667 815.568 93.5C811.568 95.8333 809.568 98.8333 809.568 102.5C809.568 105.833 810.985 108.333 813.818 110C816.818 111.667 820.735 113 825.568 114C830.402 115 835.652 115.917 841.318 116.75C847.152 117.417 852.985 118.5 858.818 120C864.652 121.5 869.902 123.667 874.568 126.5C879.402 129.167 883.318 132.917 886.318 137.75C889.318 142.417 890.818 148.583 890.818 156.25C890.818 164.583 888.318 172 883.318 178.5C878.318 184.833 871.068 189.833 861.568 193.5C852.235 197.167 840.818 199 827.318 199Z"/>
</mask>
<path d="M57.8691 193.5L57.5047 194.431L57.5128 194.434L57.521 194.437L57.8691 193.5ZM27.8691 174.5L27.1763 175.221L27.8691 174.5ZM7.86914 145.75L6.94849 146.141L6.95363 146.152L7.86914 145.75ZM7.86914 73.25L6.95355 72.8477L6.94856 72.8594L7.86914 73.25ZM27.8691 44.5L27.1833 43.7722L27.1763 43.7789L27.8691 44.5ZM58.1191 25.75L58.4718 26.6858L58.4835 26.6812L58.1191 25.75ZM136.869 27L136.468 27.9159L136.475 27.9192L136.483 27.9223L136.869 27ZM167.869 50L168.547 50.7348L169.24 50.0953L168.643 49.3661L167.869 50ZM141.869 74L141.118 74.6598L141.794 75.4302L142.547 74.7348L141.869 74ZM121.869 58.75L121.438 59.6525L121.447 59.6565L121.455 59.6604L121.869 58.75ZM57.6191 69L58.3262 69.7071L57.6191 69ZM45.8691 86.75L44.9454 86.367L44.9414 86.3767L44.9376 86.3865L45.8691 86.75ZM45.8691 132.25L44.9376 132.614L44.9414 132.623L44.9454 132.633L45.8691 132.25ZM57.6191 150L56.912 150.707L57.6191 150ZM121.869 160.5L122.283 161.41L122.291 161.406L122.3 161.402L121.869 160.5ZM141.869 144.75L142.547 144.015L141.785 143.311L141.11 144.099L141.869 144.75ZM167.869 168.75L168.643 169.384L169.24 168.655L168.547 168.015L167.869 168.75ZM136.869 192L136.472 191.082L136.468 191.084L136.869 192ZM95.6191 199C82.2279 199 69.7635 196.851 58.2173 192.563L57.521 194.437C69.3081 198.816 82.0104 201 95.6191 201V199ZM58.2336 192.569C46.8498 188.114 36.9629 181.85 28.562 173.779L27.1763 175.221C35.7754 183.483 45.8885 189.886 57.5047 194.431L58.2336 192.569ZM28.562 173.779C20.1582 165.705 13.5664 156.23 8.78467 145.348L6.95363 146.152C11.8386 157.27 18.5801 166.962 27.1763 175.221L28.562 173.779ZM8.78972 145.359C4.18057 134.495 1.86914 122.546 1.86914 109.5H-0.130859C-0.130859 122.787 2.22437 135.005 6.94856 146.141L8.78972 145.359ZM1.86914 109.5C1.86914 96.4538 4.18057 84.505 8.78972 73.6405L6.94856 72.8594C2.22437 83.995 -0.130859 96.2129 -0.130859 109.5H1.86914ZM8.78467 73.6523C13.5664 62.7697 20.1582 53.2953 28.562 45.2211L27.1763 43.7789C18.5801 52.038 11.8386 61.7303 6.95363 72.8477L8.78467 73.6523ZM28.5549 45.2278C37.1223 37.1547 47.0914 30.974 58.4718 26.6858L57.7665 24.8142C46.1469 29.1926 35.9493 35.5119 27.1833 43.7722L28.5549 45.2278ZM58.4835 26.6812C69.8557 22.2313 82.3139 20 95.8691 20V18C82.0911 18 69.3826 20.2687 57.7547 24.8187L58.4835 26.6812ZM95.8691 20C110.917 20 124.444 22.6453 136.468 27.9159L137.271 26.0841C124.961 20.688 111.155 18 95.8691 18V20ZM136.483 27.9223C148.668 33.027 158.868 40.5958 167.096 50.6339L168.643 49.3661C160.204 39.0709 149.737 31.3063 137.256 26.0777L136.483 27.9223ZM167.191 49.2652L141.191 73.2652L142.547 74.7348L168.547 50.7348L167.191 49.2652ZM142.621 73.3402C136.539 66.4141 129.761 61.2387 122.283 57.8396L121.455 59.6604C128.644 62.9279 135.199 67.9192 141.118 74.6598L142.621 73.3402ZM122.3 57.8475C114.823 54.2791 106.675 52.5 97.8691 52.5V54.5C106.397 54.5 114.248 56.2209 121.438 59.6525L122.3 57.8475ZM97.8691 52.5C89.5922 52.5 81.9672 53.8517 75.0056 56.5684L75.7327 58.4316C82.4377 55.815 89.8128 54.5 97.8691 54.5V52.5ZM75.0056 56.5684C68.0484 59.2834 62.0135 63.1914 56.912 68.2929L58.3262 69.7071C63.2248 64.8085 69.0232 61.0499 75.7327 58.4316L75.0056 56.5684ZM56.912 68.2929C51.815 73.3899 47.8266 79.4181 44.9454 86.367L46.7929 87.133C49.5783 80.4152 53.4233 74.6101 58.3262 69.7071L56.912 68.2929ZM44.9376 86.3865C42.22 93.3503 40.8691 101.059 40.8691 109.5H42.8691C42.8691 101.274 44.185 93.8163 46.8007 87.1135L44.9376 86.3865ZM40.8691 109.5C40.8691 117.941 42.22 125.65 44.9376 132.614L46.8007 131.886C44.185 125.184 42.8691 117.726 42.8691 109.5H40.8691ZM44.9454 132.633C47.8266 139.582 51.815 145.61 56.912 150.707L58.3262 149.293C53.4233 144.39 49.5783 138.585 46.7929 131.867L44.9454 132.633ZM56.912 150.707C62.0135 155.809 68.0484 159.717 75.0056 162.432L75.7327 160.568C69.0232 157.95 63.2248 154.191 58.3262 149.293L56.912 150.707ZM75.0056 162.432C81.9672 165.148 89.5922 166.5 97.8691 166.5V164.5C89.8128 164.5 82.4377 163.185 75.7327 160.568L75.0056 162.432ZM97.8691 166.5C106.668 166.5 114.81 164.807 122.283 161.41L121.455 159.59C114.262 162.86 106.404 164.5 97.8691 164.5V166.5ZM122.3 161.402C129.775 157.835 136.55 152.492 142.628 145.401L141.11 144.099C135.188 151.008 128.63 156.165 121.438 159.598L122.3 161.402ZM141.191 145.485L167.191 169.485L168.547 168.015L142.547 144.015L141.191 145.485ZM167.096 168.116C158.866 178.157 148.663 185.811 136.472 191.082L137.266 192.918C149.742 187.523 160.206 179.677 168.643 169.384L167.096 168.116ZM136.468 191.084C124.446 196.354 110.835 199 95.6191 199V201C111.07 201 124.959 198.313 137.271 192.916L136.468 191.084ZM192.469 197H191.469V198H192.469V197ZM192.469 11.5V10.5H191.469V11.5H192.469ZM231.469 11.5H232.469V10.5H231.469V11.5ZM231.469 197V198H232.469V197H231.469ZM193.469 197V11.5H191.469V197H193.469ZM192.469 12.5H231.469V10.5H192.469V12.5ZM230.469 11.5V197H232.469V11.5H230.469ZM231.469 196H192.469V198H231.469V196ZM267.664 197H266.664V198H267.664V197ZM267.664 62.5V61.5H266.664V62.5H267.664ZM306.664 62.5H307.664V61.5H306.664V62.5ZM306.664 197V198H307.664V197H306.664ZM269.664 37.5L268.985 38.2338L269.664 37.5ZM269.664 6.49999L270.343 7.23376V7.23375L269.664 6.49999ZM304.664 6.25L304 6.99741L304.008 7.00441L304.016 7.01124L304.664 6.25ZM304.664 37.5L305.357 38.2208L305.358 38.2203L304.664 37.5ZM268.664 197V62.5H266.664V197H268.664ZM267.664 63.5H306.664V61.5H267.664V63.5ZM305.664 62.5V197H307.664V62.5H305.664ZM306.664 196H267.664V198H306.664V196ZM287.164 42.75C280.204 42.75 274.628 40.7333 270.343 36.7662L268.985 38.2338C273.7 42.6001 279.791 44.75 287.164 44.75V42.75ZM270.343 36.7662C266.049 32.79 263.914 27.8898 263.914 22H261.914C261.914 28.4435 264.279 33.8766 268.985 38.2338L270.343 36.7662ZM263.914 22C263.914 16.1101 266.049 11.21 270.343 7.23376L268.985 5.76623C264.279 10.1233 261.914 15.5565 261.914 22H263.914ZM270.343 7.23375C274.628 3.26671 280.204 1.24998 287.164 1.24998V-0.750015C279.791 -0.750015 273.7 1.39993 268.985 5.76623L270.343 7.23375ZM287.164 1.24998C294.135 1.24998 299.716 3.19004 304 6.99741L305.328 5.50259C300.612 1.30994 294.526 -0.750015 287.164 -0.750015V1.24998ZM304.016 7.01124C308.282 10.6454 310.414 15.3618 310.414 21.25H312.414C312.414 14.8048 310.046 9.52128 305.313 5.48875L304.016 7.01124ZM310.414 21.25C310.414 27.4906 308.266 32.6432 303.97 36.7797L305.358 38.2203C310.062 33.6901 312.414 28.0094 312.414 21.25H310.414ZM303.971 36.7792C299.863 40.729 294.299 42.75 287.164 42.75V44.75C294.696 44.75 300.798 42.6044 305.357 38.2208L303.971 36.7792ZM369.109 190L368.647 190.887L368.652 190.889L369.109 190ZM342.359 165.5L341.503 166.017L341.507 166.023L342.359 165.5ZM342.109 94L341.253 93.4835L341.251 93.4875L342.109 94ZM367.859 69.5L368.333 70.3805L368.344 70.3748L367.859 69.5ZM440.109 69L439.634 69.88L439.643 69.8845L439.651 69.8888L440.109 69ZM465.359 93L464.497 93.5064L464.501 93.5125L465.359 93ZM474.359 135.5L475.355 135.591L475.356 135.583L474.359 135.5ZM473.859 140.75V141.75H474.764L474.854 140.85L473.859 140.75ZM364.609 140.75H363.609V141.75H364.609V140.75ZM364.609 118V117H363.609V118H364.609ZM453.359 118L453.77 118.912L453.359 117V118ZM438.359 124.75H437.359V126.297L438.77 125.662L438.359 124.75ZM434.109 106.5L433.233 106.981L434.109 106.5ZM422.359 94.5L421.845 95.3575L421.856 95.3639L421.866 95.37L422.359 94.5ZM387.109 94.5L387.602 95.3701L387.612 95.3648L387.109 94.5ZM375.359 106.75L376.236 107.231L376.242 107.219L375.359 106.75ZM375.859 150.75L374.986 151.238L374.995 151.253L375.004 151.268L375.859 150.75ZM389.609 163.5L389.152 164.389L389.167 164.397L389.182 164.404L389.609 163.5ZM429.359 164.5L428.993 163.57L428.983 163.574L429.359 164.5ZM444.359 154.75L445.094 154.072L444.402 153.321L443.666 154.03L444.359 154.75ZM465.109 177.25L465.86 177.911L466.456 177.235L465.844 176.572L465.109 177.25ZM441.859 193.5L442.225 194.431L442.232 194.428L442.239 194.425L441.859 193.5ZM409.609 198C394.408 198 381.07 195.027 369.567 189.111L368.652 190.889C380.482 196.973 394.144 200 409.609 200V198ZM369.572 189.113C358.221 183.191 349.444 175.145 343.212 164.977L341.507 166.023C347.941 176.521 356.998 184.809 368.647 190.887L369.572 189.113ZM343.216 164.984C336.984 154.653 333.859 142.918 333.859 129.75H331.859C331.859 143.249 335.068 155.347 341.503 166.016L343.216 164.984ZM333.859 129.75C333.859 116.408 336.905 104.673 342.968 94.5125L341.251 93.4875C334.981 103.994 331.859 116.092 331.859 129.75H333.859ZM342.966 94.5165C349.206 84.1704 357.657 76.1292 368.333 70.3805L367.385 68.6195C356.395 74.5375 347.679 82.8296 341.253 93.4835L342.966 94.5165ZM368.344 70.3748C379.014 64.4652 391.094 61.5 404.609 61.5V59.5C390.791 59.5 378.371 62.5348 367.375 68.6252L368.344 70.3748ZM404.609 61.5C417.628 61.5 429.295 64.3 439.634 69.88L440.584 68.12C429.924 62.3666 417.924 59.5 404.609 59.5V61.5ZM439.651 69.8888C450.147 75.3008 458.425 83.167 464.497 93.5064L466.222 92.4936C459.961 81.833 451.405 73.6992 440.568 68.1112L439.651 69.8888ZM464.501 93.5125C470.558 103.662 473.609 115.893 473.609 130.25H475.609C475.609 115.607 472.495 103.005 466.218 92.4875L464.501 93.5125ZM473.609 130.25C473.609 131.715 473.528 133.436 473.363 135.417L475.356 135.583C475.524 133.564 475.609 131.785 475.609 130.25H473.609ZM473.363 135.409C473.197 137.24 473.031 138.987 472.864 140.65L474.854 140.85C475.021 139.18 475.188 137.427 475.355 135.591L473.363 135.409ZM473.859 139.75H364.609V141.75H473.859V139.75ZM365.609 140.75V118H363.609V140.75H365.609ZM364.609 119H453.359V117H364.609V119ZM452.949 117.088L437.949 123.838L438.77 125.662L453.77 118.912L452.949 117.088ZM439.359 124.75C439.359 117.613 437.914 111.359 434.986 106.019L433.233 106.981C435.971 111.975 437.359 117.886 437.359 124.75H439.359ZM434.986 106.019C432.066 100.694 428.018 96.5573 422.852 93.63L421.866 95.37C426.701 98.1094 430.486 101.973 433.233 106.981L434.986 106.019ZM422.874 93.6425C417.697 90.5365 411.681 89 404.859 89V91C411.371 91 417.022 92.4635 421.845 95.3575L422.874 93.6425ZM404.859 89C398.037 89 391.944 90.5367 386.607 93.6352L387.612 95.3648C392.609 92.4633 398.348 91 404.859 91V89ZM386.616 93.63C381.442 96.562 377.394 100.788 374.476 106.281L376.242 107.219C378.991 102.045 382.777 98.1047 387.602 95.37L386.616 93.63ZM374.483 106.269C371.553 111.612 370.109 117.951 370.109 125.25H372.109C372.109 118.215 373.499 112.221 376.236 107.231L374.483 106.269ZM370.109 125.25V131.25H372.109V125.25H370.109ZM370.109 131.25C370.109 138.732 371.726 145.404 374.986 151.238L376.732 150.262C373.659 144.763 372.109 138.435 372.109 131.25H370.109ZM375.004 151.268C378.435 156.93 383.158 161.307 389.152 164.389L390.067 162.611C384.394 159.693 379.95 155.57 376.715 150.232L375.004 151.268ZM389.182 164.404C395.341 167.312 402.492 168.75 410.609 168.75V166.75C402.727 166.75 395.878 165.354 390.036 162.596L389.182 164.404ZM410.609 168.75C417.875 168.75 424.258 167.652 429.736 165.426L428.983 163.574C423.795 165.681 417.678 166.75 410.609 166.75V168.75ZM429.726 165.43C435.354 163.213 440.464 159.889 445.053 155.47L443.666 154.03C439.255 158.277 434.364 161.454 428.993 163.57L429.726 165.43ZM443.624 155.428L464.374 177.928L465.844 176.572L445.094 154.072L443.624 155.428ZM464.359 176.589C458.302 183.464 450.682 188.795 441.479 192.575L442.239 194.425C451.703 190.538 459.583 185.036 465.86 177.911L464.359 176.589ZM441.494 192.569C432.299 196.182 421.677 198 409.609 198V200C421.875 200 432.753 198.152 442.225 194.431L441.494 192.569ZM610.824 67L610.363 67.8872L610.373 67.8927L610.384 67.8979L610.824 67ZM630.824 86.5L629.947 86.98L629.951 86.9871L630.824 86.5ZM638.074 197V198H639.074V197H638.074ZM599.074 197H598.074V198H599.074V197ZM591.824 102L591.082 102.67L591.088 102.677L591.094 102.683L591.824 102ZM555.074 98.25L555.534 99.1383L555.545 99.1323L555.074 98.25ZM543.574 110L542.691 109.531L542.685 109.542L542.68 109.553L543.574 110ZM539.574 197V198H540.574V197H539.574ZM500.574 197H499.574V198H500.574V197ZM500.574 62.5V61.5H499.574V62.5H500.574ZM537.824 62.5H538.824V61.5H537.824V62.5ZM537.824 99.75L536.975 100.278L538.824 103.25V99.75H537.824ZM530.824 88.5L529.943 88.0269L529.669 88.5368L529.975 89.0283L530.824 88.5ZM551.574 67.75L552.047 68.631L551.574 67.75ZM582.324 61.5C592.852 61.5 602.19 63.6375 610.363 67.8872L611.286 66.1128C602.791 61.6958 593.13 59.5 582.324 59.5V61.5ZM610.384 67.8979C618.687 71.9678 625.206 78.3156 629.947 86.98L631.701 86.02C626.776 77.0178 619.962 70.3655 611.264 66.1021L610.384 67.8979ZM629.951 86.9871C634.676 95.4592 637.074 106.443 637.074 120H639.074C639.074 106.224 636.639 94.8742 631.698 86.0129L629.951 86.9871ZM637.074 120V197H639.074V120H637.074ZM638.074 196H599.074V198H638.074V196ZM600.074 197V126H598.074V197H600.074ZM600.074 126C600.074 115.044 597.634 106.746 592.555 101.317L591.094 102.683C595.682 107.587 598.074 115.29 598.074 126H600.074ZM592.566 101.33C587.665 95.9036 580.699 93.25 571.824 93.25V95.25C580.282 95.25 586.65 97.7631 591.082 102.67L592.566 101.33ZM571.824 93.25C565.508 93.25 559.761 94.6171 554.604 97.3676L555.545 99.1323C560.387 96.5496 565.807 95.25 571.824 95.25V93.25ZM554.615 97.3618C549.581 99.9653 545.609 104.039 542.691 109.531L544.457 110.469C547.206 105.295 550.9 101.535 555.534 99.1382L554.615 97.3618ZM542.68 109.553C539.922 115.069 538.574 122.069 538.574 130.5H540.574C540.574 122.264 541.893 115.598 544.469 110.447L542.68 109.553ZM538.574 130.5V197H540.574V130.5H538.574ZM539.574 196H500.574V198H539.574V196ZM501.574 197V62.5H499.574V197H501.574ZM500.574 63.5H537.824V61.5H500.574V63.5ZM536.824 62.5V99.75H538.824V62.5H536.824ZM538.673 99.2217L531.673 87.9717L529.975 89.0283L536.975 100.278L538.673 99.2217ZM531.705 88.9731C536.446 80.1462 543.22 73.3714 552.047 68.631L551.101 66.869C541.928 71.7953 534.87 78.8538 529.943 88.0269L531.705 88.9731ZM552.047 68.631C560.884 63.8852 570.968 61.5 582.324 61.5V59.5C570.68 59.5 560.264 61.9482 551.101 66.869L552.047 68.631ZM691.426 187L690.747 187.734L690.755 187.741L691.426 187ZM678.176 32.75V31.75H677.176V32.75H678.176ZM717.176 32.75H718.176V31.75H717.176V32.75ZM721.676 163.5L720.95 164.188L720.959 164.198L720.969 164.207L721.676 163.5ZM749.676 163L750.61 162.643L750.131 161.388L749.066 162.207L749.676 163ZM760.176 190.5L760.754 191.316L761.387 190.868L761.11 190.143L760.176 190.5ZM745.676 197L745.911 197.972L745.922 197.969L745.932 197.967L745.676 197ZM657.426 95.5H656.426V96.5H657.426V95.5ZM657.426 65.5V64.5H656.426V65.5H657.426ZM750.676 65.5H751.676V64.5H750.676V65.5ZM750.676 95.5V96.5H751.676V95.5H750.676ZM728.426 198C712.757 198 700.693 194.044 692.097 186.259L690.755 187.741C699.825 195.956 712.427 200 728.426 200V198ZM692.105 186.266C683.537 178.345 679.176 166.568 679.176 150.75H677.176C677.176 166.932 681.647 179.322 690.747 187.734L692.105 186.266ZM679.176 150.75V32.75H677.176V150.75H679.176ZM678.176 33.75H717.176V31.75H678.176V33.75ZM716.176 32.75V150.25H718.176V32.75H716.176ZM716.176 150.25C716.176 156.093 717.726 160.785 720.95 164.188L722.402 162.812C719.625 159.882 718.176 155.74 718.176 150.25H716.176ZM720.969 164.207C724.196 167.434 728.555 169 733.926 169V167C728.963 167 725.156 165.566 722.383 162.793L720.969 164.207ZM733.926 169C740.283 169 745.755 167.277 750.286 163.793L749.066 162.207C744.93 165.389 739.902 167 733.926 167V169ZM748.742 163.357L759.242 190.857L761.11 190.143L750.61 162.643L748.742 163.357ZM759.598 189.684C755.712 192.436 750.993 194.558 745.42 196.033L745.932 197.967C751.692 196.442 756.639 194.23 760.754 191.316L759.598 189.684ZM745.44 196.028C740.022 197.342 734.351 198 728.426 198V200C734.5 200 740.33 199.325 745.911 197.972L745.44 196.028ZM658.426 95.5V65.5H656.426V95.5H658.426ZM657.426 66.5H750.676V64.5H657.426V66.5ZM749.676 65.5V95.5H751.676V65.5H749.676ZM750.676 94.5H657.426V96.5H750.676V94.5ZM794.068 195L793.808 195.965L793.817 195.968L793.826 195.97L794.068 195ZM769.068 184.5L768.161 184.079L767.803 184.852L768.508 185.329L769.068 184.5ZM782.068 156.5L782.596 155.651L781.637 155.054L781.161 156.079L782.068 156.5ZM803.818 166L803.531 166.958L803.542 166.961L803.554 166.964L803.818 166ZM847.818 166.25L847.326 165.379L847.318 165.384L847.31 165.389L847.818 166.25ZM849.068 150.25L848.561 151.112L848.591 151.129L848.621 151.144L849.068 150.25ZM837.568 146.5L837.398 147.485L837.568 146.5ZM821.568 144L821.423 144.989L821.427 144.99L821.568 144ZM804.318 140.75L804.069 141.718L804.082 141.722L804.096 141.725L804.318 140.75ZM788.318 134.25L788.824 133.387L788.318 134.25ZM776.568 122.75L775.706 123.256L775.712 123.267L775.719 123.277L776.568 122.75ZM779.568 81.5L778.776 80.8903L778.771 80.8968L778.766 80.9033L779.568 81.5ZM801.068 66.25L801.434 67.1807L801.441 67.1779L801.448 67.175L801.068 66.25ZM862.568 63.5L862.774 62.5214L862.568 63.5ZM886.318 72.25L887.224 72.6742L887.605 71.86L886.836 71.3945L886.318 72.25ZM873.318 100L872.81 100.861L873.757 101.42L874.224 100.424L873.318 100ZM853.568 92.25L853.344 93.2244L853.358 93.2277L853.372 93.2306L853.568 92.25ZM815.568 93.5L815.065 92.6362L815.568 93.5ZM813.818 110L813.311 110.862L813.322 110.868L813.333 110.874L813.818 110ZM841.318 116.75L841.173 117.739L841.189 117.742L841.205 117.744L841.318 116.75ZM858.818 120L859.067 119.031L858.818 120ZM874.568 126.5L874.049 127.355L874.067 127.366L874.085 127.376L874.568 126.5ZM886.318 137.75L885.469 138.277L885.473 138.284L885.477 138.291L886.318 137.75ZM883.318 178.5L884.103 179.12L884.111 179.11L883.318 178.5ZM861.568 193.5L861.208 192.567L861.203 192.569L861.568 193.5ZM827.318 198C815.896 198 804.895 196.676 794.311 194.03L793.826 195.97C804.575 198.658 815.74 200 827.318 200V198ZM794.329 194.035C783.891 191.218 775.672 187.755 769.628 183.671L768.508 185.329C774.798 189.579 783.246 193.115 793.808 195.965L794.329 194.035ZM769.975 184.921L782.975 156.921L781.161 156.079L768.161 184.079L769.975 184.921ZM781.54 157.349C787.795 161.237 795.129 164.437 803.531 166.958L804.106 165.042C795.841 162.563 788.675 159.429 782.596 155.651L781.54 157.349ZM803.554 166.964C812.133 169.319 820.555 170.5 828.818 170.5V168.5C820.748 168.5 812.504 167.347 804.083 165.036L803.554 166.964ZM828.818 170.5C837.839 170.5 844.411 169.425 848.327 167.111L847.31 165.389C843.892 167.408 837.798 168.5 828.818 168.5V170.5ZM848.31 167.121C852.402 164.808 854.568 161.504 854.568 157.25H852.568C852.568 160.663 850.902 163.358 847.326 165.379L848.31 167.121ZM854.568 157.25C854.568 155.503 854.152 153.934 853.285 152.584C852.419 151.238 851.143 150.169 849.516 149.356L848.621 151.144C849.994 151.831 850.968 152.679 851.602 153.666C852.234 154.649 852.568 155.831 852.568 157.25H854.568ZM849.575 149.388C846.6 147.638 842.638 146.359 837.738 145.515L837.398 147.485C842.166 148.307 845.87 149.529 848.561 151.112L849.575 149.388ZM837.738 145.515C832.894 144.679 827.551 143.844 821.71 143.01L821.427 144.99C827.253 145.822 832.576 146.654 837.398 147.485L837.738 145.515ZM821.714 143.011C816.074 142.181 810.35 141.103 804.541 139.775L804.096 141.725C809.953 143.064 815.729 144.152 821.423 144.989L821.714 143.011ZM804.567 139.782C798.817 138.303 793.571 136.17 788.824 133.387L787.813 135.113C792.732 137.996 798.153 140.197 804.069 141.718L804.567 139.782ZM788.824 133.387C784.133 130.637 780.334 126.92 777.418 122.223L775.719 123.277C778.803 128.247 782.837 132.196 787.813 135.113L788.824 133.387ZM777.431 122.244C774.715 117.611 773.318 111.552 773.318 104H771.318C771.318 111.782 772.755 118.223 775.706 123.256L777.431 122.244ZM773.318 104C773.318 95.7036 775.672 88.4153 780.371 82.0967L778.766 80.9033C773.798 87.5847 771.318 95.2964 771.318 104H773.318ZM780.361 82.1097C785.228 75.7824 792.232 70.7959 801.434 67.1807L800.703 65.3192C791.238 69.0375 783.909 74.2176 778.776 80.8903L780.361 82.1097ZM801.448 67.175C810.632 63.4032 821.663 61.5 834.568 61.5V59.5C821.474 59.5 810.172 61.4301 800.688 65.325L801.448 67.175ZM834.568 61.5C843.662 61.5 852.926 62.492 862.362 64.4785L862.774 62.5214C853.211 60.508 843.808 59.5 834.568 59.5V61.5ZM862.362 64.4785C871.785 66.4622 879.588 69.3454 885.801 73.1055L886.836 71.3945C880.382 67.4879 872.352 64.5378 862.774 62.5214L862.362 64.4785ZM885.413 71.8258L872.413 99.5758L874.224 100.424L887.224 72.6742L885.413 71.8258ZM873.826 99.1386C867.24 95.2546 860.552 92.627 853.764 91.2694L853.372 93.2306C859.918 94.5396 866.396 97.0787 872.81 100.861L873.826 99.1386ZM853.793 91.2756C847.225 89.76 840.817 89 834.568 89V91C840.653 91 846.911 91.74 853.344 93.2244L853.793 91.2756ZM834.568 89C825.855 89 819.3 90.1654 815.065 92.6362L816.072 94.3638C819.836 92.1679 825.949 91 834.568 91V89ZM815.065 92.6362C810.851 95.0942 808.568 98.3812 808.568 102.5H810.568C810.568 99.2854 812.286 96.5725 816.072 94.3638L815.065 92.6362ZM808.568 102.5C808.568 106.182 810.167 109.012 813.311 110.862L814.325 109.138C811.803 107.654 810.568 105.485 810.568 102.5H808.568ZM813.333 110.874C816.451 112.606 820.473 113.967 825.366 114.979L825.771 113.021C820.997 112.033 817.186 110.727 814.304 109.126L813.333 110.874ZM825.366 114.979C830.221 115.984 835.49 116.904 841.173 117.739L841.464 115.761C835.813 114.93 830.583 114.016 825.771 113.021L825.366 114.979ZM841.205 117.744C846.991 118.405 852.779 119.48 858.569 120.968L859.067 119.031C853.191 117.52 847.312 116.428 841.432 115.756L841.205 117.744ZM858.569 120.968C864.317 122.447 869.475 124.577 874.049 127.355L875.087 125.645C870.329 122.756 864.986 120.553 859.067 119.031L858.569 120.968ZM874.085 127.376C878.764 129.957 882.556 133.585 885.469 138.277L887.168 137.223C884.081 132.248 880.039 128.376 875.051 125.624L874.085 127.376ZM885.477 138.291C888.341 142.746 889.818 148.704 889.818 156.25H891.818C891.818 148.462 890.296 142.088 887.16 137.209L885.477 138.291ZM889.818 156.25C889.818 164.367 887.389 171.568 882.526 177.89L884.111 179.11C889.248 172.432 891.818 164.8 891.818 156.25H889.818ZM882.534 177.88C877.67 184.041 870.584 188.948 861.208 192.567L861.928 194.433C871.552 190.718 878.967 185.626 884.103 179.12L882.534 177.88ZM861.203 192.569C852.019 196.177 840.734 198 827.318 198V200C840.903 200 852.452 198.156 861.934 194.431L861.203 192.569Z" fill="#9F9F9F" mask="url(#path-1-outside-1_112_221)"/>
</svg>
