<svg width="1001" height="189" viewBox="0 0 1001 189" fill="none" xmlns="http://www.w3.org/2000/svg">
<mask id="path-1-outside-1_112_239" maskUnits="userSpaceOnUse" x="-1" y="-1" width="1004" height="191" fill="black">
<rect fill="white" x="-1" y="-1" width="1004" height="191"/>
<path d="M95.6641 189C82.1641 189 69.5807 186.833 57.9141 182.5C46.4141 178 36.4141 171.667 27.9141 163.5C19.4141 155.333 12.7474 145.75 7.91406 134.75C3.2474 123.75 0.914063 111.667 0.914063 98.5C0.914063 85.3333 3.2474 73.25 7.91406 62.25C12.7474 51.25 19.4141 41.6667 27.9141 33.5C36.5807 25.3333 46.6641 19.0833 58.1641 14.75C69.6641 10.25 82.2474 8 95.9141 8C111.081 8 124.747 10.6667 136.914 16C149.247 21.1667 159.581 28.8333 167.914 39L141.914 63C135.914 56.1667 129.247 51.0833 121.914 47.75C114.581 44.25 106.581 42.5 97.9141 42.5C89.7474 42.5 82.2474 43.8333 75.4141 46.5C68.5807 49.1667 62.6641 53 57.6641 58C52.6641 63 48.7474 68.9167 45.9141 75.75C43.2474 82.5833 41.9141 90.1667 41.9141 98.5C41.9141 106.833 43.2474 114.417 45.9141 121.25C48.7474 128.083 52.6641 134 57.6641 139C62.6641 144 68.5807 147.833 75.4141 150.5C82.2474 153.167 89.7474 154.5 97.9141 154.5C106.581 154.5 114.581 152.833 121.914 149.5C129.247 146 135.914 140.75 141.914 133.75L167.914 157.75C159.581 167.917 149.247 175.667 136.914 181C124.747 186.333 110.997 189 95.6641 189ZM251.875 188C237.542 188 224.792 185 213.625 179C202.625 173 193.875 164.833 187.375 154.5C181.042 144 177.875 132.083 177.875 118.75C177.875 105.25 181.042 93.3333 187.375 83C193.875 72.5 202.625 64.3333 213.625 58.5C224.792 52.5 237.542 49.5 251.875 49.5C266.042 49.5 278.708 52.5 289.875 58.5C301.042 64.3333 309.792 72.4167 316.125 82.75C322.458 93.0833 325.625 105.083 325.625 118.75C325.625 132.083 322.458 144 316.125 154.5C309.792 164.833 301.042 173 289.875 179C278.708 185 266.042 188 251.875 188ZM251.875 156C258.375 156 264.208 154.5 269.375 151.5C274.542 148.5 278.625 144.25 281.625 138.75C284.625 133.083 286.125 126.417 286.125 118.75C286.125 110.917 284.625 104.25 281.625 98.75C278.625 93.25 274.542 89 269.375 86C264.208 83 258.375 81.5 251.875 81.5C245.375 81.5 239.542 83 234.375 86C229.208 89 225.042 93.25 221.875 98.75C218.875 104.25 217.375 110.917 217.375 118.75C217.375 126.417 218.875 133.083 221.875 138.75C225.042 144.25 229.208 148.5 234.375 151.5C239.542 154.5 245.375 156 251.875 156ZM433.443 49.5C444.11 49.5 453.61 51.6667 461.943 56C470.443 60.1667 477.11 66.6667 481.943 75.5C486.777 84.1667 489.193 95.3333 489.193 109V186H450.193V115C450.193 104.167 447.777 96.1667 442.943 91C438.277 85.8333 431.61 83.25 422.943 83.25C416.777 83.25 411.193 84.5833 406.193 87.25C401.36 89.75 397.527 93.6667 394.693 99C392.027 104.333 390.693 111.167 390.693 119.5V186H351.693V51.5H388.943V88.75L381.943 77.5C386.777 68.5 393.693 61.5833 402.693 56.75C411.693 51.9167 421.943 49.5 433.443 49.5ZM569.795 188C558.295 188 547.212 186.667 536.545 184C526.045 181.167 517.712 177.667 511.545 173.5L524.545 145.5C530.712 149.333 537.962 152.5 546.295 155C554.795 157.333 563.128 158.5 571.295 158.5C580.295 158.5 586.628 157.417 590.295 155.25C594.128 153.083 596.045 150.083 596.045 146.25C596.045 143.083 594.545 140.75 591.545 139.25C588.712 137.583 584.878 136.333 580.045 135.5C575.212 134.667 569.878 133.833 564.045 133C558.378 132.167 552.628 131.083 546.795 129.75C540.962 128.25 535.628 126.083 530.795 123.25C525.962 120.417 522.045 116.583 519.045 111.75C516.212 106.917 514.795 100.667 514.795 93C514.795 84.5 517.212 77 522.045 70.5C527.045 64 534.212 58.9167 543.545 55.25C552.878 51.4167 564.045 49.5 577.045 49.5C586.212 49.5 595.545 50.5 605.045 52.5C614.545 54.5 622.462 57.4167 628.795 61.25L615.795 89C609.295 85.1667 602.712 82.5833 596.045 81.25C589.545 79.75 583.212 79 577.045 79C568.378 79 562.045 80.1667 558.045 82.5C554.045 84.8333 552.045 87.8333 552.045 91.5C552.045 94.8333 553.462 97.3333 556.295 99C559.295 100.667 563.212 102 568.045 103C572.878 104 578.128 104.917 583.795 105.75C589.628 106.417 595.462 107.5 601.295 109C607.128 110.5 612.378 112.667 617.045 115.5C621.878 118.167 625.795 121.917 628.795 126.75C631.795 131.417 633.295 137.583 633.295 145.25C633.295 153.583 630.795 161 625.795 167.5C620.795 173.833 613.545 178.833 604.045 182.5C594.712 186.167 583.295 188 569.795 188ZM714.107 188C702.941 188 692.941 185.833 684.107 181.5C675.441 177.167 668.691 170.583 663.857 161.75C659.024 152.75 656.607 141.333 656.607 127.5V51.5H695.607V121.75C695.607 132.917 697.941 141.167 702.607 146.5C707.441 151.667 714.191 154.25 722.857 154.25C728.857 154.25 734.191 153 738.857 150.5C743.524 147.833 747.191 143.833 749.857 138.5C752.524 133 753.857 126.167 753.857 118V51.5H792.857V186H755.857V149L762.607 159.75C758.107 169.083 751.441 176.167 742.607 181C733.941 185.667 724.441 188 714.107 188ZM828.988 186V0.499989H867.988V186H828.988ZM969.193 188C953.36 188 941.027 184 932.193 176C923.36 167.833 918.943 155.75 918.943 139.75V21.75H957.943V139.25C957.943 144.917 959.443 149.333 962.443 152.5C965.443 155.5 969.527 157 974.693 157C980.86 157 986.11 155.333 990.443 152L1000.94 179.5C996.943 182.333 992.11 184.5 986.443 186C980.943 187.333 975.193 188 969.193 188ZM898.193 84.5V54.5H991.443V84.5H898.193Z"/>
</mask>
<path d="M57.9141 182.5L57.5497 183.431L57.5578 183.434L57.5659 183.437L57.9141 182.5ZM27.9141 163.5L27.2212 164.221L27.9141 163.5ZM7.91406 134.75L6.99341 135.141L6.99854 135.152L7.91406 134.75ZM7.91406 62.25L6.99847 61.8477L6.99348 61.8594L7.91406 62.25ZM27.9141 33.5L27.2282 32.7722L27.2212 32.7789L27.9141 33.5ZM58.1641 14.75L58.5167 15.6858L58.5285 15.6812L58.1641 14.75ZM136.914 16L136.513 16.9159L136.52 16.9192L136.528 16.9223L136.914 16ZM167.914 39L168.592 39.7348L169.285 39.0953L168.687 38.3661L167.914 39ZM141.914 63L141.163 63.6598L141.839 64.4302L142.592 63.7348L141.914 63ZM121.914 47.75L121.483 48.6525L121.492 48.6565L121.5 48.6604L121.914 47.75ZM57.6641 58L58.3712 58.7071L57.6641 58ZM45.9141 75.75L44.9903 75.367L44.9863 75.3767L44.9825 75.3865L45.9141 75.75ZM45.9141 121.25L44.9825 121.614L44.9863 121.623L44.9903 121.633L45.9141 121.25ZM57.6641 139L56.957 139.707L57.6641 139ZM121.914 149.5L122.328 150.41L122.336 150.406L122.345 150.402L121.914 149.5ZM141.914 133.75L142.592 133.015L141.83 132.311L141.155 133.099L141.914 133.75ZM167.914 157.75L168.687 158.384L169.285 157.655L168.592 157.015L167.914 157.75ZM136.914 181L136.517 180.082L136.513 180.084L136.914 181ZM95.6641 188C82.2728 188 69.8084 185.851 58.2623 181.563L57.5659 183.437C69.3531 187.816 82.0553 190 95.6641 190V188ZM58.2785 181.569C46.8947 177.114 37.0078 170.85 28.6069 162.779L27.2212 164.221C35.8204 172.483 45.9334 178.886 57.5497 183.431L58.2785 181.569ZM28.6069 162.779C20.2031 154.705 13.6113 145.23 8.82958 134.348L6.99854 135.152C11.8835 146.27 18.625 155.962 27.2212 164.221L28.6069 162.779ZM8.83465 134.359C4.2255 123.495 1.91406 111.546 1.91406 98.5H-0.0859375C-0.0859375 111.787 2.26929 124.005 6.99348 135.141L8.83465 134.359ZM1.91406 98.5C1.91406 85.4538 4.2255 73.505 8.83465 62.6405L6.99348 61.8594C2.26929 72.995 -0.0859375 85.2129 -0.0859375 98.5H1.91406ZM8.82958 62.6523C13.6113 51.7697 20.2031 42.2953 28.6069 34.2211L27.2212 32.7789C18.625 41.038 11.8835 50.7303 6.99854 61.8477L8.82958 62.6523ZM28.5999 34.2278C37.1672 26.1547 47.1364 19.974 58.5167 15.6858L57.8114 13.8142C46.1918 18.1926 35.9942 24.5119 27.2283 32.7722L28.5999 34.2278ZM58.5285 15.6812C69.9006 11.2313 82.3588 9 95.9141 9V7C82.136 7 69.4276 9.26871 57.7997 13.8187L58.5285 15.6812ZM95.9141 9C110.962 9 124.489 11.6453 136.513 16.9159L137.316 15.0841C125.006 9.68798 111.199 7 95.9141 7V9ZM136.528 16.9223C148.713 22.027 158.913 29.5958 167.141 39.6339L168.687 38.3661C160.249 28.0709 149.782 20.3063 137.3 15.0777L136.528 16.9223ZM167.236 38.2652L141.236 62.2652L142.592 63.7348L168.592 39.7348L167.236 38.2652ZM142.666 62.3402C136.584 55.4141 129.806 50.2387 122.328 46.8396L121.5 48.6604C128.689 51.9279 135.244 56.9192 141.163 63.6598L142.666 62.3402ZM122.345 46.8475C114.868 43.2791 106.72 41.5 97.9141 41.5V43.5C106.442 43.5 114.293 45.2209 121.483 48.6525L122.345 46.8475ZM97.9141 41.5C89.6371 41.5 82.0121 42.8517 75.0505 45.5684L75.7776 47.4316C82.4827 44.815 89.8577 43.5 97.9141 43.5V41.5ZM75.0505 45.5684C68.0933 48.2834 62.0584 52.1914 56.957 57.2929L58.3712 58.7071C63.2697 53.8085 69.0682 50.0499 75.7776 47.4316L75.0505 45.5684ZM56.957 57.2929C51.8599 62.3899 47.8716 68.4181 44.9903 75.367L46.8378 76.133C49.6233 69.4152 53.4682 63.6101 58.3712 58.7071L56.957 57.2929ZM44.9825 75.3865C42.2649 82.3503 40.9141 90.0591 40.9141 98.5H42.9141C42.9141 90.2743 44.2299 82.8163 46.8456 76.1135L44.9825 75.3865ZM40.9141 98.5C40.9141 106.941 42.2649 114.65 44.9825 121.614L46.8456 120.886C44.2299 114.184 42.9141 106.726 42.9141 98.5H40.9141ZM44.9903 121.633C47.8716 128.582 51.8599 134.61 56.957 139.707L58.3712 138.293C53.4682 133.39 49.6233 127.585 46.8378 120.867L44.9903 121.633ZM56.957 139.707C62.0584 144.809 68.0933 148.717 75.0505 151.432L75.7776 149.568C69.0682 146.95 63.2697 143.191 58.3712 138.293L56.957 139.707ZM75.0505 151.432C82.0121 154.148 89.6371 155.5 97.9141 155.5V153.5C89.8577 153.5 82.4827 152.185 75.7776 149.568L75.0505 151.432ZM97.9141 155.5C106.712 155.5 114.855 153.807 122.328 150.41L121.5 148.59C114.307 151.86 106.449 153.5 97.9141 153.5V155.5ZM122.345 150.402C129.82 146.835 136.595 141.492 142.673 134.401L141.155 133.099C135.233 140.008 128.675 145.165 121.483 148.598L122.345 150.402ZM141.236 134.485L167.236 158.485L168.592 157.015L142.592 133.015L141.236 134.485ZM167.141 157.116C158.911 167.157 148.708 174.811 136.517 180.082L137.311 181.918C149.787 176.523 160.251 168.677 168.687 158.384L167.141 157.116ZM136.513 180.084C124.491 185.354 110.88 188 95.6641 188V190C111.114 190 125.004 187.313 137.316 181.916L136.513 180.084ZM213.625 179L213.146 179.878L213.152 179.881L213.625 179ZM187.375 154.5L186.519 155.016L186.524 155.025L186.529 155.032L187.375 154.5ZM187.375 83L186.525 82.4736L186.522 82.4774L187.375 83ZM213.625 58.5L214.094 59.3835L214.098 59.3809L213.625 58.5ZM289.875 58.5L289.402 59.3809L289.412 59.3863L289.875 58.5ZM316.125 154.5L316.978 155.023L316.981 155.016L316.125 154.5ZM289.875 179L289.402 178.119L289.875 179ZM269.375 151.5L269.877 152.365L269.375 151.5ZM281.625 138.75L282.503 139.229L282.509 139.218L281.625 138.75ZM281.625 98.75L280.747 99.2289L281.625 98.75ZM269.375 86L268.873 86.8648L269.375 86ZM234.375 86L234.877 86.8648L234.375 86ZM221.875 98.75L221.008 98.251L221.003 98.261L220.997 98.2711L221.875 98.75ZM221.875 138.75L220.991 139.218L221 139.234L221.008 139.249L221.875 138.75ZM234.375 151.5L234.877 150.635L234.375 151.5ZM251.875 187C237.685 187 225.101 184.031 214.098 178.119L213.152 179.881C224.482 185.969 237.398 189 251.875 189V187ZM214.104 178.122C203.25 172.202 194.628 164.152 188.221 153.968L186.529 155.032C193.122 165.514 202 173.798 213.146 179.878L214.104 178.122ZM188.231 153.984C182 143.653 178.875 131.918 178.875 118.75H176.875C176.875 132.249 180.083 144.347 186.519 155.016L188.231 153.984ZM178.875 118.75C178.875 105.413 182.001 93.6812 188.228 83.5226L186.522 82.4774C180.082 92.9855 176.875 105.087 176.875 118.75H178.875ZM188.225 83.5263C194.631 73.1784 203.249 65.1344 214.094 59.3834L213.156 57.6165C202.001 63.5322 193.119 71.8216 186.525 82.4736L188.225 83.5263ZM214.098 59.3809C225.101 53.4688 237.685 50.5 251.875 50.5V48.5C237.398 48.5 224.482 51.5312 213.152 57.6191L214.098 59.3809ZM251.875 50.5C265.896 50.5 278.397 53.4679 289.402 59.3809L290.348 57.6191C279.02 51.5321 266.187 48.5 251.875 48.5V50.5ZM289.412 59.3863C300.425 65.1394 309.037 73.0998 315.272 83.2726L316.978 82.2274C310.546 71.7336 301.658 63.5273 290.338 57.6136L289.412 59.3863ZM315.272 83.2726C321.497 93.4292 324.625 105.244 324.625 118.75H326.625C326.625 104.923 323.419 92.7374 316.978 82.2274L315.272 83.2726ZM324.625 118.75C324.625 131.918 321.5 143.653 315.269 153.984L316.981 155.016C323.417 144.347 326.625 132.249 326.625 118.75H324.625ZM315.272 153.977C309.036 164.153 300.42 172.199 289.402 178.119L290.348 179.881C301.663 173.801 310.547 165.514 316.978 155.023L315.272 153.977ZM289.402 178.119C278.397 184.032 265.896 187 251.875 187V189C266.187 189 279.02 185.968 290.348 179.881L289.402 178.119ZM251.875 157C258.535 157 264.545 155.461 269.877 152.365L268.873 150.635C263.872 153.539 258.215 155 251.875 155V157ZM269.877 152.365C275.21 149.268 279.42 144.881 282.503 139.229L280.747 138.271C277.83 143.619 273.873 147.732 268.873 150.635L269.877 152.365ZM282.509 139.218C285.599 133.381 287.125 126.548 287.125 118.75H285.125C285.125 126.285 283.651 132.785 280.741 138.282L282.509 139.218ZM287.125 118.75C287.125 110.791 285.601 103.95 282.503 98.2711L280.747 99.2289C283.649 104.55 285.125 111.043 285.125 118.75H287.125ZM282.503 98.2711C279.42 92.6187 275.21 88.2316 269.877 85.1352L268.873 86.8648C273.873 89.7684 277.83 93.8813 280.747 99.2289L282.503 98.2711ZM269.877 85.1352C264.545 82.0389 258.535 80.5 251.875 80.5V82.5C258.215 82.5 263.872 83.9611 268.873 86.8648L269.877 85.1352ZM251.875 80.5C245.215 80.5 239.205 82.0389 233.873 85.1352L234.877 86.8648C239.878 83.9611 245.535 82.5 251.875 82.5V80.5ZM233.873 85.1352C228.545 88.2286 224.257 92.6091 221.008 98.251L222.742 99.249C225.827 93.8909 229.871 89.7713 234.877 86.8648L233.873 85.1352ZM220.997 98.2711C217.899 103.95 216.375 110.791 216.375 118.75H218.375C218.375 111.043 219.851 104.55 222.753 99.2289L220.997 98.2711ZM216.375 118.75C216.375 126.548 217.901 133.381 220.991 139.218L222.759 138.282C219.849 132.785 218.375 126.285 218.375 118.75H216.375ZM221.008 139.249C224.257 144.891 228.545 149.271 233.873 152.365L234.877 150.635C229.871 147.729 225.827 143.609 222.742 138.251L221.008 139.249ZM233.873 152.365C239.205 155.461 245.215 157 251.875 157V155C245.535 155 239.878 153.539 234.877 150.635L233.873 152.365ZM461.943 56L461.482 56.8872L461.493 56.8927L461.503 56.8979L461.943 56ZM481.943 75.5L481.066 75.98L481.07 75.9871L481.943 75.5ZM489.193 186V187H490.193V186H489.193ZM450.193 186H449.193V187H450.193V186ZM442.943 91L442.201 91.6703L442.207 91.6768L442.213 91.6832L442.943 91ZM406.193 87.25L406.653 88.1383L406.664 88.1323L406.193 87.25ZM394.693 99L393.81 98.5308L393.804 98.5417L393.799 98.5528L394.693 99ZM390.693 186V187H391.693V186H390.693ZM351.693 186H350.693V187H351.693V186ZM351.693 51.5V50.5H350.693V51.5H351.693ZM388.943 51.5H389.943V50.5H388.943V51.5ZM388.943 88.75L388.094 89.2783L389.943 92.25V88.75H388.943ZM381.943 77.5L381.062 77.0269L380.789 77.5368L381.094 78.0283L381.943 77.5ZM402.693 56.75L403.167 57.631L402.693 56.75ZM433.443 50.5C443.971 50.5 453.31 52.6375 461.482 56.8872L462.405 55.1128C453.911 50.6958 444.249 48.5 433.443 48.5V50.5ZM461.503 56.8979C469.806 60.9678 476.325 67.3156 481.066 75.98L482.821 75.02C477.895 66.0178 471.081 59.3655 462.384 55.1021L461.503 56.8979ZM481.07 75.9871C485.795 84.4592 488.193 95.4425 488.193 109H490.193C490.193 95.2241 487.759 83.8742 482.817 75.0129L481.07 75.9871ZM488.193 109V186H490.193V109H488.193ZM489.193 185H450.193V187H489.193V185ZM451.193 186V115H449.193V186H451.193ZM451.193 115C451.193 104.044 448.753 95.7462 443.674 90.3168L442.213 91.6832C446.801 96.5872 449.193 104.29 449.193 115H451.193ZM443.685 90.3297C438.784 84.9036 431.818 82.25 422.943 82.25V84.25C431.402 84.25 437.769 86.7631 442.201 91.6703L443.685 90.3297ZM422.943 82.25C416.627 82.25 410.88 83.6171 405.723 86.3676L406.664 88.1323C411.507 85.5496 416.926 84.25 422.943 84.25V82.25ZM405.734 86.3618C400.7 88.9653 396.728 93.0386 393.81 98.5308L395.576 99.4691C398.325 94.2948 402.02 90.5347 406.653 88.1382L405.734 86.3618ZM393.799 98.5528C391.041 104.069 389.693 111.069 389.693 119.5H391.693C391.693 111.264 393.013 104.598 395.588 99.4472L393.799 98.5528ZM389.693 119.5V186H391.693V119.5H389.693ZM390.693 185H351.693V187H390.693V185ZM352.693 186V51.5H350.693V186H352.693ZM351.693 52.5H388.943V50.5H351.693V52.5ZM387.943 51.5V88.75H389.943V51.5H387.943ZM389.792 88.2217L382.792 76.9717L381.094 78.0283L388.094 89.2783L389.792 88.2217ZM382.824 77.9731C387.565 69.1462 394.34 62.3714 403.167 57.631L402.22 55.869C393.047 60.7953 385.989 67.8538 381.062 77.0269L382.824 77.9731ZM403.167 57.631C412.004 52.8852 422.087 50.5 433.443 50.5V48.5C421.799 48.5 411.383 50.9482 402.22 55.869L403.167 57.631ZM536.545 184L536.284 184.965L536.293 184.968L536.302 184.97L536.545 184ZM511.545 173.5L510.638 173.079L510.279 173.852L510.985 174.329L511.545 173.5ZM524.545 145.5L525.073 144.651L524.114 144.054L523.638 145.079L524.545 145.5ZM546.295 155L546.008 155.958L546.019 155.961L546.03 155.964L546.295 155ZM590.295 155.25L589.803 154.379L589.794 154.384L589.786 154.389L590.295 155.25ZM591.545 139.25L591.038 140.112L591.067 140.129L591.098 140.144L591.545 139.25ZM580.045 135.5L579.875 136.485L580.045 135.5ZM564.045 133L563.899 133.989L563.904 133.99L564.045 133ZM546.795 129.75L546.546 130.718L546.559 130.722L546.572 130.725L546.795 129.75ZM530.795 123.25L531.301 122.387L530.795 123.25ZM519.045 111.75L518.182 112.256L518.189 112.267L518.195 112.277L519.045 111.75ZM522.045 70.5L521.252 69.8903L521.247 69.8968L521.242 69.9033L522.045 70.5ZM543.545 55.25L543.911 56.1807L543.918 56.1779L543.925 56.175L543.545 55.25ZM605.045 52.5L605.251 51.5214L605.045 52.5ZM628.795 61.25L629.701 61.6742L630.082 60.86L629.313 60.3945L628.795 61.25ZM615.795 89L615.287 89.8614L616.234 90.4199L616.701 89.4242L615.795 89ZM596.045 81.25L595.82 82.2244L595.834 82.2277L595.849 82.2306L596.045 81.25ZM558.045 82.5L557.541 81.6362L558.045 82.5ZM556.295 99L555.788 99.8619L555.799 99.8682L555.809 99.8741L556.295 99ZM583.795 105.75L583.649 106.739L583.665 106.742L583.681 106.744L583.795 105.75ZM601.295 109L601.544 108.031L601.295 109ZM617.045 115.5L616.526 116.355L616.544 116.366L616.562 116.376L617.045 115.5ZM628.795 126.75L627.945 127.277L627.949 127.284L627.954 127.291L628.795 126.75ZM625.795 167.5L626.58 168.12L626.588 168.11L625.795 167.5ZM604.045 182.5L603.685 181.567L603.679 181.569L604.045 182.5ZM569.795 187C558.373 187 547.371 185.676 536.787 183.03L536.302 184.97C547.052 187.658 558.217 189 569.795 189V187ZM536.805 183.035C526.367 180.218 518.148 176.755 512.105 172.671L510.985 174.329C517.275 178.579 525.722 182.115 536.284 184.965L536.805 183.035ZM512.452 173.921L525.452 145.921L523.638 145.079L510.638 173.079L512.452 173.921ZM524.017 146.349C530.272 150.237 537.606 153.437 546.008 155.958L546.582 154.042C538.317 151.563 531.151 148.429 525.073 144.651L524.017 146.349ZM546.03 155.964C554.61 158.319 563.032 159.5 571.295 159.5V157.5C563.224 157.5 554.98 156.347 546.56 154.036L546.03 155.964ZM571.295 159.5C580.315 159.5 586.888 158.425 590.804 156.111L589.786 154.389C586.369 156.408 580.274 157.5 571.295 157.5V159.5ZM590.787 156.121C594.878 153.808 597.045 150.504 597.045 146.25H595.045C595.045 149.663 593.378 152.358 589.803 154.379L590.787 156.121ZM597.045 146.25C597.045 144.503 596.629 142.934 595.761 141.584C594.895 140.238 593.619 139.169 591.992 138.356L591.098 140.144C592.471 140.831 593.444 141.679 594.079 142.666C594.711 143.649 595.045 144.831 595.045 146.25H597.045ZM592.052 138.388C589.077 136.638 585.114 135.359 580.215 134.515L579.875 136.485C584.642 137.307 588.346 138.529 591.038 140.112L592.052 138.388ZM580.215 134.515C575.37 133.679 570.027 132.844 564.186 132.01L563.904 133.99C569.729 134.822 575.053 135.654 579.875 136.485L580.215 134.515ZM564.19 132.011C558.551 131.181 552.827 130.103 547.018 128.775L546.572 130.725C552.43 132.064 558.206 133.152 563.899 133.989L564.19 132.011ZM547.044 128.782C541.294 127.303 536.048 125.17 531.301 122.387L530.289 124.113C535.209 126.996 540.629 129.197 546.546 130.718L547.044 128.782ZM531.301 122.387C526.61 119.637 522.81 115.92 519.895 111.223L518.195 112.277C521.28 117.247 525.313 121.196 530.289 124.113L531.301 122.387ZM519.908 111.244C517.191 106.611 515.795 100.552 515.795 93H513.795C513.795 100.782 515.232 107.223 518.182 112.256L519.908 111.244ZM515.795 93C515.795 84.7036 518.149 77.4153 522.847 71.0967L521.242 69.9033C516.274 76.5847 513.795 84.2964 513.795 93H515.795ZM522.838 71.1097C527.705 64.7824 534.708 59.7959 543.911 56.1807L543.179 54.3192C533.715 58.0375 526.385 63.2176 521.252 69.8903L522.838 71.1097ZM543.925 56.175C553.108 52.4032 564.139 50.5 577.045 50.5V48.5C563.951 48.5 552.648 50.4301 543.165 54.325L543.925 56.175ZM577.045 50.5C586.138 50.5 595.403 51.492 604.839 53.4785L605.251 51.5214C595.687 49.508 586.285 48.5 577.045 48.5V50.5ZM604.839 53.4785C614.261 55.4622 622.065 58.3454 628.277 62.1055L629.313 60.3945C622.858 56.4879 614.829 53.5378 605.251 51.5214L604.839 53.4785ZM627.889 60.8258L614.889 88.5758L616.701 89.4242L629.701 61.6742L627.889 60.8258ZM616.303 88.1386C609.717 84.2546 603.029 81.627 596.241 80.2694L595.849 82.2306C602.394 83.5396 608.873 86.0787 615.287 89.8614L616.303 88.1386ZM596.27 80.2756C589.702 78.76 583.293 78 577.045 78V80C583.13 80 589.388 80.74 595.82 82.2244L596.27 80.2756ZM577.045 78C568.331 78 561.777 79.1654 557.541 81.6362L558.549 83.3638C562.313 81.1679 568.425 80 577.045 80V78ZM557.541 81.6362C553.327 84.0942 551.045 87.3812 551.045 91.5H553.045C553.045 88.2854 554.762 85.5725 558.549 83.3638L557.541 81.6362ZM551.045 91.5C551.045 95.1815 552.644 98.0125 555.788 99.8619L556.802 98.1381C554.279 96.6542 553.045 94.4851 553.045 91.5H551.045ZM555.809 99.8741C558.927 101.606 562.949 102.967 567.842 103.979L568.248 102.021C563.474 101.033 559.663 99.727 556.781 98.1258L555.809 99.8741ZM567.842 103.979C572.697 104.984 577.967 105.904 583.649 106.739L583.94 104.761C578.29 103.93 573.059 103.016 568.248 102.021L567.842 103.979ZM583.681 106.744C589.468 107.405 595.256 108.48 601.046 109.968L601.544 108.031C595.667 106.52 589.789 105.428 583.908 104.756L583.681 106.744ZM601.046 109.968C606.794 111.447 611.951 113.577 616.526 116.355L617.564 114.645C612.805 111.756 607.463 109.553 601.544 108.031L601.046 109.968ZM616.562 116.376C621.24 118.957 625.033 122.585 627.945 127.277L629.645 126.223C626.557 121.248 622.516 117.376 617.528 114.624L616.562 116.376ZM627.954 127.291C630.818 131.746 632.295 137.704 632.295 145.25H634.295C634.295 137.462 632.772 131.088 629.636 126.209L627.954 127.291ZM632.295 145.25C632.295 153.367 629.865 160.568 625.002 166.89L626.588 168.11C631.724 161.432 634.295 153.8 634.295 145.25H632.295ZM625.01 166.88C620.147 173.041 613.061 177.948 603.685 181.567L604.405 183.433C614.029 179.718 621.443 174.626 626.58 168.12L625.01 166.88ZM603.679 181.569C594.495 185.177 583.211 187 569.795 187V189C583.379 189 594.928 187.156 604.411 183.431L603.679 181.569ZM684.107 181.5L683.66 182.394L683.667 182.398L684.107 181.5ZM663.857 161.75L662.976 162.223L662.98 162.23L663.857 161.75ZM656.607 51.5V50.5H655.607V51.5H656.607ZM695.607 51.5H696.607V50.5H695.607V51.5ZM702.607 146.5L701.855 147.159L701.866 147.171L701.877 147.183L702.607 146.5ZM738.857 150.5L739.33 151.381L739.342 151.375L739.354 151.368L738.857 150.5ZM749.857 138.5L750.752 138.947L750.757 138.936L749.857 138.5ZM753.857 51.5V50.5H752.857V51.5H753.857ZM792.857 51.5H793.857V50.5H792.857V51.5ZM792.857 186V187H793.857V186H792.857ZM755.857 186H754.857V187H755.857V186ZM755.857 149L756.704 148.468L754.857 145.527V149H755.857ZM762.607 159.75L763.508 160.184L763.748 159.686L763.454 159.218L762.607 159.75ZM742.607 181L743.082 181.88L743.087 181.877L742.607 181ZM714.107 187C703.073 187 693.227 184.86 684.548 180.602L683.667 182.398C692.655 186.807 702.809 189 714.107 189V187ZM684.555 180.606C676.078 176.367 669.474 169.932 664.735 161.27L662.98 162.23C667.907 171.235 674.804 177.966 683.66 182.394L684.555 180.606ZM664.738 161.277C660.006 152.465 657.607 141.224 657.607 127.5H655.607C655.607 141.443 658.042 153.035 662.976 162.223L664.738 161.277ZM657.607 127.5V51.5H655.607V127.5H657.607ZM656.607 52.5H695.607V50.5H656.607V52.5ZM694.607 51.5V121.75H696.607V51.5H694.607ZM694.607 121.75C694.607 133.026 696.959 141.563 701.855 147.159L703.36 145.841C698.923 140.77 696.607 132.807 696.607 121.75H694.607ZM701.877 147.183C706.941 152.596 713.981 155.25 722.857 155.25V153.25C714.401 153.25 707.941 150.737 703.338 145.817L701.877 147.183ZM722.857 155.25C729 155.25 734.499 153.969 739.33 151.381L738.385 149.619C733.882 152.031 728.715 153.25 722.857 153.25V155.25ZM739.354 151.368C744.21 148.593 748.007 144.437 750.752 138.947L748.963 138.053C746.375 143.23 742.838 147.074 738.361 149.632L739.354 151.368ZM750.757 138.936C753.508 133.263 754.857 126.269 754.857 118H752.857C752.857 126.064 751.54 132.737 748.958 138.064L750.757 138.936ZM754.857 118V51.5H752.857V118H754.857ZM753.857 52.5H792.857V50.5H753.857V52.5ZM791.857 51.5V186H793.857V51.5H791.857ZM792.857 185H755.857V187H792.857V185ZM756.857 186V149H754.857V186H756.857ZM755.011 149.532L761.761 160.282L763.454 159.218L756.704 148.468L755.011 149.532ZM761.707 159.316C757.294 168.467 750.772 175.393 742.127 180.123L743.087 181.877C752.109 176.941 758.92 169.7 763.508 160.184L761.707 159.316ZM742.133 180.12C733.62 184.704 724.284 187 714.107 187V189C724.598 189 734.262 186.63 743.082 181.88L742.133 180.12ZM828.988 186H827.988V187H828.988V186ZM828.988 0.499989V-0.500011H827.988V0.499989H828.988ZM867.988 0.499989H868.988V-0.500011H867.988V0.499989ZM867.988 186V187H868.988V186H867.988ZM829.988 186V0.499989H827.988V186H829.988ZM828.988 1.49999H867.988V-0.500011H828.988V1.49999ZM866.988 0.499989V186H868.988V0.499989H866.988ZM867.988 185H828.988V187H867.988V185ZM932.193 176L931.514 176.734L931.522 176.741L932.193 176ZM918.943 21.75V20.75H917.943V21.75H918.943ZM957.943 21.75H958.943V20.75H957.943V21.75ZM962.443 152.5L961.717 153.188L961.727 153.198L961.736 153.207L962.443 152.5ZM990.443 152L991.378 151.643L990.898 150.388L989.834 151.207L990.443 152ZM1000.94 179.5L1001.52 180.316L1002.15 179.868L1001.88 179.143L1000.94 179.5ZM986.443 186L986.679 186.972L986.689 186.969L986.699 186.967L986.443 186ZM898.193 84.5H897.193V85.5H898.193V84.5ZM898.193 54.5V53.5H897.193V54.5H898.193ZM991.443 54.5H992.443V53.5H991.443V54.5ZM991.443 84.5V85.5H992.443V84.5H991.443ZM969.193 187C953.525 187 941.461 183.044 932.865 175.259L931.522 176.741C940.593 184.956 953.195 189 969.193 189V187ZM932.872 175.266C924.305 167.345 919.943 155.568 919.943 139.75H917.943C917.943 155.932 922.415 168.322 931.515 176.734L932.872 175.266ZM919.943 139.75V21.75H917.943V139.75H919.943ZM918.943 22.75H957.943V20.75H918.943V22.75ZM956.943 21.75V139.25H958.943V21.75H956.943ZM956.943 139.25C956.943 145.093 958.494 149.785 961.717 153.188L963.169 151.812C960.393 148.882 958.943 144.74 958.943 139.25H956.943ZM961.736 153.207C964.963 156.434 969.323 158 974.693 158V156C969.73 156 965.923 154.566 963.151 151.793L961.736 153.207ZM974.693 158C981.051 158 986.523 156.277 991.053 152.793L989.834 151.207C985.697 154.389 980.669 156 974.693 156V158ZM989.509 152.357L1000.01 179.857L1001.88 179.143L991.378 151.643L989.509 152.357ZM1000.37 178.684C996.48 181.436 991.761 183.558 986.188 185.033L986.699 186.967C992.459 185.442 997.407 183.23 1001.52 180.316L1000.37 178.684ZM986.208 185.028C980.789 186.342 975.119 187 969.193 187V189C975.268 189 981.097 188.325 986.679 186.972L986.208 185.028ZM899.193 84.5V54.5H897.193V84.5H899.193ZM898.193 55.5H991.443V53.5H898.193V55.5ZM990.443 54.5V84.5H992.443V54.5H990.443ZM991.443 83.5H898.193V85.5H991.443V83.5Z" fill="#9F9F9F" mask="url(#path-1-outside-1_112_239)"/>
</svg>
