<svg width="1085" height="237" viewBox="0 0 1085 237" fill="none" xmlns="http://www.w3.org/2000/svg">
<mask id="path-1-outside-1_72_858" maskUnits="userSpaceOnUse" x="-1" y="-1" width="1087" height="239" fill="black">
<rect fill="white" x="-1" y="-1" width="1087" height="239"/>
<path d="M0.3584 186V11H40.8584V186H0.3584ZM161.39 49.5C172.056 49.5 181.556 51.6667 189.89 56C198.39 60.1667 205.056 66.6667 209.89 75.5C214.723 84.1667 217.14 95.3333 217.14 109V186H178.14V115C178.14 104.167 175.723 96.1667 170.89 91C166.223 85.8333 159.556 83.25 150.89 83.25C144.723 83.25 139.14 84.5833 134.14 87.25C129.306 89.75 125.473 93.6667 122.64 99C119.973 104.333 118.64 111.167 118.64 119.5V186H79.6396V51.5H116.89V88.75L109.89 77.5C114.723 68.5 121.64 61.5833 130.64 56.75C139.64 51.9167 149.89 49.5 161.39 49.5ZM311.218 188C298.551 188 287.134 185.167 276.968 179.5C266.801 173.667 258.718 165.583 252.718 155.25C246.884 144.917 243.968 132.75 243.968 118.75C243.968 104.583 246.884 92.3333 252.718 82C258.718 71.6667 266.801 63.6667 276.968 58C287.134 52.3333 298.551 49.5 311.218 49.5C322.551 49.5 332.468 52 340.968 57C349.468 62 356.051 69.5833 360.718 79.75C365.384 89.9167 367.718 102.917 367.718 118.75C367.718 134.417 365.468 147.417 360.968 157.75C356.468 167.917 349.968 175.5 341.468 180.5C333.134 185.5 323.051 188 311.218 188ZM317.968 156C324.301 156 330.051 154.5 335.218 151.5C340.384 148.5 344.468 144.25 347.468 138.75C350.634 133.083 352.218 126.417 352.218 118.75C352.218 110.917 350.634 104.25 347.468 98.75C344.468 93.25 340.384 89 335.218 86C330.051 83 324.301 81.5 317.968 81.5C311.468 81.5 305.634 83 300.468 86C295.301 89 291.134 93.25 287.968 98.75C284.968 104.25 283.468 110.917 283.468 118.75C283.468 126.417 284.968 133.083 287.968 138.75C291.134 144.25 295.301 148.5 300.468 151.5C305.634 154.5 311.468 156 317.968 156ZM353.218 186V158.5L353.968 118.5L351.468 78.75V0.499989H390.468V186H353.218ZM483.313 188C472.147 188 462.147 185.833 453.313 181.5C444.647 177.167 437.897 170.583 433.063 161.75C428.23 152.75 425.813 141.333 425.813 127.5V51.5H464.813V121.75C464.813 132.917 467.147 141.167 471.813 146.5C476.647 151.667 483.397 154.25 492.063 154.25C498.063 154.25 503.397 153 508.063 150.5C512.73 147.833 516.397 143.833 519.063 138.5C521.73 133 523.063 126.167 523.063 118V51.5H562.063V186H525.063V149L531.813 159.75C527.313 169.083 520.647 176.167 511.813 181C503.147 185.667 493.647 188 483.313 188ZM643.444 188C631.944 188 620.861 186.667 610.194 184C599.694 181.167 591.361 177.667 585.194 173.5L598.194 145.5C604.361 149.333 611.611 152.5 619.944 155C628.444 157.333 636.778 158.5 644.944 158.5C653.944 158.5 660.278 157.417 663.944 155.25C667.778 153.083 669.694 150.083 669.694 146.25C669.694 143.083 668.194 140.75 665.194 139.25C662.361 137.583 658.528 136.333 653.694 135.5C648.861 134.667 643.528 133.833 637.694 133C632.028 132.167 626.278 131.083 620.444 129.75C614.611 128.25 609.278 126.083 604.444 123.25C599.611 120.417 595.694 116.583 592.694 111.75C589.861 106.917 588.444 100.667 588.444 93C588.444 84.5 590.861 77 595.694 70.5C600.694 64 607.861 58.9167 617.194 55.25C626.528 51.4167 637.694 49.5 650.694 49.5C659.861 49.5 669.194 50.5 678.694 52.5C688.194 54.5 696.111 57.4167 702.444 61.25L689.444 89C682.944 85.1667 676.361 82.5833 669.694 81.25C663.194 79.75 656.861 79 650.694 79C642.028 79 635.694 80.1667 631.694 82.5C627.694 84.8333 625.694 87.8333 625.694 91.5C625.694 94.8333 627.111 97.3333 629.944 99C632.944 100.667 636.861 102 641.694 103C646.528 104 651.778 104.917 657.444 105.75C663.278 106.417 669.111 107.5 674.944 109C680.778 110.5 686.028 112.667 690.694 115.5C695.528 118.167 699.444 121.917 702.444 126.75C705.444 131.417 706.944 137.583 706.944 145.25C706.944 153.583 704.444 161 699.444 167.5C694.444 173.833 687.194 178.833 677.694 182.5C668.361 186.167 656.944 188 643.444 188ZM786.007 188C770.174 188 757.84 184 749.007 176C740.174 167.833 735.757 155.75 735.757 139.75V21.75H774.757V139.25C774.757 144.917 776.257 149.333 779.257 152.5C782.257 155.5 786.34 157 791.507 157C797.674 157 802.924 155.333 807.257 152L817.757 179.5C813.757 182.333 808.924 184.5 803.257 186C797.757 187.333 792.007 188 786.007 188ZM715.007 84.5V54.5H808.257V84.5H715.007ZM839.649 186V51.5H876.899V89.5L871.649 78.5C875.649 69 882.066 61.8333 890.899 57C899.733 52 910.483 49.5 923.149 49.5V85.5C921.483 85.3333 919.983 85.25 918.649 85.25C917.316 85.0833 915.899 85 914.399 85C903.733 85 895.066 88.0833 888.399 94.25C881.899 100.25 878.649 109.667 878.649 122.5V186H839.649ZM967.978 236.5C960.978 236.5 954.061 235.417 947.228 233.25C940.394 231.083 934.811 228.083 930.478 224.25L944.728 196.5C947.728 199.167 951.144 201.25 954.978 202.75C958.978 204.25 962.894 205 966.728 205C972.228 205 976.561 203.667 979.728 201C983.061 198.5 986.061 194.25 988.728 188.25L995.728 171.75L998.728 167.5L1046.98 51.5H1084.48L1023.73 194.25C1019.39 205.083 1014.39 213.583 1008.73 219.75C1003.23 225.917 997.061 230.25 990.228 232.75C983.561 235.25 976.144 236.5 967.978 236.5ZM990.978 191.25L930.978 51.5H971.228L1017.73 164L990.978 191.25Z"/>
</mask>
<path d="M0.358398 186H-0.641602V187H0.358398V186ZM0.358398 11V9.99999H-0.641602V11H0.358398ZM40.8584 11H41.8584V9.99999H40.8584V11ZM40.8584 186V187H41.8584V186H40.8584ZM1.3584 186V11H-0.641602V186H1.3584ZM0.358398 12H40.8584V9.99999H0.358398V12ZM39.8584 11V186H41.8584V11H39.8584ZM40.8584 185H0.358398V187H40.8584V185ZM189.89 56L189.428 56.8872L189.439 56.8927L189.449 56.8979L189.89 56ZM209.89 75.5L209.012 75.98L209.016 75.9871L209.89 75.5ZM217.14 186V187H218.14V186H217.14ZM178.14 186H177.14V187H178.14V186ZM170.89 91L170.148 91.6703L170.153 91.6768L170.159 91.6832L170.89 91ZM134.14 87.25L134.599 88.1383L134.61 88.1323L134.14 87.25ZM122.64 99L121.757 98.5308L121.751 98.5417L121.745 98.5528L122.64 99ZM118.64 186V187H119.64V186H118.64ZM79.6396 186H78.6396V187H79.6396V186ZM79.6396 51.5V50.5H78.6396V51.5H79.6396ZM116.89 51.5H117.89V50.5H116.89V51.5ZM116.89 88.75L116.041 89.2783L117.89 92.25V88.75H116.89ZM109.89 77.5L109.009 77.0269L108.735 77.5368L109.041 78.0283L109.89 77.5ZM130.64 56.75L131.113 57.631L130.64 56.75ZM161.39 50.5C171.918 50.5 181.256 52.6375 189.428 56.8872L190.351 55.1128C181.857 50.6958 172.195 48.5 161.39 48.5V50.5ZM189.449 56.8979C197.752 60.9678 204.271 67.3156 209.012 75.98L210.767 75.02C205.841 66.0178 199.027 59.3655 190.33 55.1021L189.449 56.8979ZM209.016 75.9871C213.741 84.4592 216.14 95.4425 216.14 109H218.14C218.14 95.2241 215.705 83.8742 210.763 75.0129L209.016 75.9871ZM216.14 109V186H218.14V109H216.14ZM217.14 185H178.14V187H217.14V185ZM179.14 186V115H177.14V186H179.14ZM179.14 115C179.14 104.044 176.699 95.7462 171.62 90.3168L170.159 91.6832C174.747 96.5872 177.14 104.29 177.14 115H179.14ZM171.632 90.3297C166.731 84.9036 159.765 82.25 150.89 82.25V84.25C159.348 84.25 165.715 86.7631 170.148 91.6703L171.632 90.3297ZM150.89 82.25C144.574 82.25 138.826 83.6171 133.669 86.3676L134.61 88.1323C139.453 85.5496 144.872 84.25 150.89 84.25V82.25ZM133.68 86.3618C128.647 88.9653 124.674 93.0386 121.757 98.5308L123.523 99.4691C126.272 94.2948 129.966 90.5347 134.599 88.1382L133.68 86.3618ZM121.745 98.5528C118.987 104.069 117.64 111.069 117.64 119.5H119.64C119.64 111.264 120.959 104.598 123.534 99.4472L121.745 98.5528ZM117.64 119.5V186H119.64V119.5H117.64ZM118.64 185H79.6396V187H118.64V185ZM80.6396 186V51.5H78.6396V186H80.6396ZM79.6396 52.5H116.89V50.5H79.6396V52.5ZM115.89 51.5V88.75H117.89V51.5H115.89ZM117.739 88.2217L110.739 76.9717L109.041 78.0283L116.041 89.2783L117.739 88.2217ZM110.771 77.9731C115.511 69.1462 122.286 62.3714 131.113 57.631L130.167 55.869C120.993 60.7953 113.935 67.8538 109.009 77.0269L110.771 77.9731ZM131.113 57.631C139.95 52.8852 150.034 50.5 161.39 50.5V48.5C149.746 48.5 139.329 50.9482 130.167 55.869L131.113 57.631ZM276.968 179.5L276.47 180.367L276.481 180.373L276.968 179.5ZM252.718 155.25L251.847 155.742L251.853 155.752L252.718 155.25ZM252.718 82L251.853 81.4978L251.847 81.5084L252.718 82ZM276.968 58L276.481 57.1265L276.968 58ZM340.968 57L341.475 56.1381L340.968 57ZM360.718 79.75L361.627 79.3328L360.718 79.75ZM360.968 157.75L361.882 158.155L361.885 158.149L360.968 157.75ZM341.468 180.5L340.961 179.638L340.953 179.643L341.468 180.5ZM335.218 151.5L334.716 150.635L335.218 151.5ZM347.468 138.75L346.595 138.262L346.59 138.271L347.468 138.75ZM347.468 98.75L346.59 99.2289L346.595 99.239L346.601 99.249L347.468 98.75ZM335.218 86L334.716 86.8648L335.218 86ZM300.468 86L300.97 86.8648L300.468 86ZM287.968 98.75L287.101 98.251L287.095 98.261L287.09 98.2711L287.968 98.75ZM287.968 138.75L287.084 139.218L287.092 139.234L287.101 139.249L287.968 138.75ZM300.468 151.5L300.97 150.635L300.468 151.5ZM353.218 186H352.218V187H353.218V186ZM353.218 158.5L352.218 158.481L352.218 158.491V158.5H353.218ZM353.968 118.5L354.968 118.519L354.968 118.478L354.966 118.437L353.968 118.5ZM351.468 78.75H350.468V78.7814L350.47 78.8128L351.468 78.75ZM351.468 0.499989V-0.500011H350.468V0.499989H351.468ZM390.468 0.499989H391.468V-0.500011H390.468V0.499989ZM390.468 186V187H391.468V186H390.468ZM311.218 187C298.706 187 287.46 184.203 277.455 178.627L276.481 180.373C286.809 186.13 298.396 189 311.218 189V187ZM277.465 178.633C267.454 172.888 259.496 164.932 253.583 154.748L251.853 155.752C257.939 166.234 266.148 174.445 276.47 180.367L277.465 178.633ZM253.589 154.758C247.854 144.6 244.968 132.609 244.968 118.75H242.968C242.968 132.891 245.915 145.233 251.847 155.742L253.589 154.758ZM244.968 118.75C244.968 104.722 247.855 92.6483 253.589 82.4916L251.847 81.5084C245.914 92.0184 242.968 104.444 242.968 118.75H244.968ZM253.583 82.5021C259.495 72.32 267.449 64.4502 277.455 58.8735L276.481 57.1265C266.153 62.8831 257.941 71.0134 251.853 81.4979L253.583 82.5021ZM277.455 58.8735C287.46 53.297 298.706 50.5 311.218 50.5V48.5C298.396 48.5 286.809 51.3697 276.481 57.1265L277.455 58.8735ZM311.218 50.5C322.4 50.5 332.136 52.9651 340.461 57.8619L341.475 56.1381C332.799 51.0349 322.702 48.5 311.218 48.5V50.5ZM340.461 57.8619C348.761 62.7447 355.216 70.1604 359.809 80.1672L361.627 79.3328C356.887 69.0062 350.174 61.2553 341.475 56.1381L340.461 57.8619ZM359.809 80.1672C364.396 90.1604 366.718 103.005 366.718 118.75H368.718C368.718 102.828 366.373 89.6729 361.627 79.3328L359.809 80.1672ZM366.718 118.75C366.718 134.329 364.479 147.182 360.051 157.351L361.885 158.149C366.456 147.651 368.718 134.504 368.718 118.75H366.718ZM360.053 157.345C355.627 167.346 349.258 174.757 340.961 179.638L341.975 181.362C350.678 176.243 357.309 168.487 361.882 158.155L360.053 157.345ZM340.953 179.643C332.806 184.531 322.909 187 311.218 187V189C323.193 189 333.463 186.469 341.982 181.357L340.953 179.643ZM317.968 157C324.466 157 330.391 155.459 335.72 152.365L334.716 150.635C329.711 153.541 324.136 155 317.968 155V157ZM335.72 152.365C341.053 149.268 345.263 144.881 348.346 139.229L346.59 138.271C343.673 143.619 339.716 147.732 334.716 150.635L335.72 152.365ZM348.341 139.238C351.605 133.397 353.218 126.556 353.218 118.75H351.218C351.218 126.277 349.664 132.77 346.595 138.262L348.341 139.238ZM353.218 118.75C353.218 110.782 351.607 103.935 348.334 98.251L346.601 99.249C349.662 104.565 351.218 111.051 351.218 118.75H353.218ZM348.346 98.2711C345.263 92.6187 341.053 88.2316 335.72 85.1352L334.716 86.8648C339.716 89.7684 343.673 93.8813 346.59 99.2289L348.346 98.2711ZM335.72 85.1352C330.391 82.0413 324.466 80.5 317.968 80.5V82.5C324.136 82.5 329.711 83.9587 334.716 86.8648L335.72 85.1352ZM317.968 80.5C311.307 80.5 305.298 82.0389 299.966 85.1352L300.97 86.8648C305.971 83.9611 311.628 82.5 317.968 82.5V80.5ZM299.966 85.1352C294.638 88.2286 290.35 92.6091 287.101 98.251L288.834 99.249C291.919 93.8909 295.964 89.7713 300.97 86.8648L299.966 85.1352ZM287.09 98.2711C283.992 103.95 282.468 110.791 282.468 118.75H284.468C284.468 111.043 285.943 104.55 288.846 99.2289L287.09 98.2711ZM282.468 118.75C282.468 126.548 283.994 133.381 287.084 139.218L288.852 138.282C285.941 132.785 284.468 126.285 284.468 118.75H282.468ZM287.101 139.249C290.35 144.891 294.638 149.271 299.966 152.365L300.97 150.635C295.964 147.729 291.919 143.609 288.834 138.251L287.101 139.249ZM299.966 152.365C305.298 155.461 311.307 157 317.968 157V155C311.628 155 305.971 153.539 300.97 150.635L299.966 152.365ZM354.218 186V158.5H352.218V186H354.218ZM354.218 158.519L354.968 118.519L352.968 118.481L352.218 158.481L354.218 158.519ZM354.966 118.437L352.466 78.6872L350.47 78.8128L352.97 118.563L354.966 118.437ZM352.468 78.75V0.499989H350.468V78.75H352.468ZM351.468 1.49999H390.468V-0.500011H351.468V1.49999ZM389.468 0.499989V186H391.468V0.499989H389.468ZM390.468 185H353.218V187H390.468V185ZM453.313 181.5L452.866 182.394L452.873 182.398L453.313 181.5ZM433.063 161.75L432.182 162.223L432.186 162.23L433.063 161.75ZM425.813 51.5V50.5H424.813V51.5H425.813ZM464.813 51.5H465.813V50.5H464.813V51.5ZM471.813 146.5L471.061 147.159L471.072 147.171L471.083 147.183L471.813 146.5ZM508.063 150.5L508.536 151.381L508.548 151.375L508.56 151.368L508.063 150.5ZM519.063 138.5L519.958 138.947L519.963 138.936L519.063 138.5ZM523.063 51.5V50.5H522.063V51.5H523.063ZM562.063 51.5H563.063V50.5H562.063V51.5ZM562.063 186V187H563.063V186H562.063ZM525.063 186H524.063V187H525.063V186ZM525.063 149L525.91 148.468L524.063 145.527V149H525.063ZM531.813 159.75L532.714 160.184L532.954 159.686L532.66 159.218L531.813 159.75ZM511.813 181L512.288 181.88L512.294 181.877L511.813 181ZM483.313 187C472.279 187 462.433 184.86 453.754 180.602L452.873 182.398C461.861 186.807 472.015 189 483.313 189V187ZM453.761 180.606C445.284 176.367 438.68 169.932 433.941 161.27L432.186 162.23C437.113 171.235 444.01 177.966 452.866 182.394L453.761 180.606ZM433.944 161.277C429.212 152.465 426.813 141.224 426.813 127.5H424.813C424.813 141.443 427.248 153.035 432.182 162.223L433.944 161.277ZM426.813 127.5V51.5H424.813V127.5H426.813ZM425.813 52.5H464.813V50.5H425.813V52.5ZM463.813 51.5V121.75H465.813V51.5H463.813ZM463.813 121.75C463.813 133.026 466.165 141.563 471.061 147.159L472.566 145.841C468.129 140.77 465.813 132.807 465.813 121.75H463.813ZM471.083 147.183C476.147 152.596 483.187 155.25 492.063 155.25V153.25C483.607 153.25 477.147 150.737 472.544 145.817L471.083 147.183ZM492.063 155.25C498.206 155.25 503.705 153.969 508.536 151.381L507.591 149.619C503.088 152.031 497.921 153.25 492.063 153.25V155.25ZM508.56 151.368C513.416 148.593 517.213 144.437 519.958 138.947L518.169 138.053C515.581 143.23 512.044 147.074 507.567 149.632L508.56 151.368ZM519.963 138.936C522.714 133.263 524.063 126.269 524.063 118H522.063C522.063 126.064 520.746 132.737 518.164 138.064L519.963 138.936ZM524.063 118V51.5H522.063V118H524.063ZM523.063 52.5H562.063V50.5H523.063V52.5ZM561.063 51.5V186H563.063V51.5H561.063ZM562.063 185H525.063V187H562.063V185ZM526.063 186V149H524.063V186H526.063ZM524.217 149.532L530.967 160.282L532.66 159.218L525.91 148.468L524.217 149.532ZM530.913 159.316C526.5 168.467 519.978 175.393 511.333 180.123L512.294 181.877C521.315 176.941 528.126 169.7 532.714 160.184L530.913 159.316ZM511.339 180.12C502.826 184.704 493.49 187 483.313 187V189C493.804 189 503.468 186.63 512.288 181.88L511.339 180.12ZM610.194 184L609.934 184.965L609.943 184.968L609.952 184.97L610.194 184ZM585.194 173.5L584.287 173.079L583.929 173.852L584.634 174.329L585.194 173.5ZM598.194 145.5L598.722 144.651L597.763 144.054L597.287 145.079L598.194 145.5ZM619.944 155L619.657 155.958L619.668 155.961L619.68 155.964L619.944 155ZM663.944 155.25L663.452 154.379L663.444 154.384L663.436 154.389L663.944 155.25ZM665.194 139.25L664.687 140.112L664.717 140.129L664.747 140.144L665.194 139.25ZM653.694 135.5L653.524 136.485L653.694 135.5ZM637.694 133L637.549 133.989L637.553 133.99L637.694 133ZM620.444 129.75L620.195 130.718L620.208 130.722L620.221 130.725L620.444 129.75ZM604.444 123.25L604.95 122.387L604.444 123.25ZM592.694 111.75L591.832 112.256L591.838 112.267L591.845 112.277L592.694 111.75ZM595.694 70.5L594.902 69.8903L594.897 69.8968L594.892 69.9033L595.694 70.5ZM617.194 55.25L617.56 56.1807L617.567 56.1779L617.574 56.175L617.194 55.25ZM678.694 52.5L678.9 51.5214L678.694 52.5ZM702.444 61.25L703.35 61.6742L703.731 60.86L702.962 60.3945L702.444 61.25ZM689.444 89L688.936 89.8614L689.883 90.4199L690.35 89.4242L689.444 89ZM669.694 81.25L669.469 82.2244L669.484 82.2277L669.498 82.2306L669.694 81.25ZM631.694 82.5L631.19 81.6362L631.694 82.5ZM629.944 99L629.437 99.8619L629.448 99.8682L629.459 99.8741L629.944 99ZM657.444 105.75L657.299 106.739L657.315 106.742L657.331 106.744L657.444 105.75ZM674.944 109L675.193 108.031L674.944 109ZM690.694 115.5L690.175 116.355L690.193 116.366L690.211 116.376L690.694 115.5ZM702.444 126.75L701.595 127.277L701.599 127.284L701.603 127.291L702.444 126.75ZM699.444 167.5L700.229 168.12L700.237 168.11L699.444 167.5ZM677.694 182.5L677.334 181.567L677.329 181.569L677.694 182.5ZM643.444 187C632.022 187 621.021 185.676 610.437 183.03L609.952 184.97C620.701 187.658 631.866 189 643.444 189V187ZM610.455 183.035C600.017 180.218 591.798 176.755 585.754 172.671L584.634 174.329C590.924 178.579 599.372 182.115 609.934 184.965L610.455 183.035ZM586.101 173.921L599.101 145.921L597.287 145.079L584.287 173.079L586.101 173.921ZM597.666 146.349C603.921 150.237 611.255 153.437 619.657 155.958L620.232 154.042C611.967 151.563 604.801 148.429 598.722 144.651L597.666 146.349ZM619.68 155.964C628.259 158.319 636.681 159.5 644.944 159.5V157.5C636.874 157.5 628.63 156.347 620.209 154.036L619.68 155.964ZM644.944 159.5C653.965 159.5 660.537 158.425 664.453 156.111L663.436 154.389C660.018 156.408 653.924 157.5 644.944 157.5V159.5ZM664.436 156.121C668.528 153.808 670.694 150.504 670.694 146.25H668.694C668.694 149.663 667.028 152.358 663.452 154.379L664.436 156.121ZM670.694 146.25C670.694 144.503 670.278 142.934 669.411 141.584C668.545 140.238 667.269 139.169 665.642 138.356L664.747 140.144C666.12 140.831 667.094 141.679 667.728 142.666C668.36 143.649 668.694 144.831 668.694 146.25H670.694ZM665.701 138.388C662.726 136.638 658.764 135.359 653.864 134.515L653.524 136.485C658.292 137.307 661.996 138.529 664.687 140.112L665.701 138.388ZM653.864 134.515C649.02 133.679 643.677 132.844 637.836 132.01L637.553 133.99C643.379 134.822 648.702 135.654 653.524 136.485L653.864 134.515ZM637.84 132.011C632.2 131.181 626.476 130.103 620.667 128.775L620.221 130.725C626.079 132.064 631.855 133.152 637.549 133.989L637.84 132.011ZM620.693 128.782C614.943 127.303 609.697 125.17 604.95 122.387L603.939 124.113C608.858 126.996 614.279 129.197 620.195 130.718L620.693 128.782ZM604.95 122.387C600.259 119.637 596.46 115.92 593.544 111.223L591.845 112.277C594.929 117.247 598.963 121.196 603.939 124.113L604.95 122.387ZM593.557 111.244C590.841 106.611 589.444 100.552 589.444 93H587.444C587.444 100.782 588.881 107.223 591.832 112.256L593.557 111.244ZM589.444 93C589.444 84.7036 591.798 77.4153 596.497 71.0967L594.892 69.9033C589.924 76.5847 587.444 84.2964 587.444 93H589.444ZM596.487 71.1097C601.354 64.7824 608.358 59.7959 617.56 56.1807L616.829 54.3192C607.364 58.0375 600.035 63.2176 594.902 69.8903L596.487 71.1097ZM617.574 56.175C626.758 52.4032 637.789 50.5 650.694 50.5V48.5C637.6 48.5 626.298 50.4301 616.814 54.325L617.574 56.175ZM650.694 50.5C659.788 50.5 669.052 51.492 678.488 53.4785L678.9 51.5214C669.337 49.508 659.934 48.5 650.694 48.5V50.5ZM678.488 53.4785C687.911 55.4622 695.714 58.3454 701.927 62.1055L702.962 60.3945C696.508 56.4879 688.478 53.5378 678.9 51.5214L678.488 53.4785ZM701.539 60.8258L688.539 88.5758L690.35 89.4242L703.35 61.6742L701.539 60.8258ZM689.952 88.1386C683.366 84.2546 676.678 81.627 669.89 80.2694L669.498 82.2306C676.044 83.5396 682.522 86.0787 688.936 89.8614L689.952 88.1386ZM669.919 80.2756C663.351 78.76 656.943 78 650.694 78V80C656.779 80 663.037 80.74 669.469 82.2244L669.919 80.2756ZM650.694 78C641.981 78 635.426 79.1654 631.19 81.6362L632.198 83.3638C635.962 81.1679 642.075 80 650.694 80V78ZM631.19 81.6362C626.977 84.0942 624.694 87.3812 624.694 91.5H626.694C626.694 88.2854 628.412 85.5725 632.198 83.3638L631.19 81.6362ZM624.694 91.5C624.694 95.1815 626.293 98.0125 629.437 99.8619L630.451 98.1381C627.929 96.6542 626.694 94.4851 626.694 91.5H624.694ZM629.459 99.8741C632.577 101.606 636.599 102.967 641.492 103.979L641.897 102.021C637.123 101.033 633.312 99.727 630.43 98.1258L629.459 99.8741ZM641.492 103.979C646.347 104.984 651.616 105.904 657.299 106.739L657.59 104.761C651.939 103.93 646.709 103.016 641.897 102.021L641.492 103.979ZM657.331 106.744C663.117 107.405 668.905 108.48 674.695 109.968L675.193 108.031C669.317 106.52 663.438 105.428 657.558 104.756L657.331 106.744ZM674.695 109.968C680.443 111.447 685.601 113.577 690.175 116.355L691.213 114.645C686.455 111.756 681.112 109.553 675.193 108.031L674.695 109.968ZM690.211 116.376C694.89 118.957 698.682 122.585 701.595 127.277L703.294 126.223C700.207 121.248 696.165 117.376 691.177 114.624L690.211 116.376ZM701.603 127.291C704.467 131.746 705.944 137.704 705.944 145.25H707.944C707.944 137.462 706.422 131.088 703.286 126.209L701.603 127.291ZM705.944 145.25C705.944 153.367 703.515 160.568 698.652 166.89L700.237 168.11C705.374 161.432 707.944 153.8 707.944 145.25H705.944ZM698.659 166.88C693.796 173.041 686.71 177.948 677.334 181.567L678.054 183.433C687.678 179.718 695.093 174.626 700.229 168.12L698.659 166.88ZM677.329 181.569C668.145 185.177 656.86 187 643.444 187V189C657.029 189 668.578 187.156 678.06 183.431L677.329 181.569ZM749.007 176L748.328 176.734L748.336 176.741L749.007 176ZM735.757 21.75V20.75H734.757V21.75H735.757ZM774.757 21.75H775.757V20.75H774.757V21.75ZM779.257 152.5L778.531 153.188L778.54 153.198L778.55 153.207L779.257 152.5ZM807.257 152L808.191 151.643L807.712 150.388L806.647 151.207L807.257 152ZM817.757 179.5L818.335 180.316L818.968 179.868L818.691 179.143L817.757 179.5ZM803.257 186L803.492 186.972L803.503 186.969L803.513 186.967L803.257 186ZM715.007 84.5H714.007V85.5H715.007V84.5ZM715.007 54.5V53.5H714.007V54.5H715.007ZM808.257 54.5H809.257V53.5H808.257V54.5ZM808.257 84.5V85.5H809.257V84.5H808.257ZM786.007 187C770.339 187 758.274 183.044 749.678 175.259L748.336 176.741C757.406 184.956 770.008 189 786.007 189V187ZM749.686 175.266C741.118 167.345 736.757 155.568 736.757 139.75H734.757C734.757 155.932 739.229 168.322 748.328 176.734L749.686 175.266ZM736.757 139.75V21.75H734.757V139.75H736.757ZM735.757 22.75H774.757V20.75H735.757V22.75ZM773.757 21.75V139.25H775.757V21.75H773.757ZM773.757 139.25C773.757 145.093 775.307 149.785 778.531 153.188L779.983 151.812C777.207 148.882 775.757 144.74 775.757 139.25H773.757ZM778.55 153.207C781.777 156.434 786.136 158 791.507 158V156C786.544 156 782.737 154.566 779.964 151.793L778.55 153.207ZM791.507 158C797.864 158 803.336 156.277 807.867 152.793L806.647 151.207C802.511 154.389 797.483 156 791.507 156V158ZM806.323 152.357L816.823 179.857L818.691 179.143L808.191 151.643L806.323 152.357ZM817.179 178.684C813.293 181.436 808.574 183.558 803.001 185.033L803.513 186.967C809.273 185.442 814.22 183.23 818.335 180.316L817.179 178.684ZM803.021 185.028C797.603 186.342 791.932 187 786.007 187V189C792.081 189 797.911 188.325 803.492 186.972L803.021 185.028ZM716.007 84.5V54.5H714.007V84.5H716.007ZM715.007 55.5H808.257V53.5H715.007V55.5ZM807.257 54.5V84.5H809.257V54.5H807.257ZM808.257 83.5H715.007V85.5H808.257V83.5ZM839.649 186H838.649V187H839.649V186ZM839.649 51.5V50.5H838.649V51.5H839.649ZM876.899 51.5H877.899V50.5H876.899V51.5ZM876.899 89.5L875.997 89.9307L877.899 89.5H876.899ZM871.649 78.5L870.728 78.1119L870.554 78.5256L870.747 78.9307L871.649 78.5ZM890.899 57L891.379 57.8773L891.386 57.8738L891.392 57.8702L890.899 57ZM923.149 49.5H924.149V48.5H923.149V49.5ZM923.149 85.5L923.05 86.495L924.149 86.605V85.5H923.149ZM918.649 85.25L918.525 86.2423L918.587 86.25H918.649V85.25ZM888.399 94.25L889.078 94.9848L889.078 94.9841L888.399 94.25ZM878.649 186V187H879.649V186H878.649ZM840.649 186V51.5H838.649V186H840.649ZM839.649 52.5H876.899V50.5H839.649V52.5ZM875.899 51.5V89.5H877.899V51.5H875.899ZM877.802 89.0693L872.552 78.0693L870.747 78.9307L875.997 89.9307L877.802 89.0693ZM872.571 78.8881C876.486 69.591 882.749 62.5994 891.379 57.8773L890.419 56.1227C881.383 61.0673 874.813 68.409 870.728 78.1119L872.571 78.8881ZM891.392 57.8702C900.042 52.9739 910.613 50.5 923.149 50.5V48.5C910.352 48.5 899.423 51.0261 890.407 56.1297L891.392 57.8702ZM922.149 49.5V85.5H924.149V49.5H922.149ZM923.249 84.505C921.557 84.3358 920.023 84.25 918.649 84.25V86.25C919.942 86.25 921.408 86.3309 923.05 86.495L923.249 84.505ZM918.773 84.2577C917.395 84.0854 915.936 84 914.399 84V86C915.863 86 917.238 86.0813 918.525 86.2423L918.773 84.2577ZM914.399 84C903.528 84 894.604 87.149 887.72 93.5159L889.078 94.9841C895.529 89.0177 903.938 86 914.399 86V84ZM887.721 93.5152C880.938 99.7765 877.649 109.515 877.649 122.5H879.649C879.649 109.818 882.861 100.724 889.078 94.9848L887.721 93.5152ZM877.649 122.5V186H879.649V122.5H877.649ZM878.649 185H839.649V187H878.649V185ZM947.228 233.25L947.53 232.297L947.228 233.25ZM930.478 224.25L929.588 223.793L929.233 224.484L929.815 224.999L930.478 224.25ZM944.728 196.5L945.392 195.753L944.427 194.895L943.838 196.043L944.728 196.5ZM954.978 202.75L954.613 203.681L954.62 203.684L954.626 203.686L954.978 202.75ZM979.728 201L979.128 200.2L979.105 200.217L979.083 200.235L979.728 201ZM988.728 188.25L989.641 188.656L989.645 188.648L989.648 188.641L988.728 188.25ZM995.728 171.75L994.911 171.173L994.849 171.261L994.807 171.359L995.728 171.75ZM998.728 167.5L999.545 168.077L999.608 167.986L999.651 167.884L998.728 167.5ZM1046.98 51.5V50.5H1046.31L1046.05 51.1159L1046.98 51.5ZM1084.48 51.5L1085.4 51.8916L1085.99 50.5H1084.48V51.5ZM1023.73 194.25L1022.81 193.858L1022.8 193.868L1022.8 193.879L1023.73 194.25ZM1008.73 219.75L1007.99 219.073L1007.99 219.079L1007.98 219.084L1008.73 219.75ZM990.228 232.75L989.884 231.811L989.876 231.814L990.228 232.75ZM990.978 191.25L990.059 191.645L990.647 193.014L991.691 191.951L990.978 191.25ZM930.978 51.5V50.5H929.46L930.059 51.8945L930.978 51.5ZM971.228 51.5L972.152 51.118L971.896 50.5H971.228V51.5ZM1017.73 164L1018.44 164.701L1018.9 164.229L1018.65 163.618L1017.73 164ZM967.978 235.5C961.083 235.5 954.268 234.433 947.53 232.297L946.925 234.203C953.854 236.4 960.872 237.5 967.978 237.5V235.5ZM947.53 232.297C940.799 230.162 935.347 227.223 931.14 223.501L929.815 224.999C934.275 228.944 939.99 232.004 946.925 234.203L947.53 232.297ZM931.367 224.707L945.617 196.957L943.838 196.043L929.588 223.793L931.367 224.707ZM944.063 197.247C947.154 199.995 950.673 202.139 954.613 203.681L955.342 201.819C951.616 200.361 948.301 198.339 945.392 195.753L944.063 197.247ZM954.626 203.686C958.726 205.224 962.761 206 966.728 206V204C963.027 204 959.229 203.276 955.329 201.814L954.626 203.686ZM966.728 206C972.385 206 976.973 204.627 980.372 201.765L979.083 200.235C976.149 202.706 972.07 204 966.728 204V206ZM980.328 201.8C983.854 199.155 986.942 194.731 989.641 188.656L987.814 187.844C985.18 193.769 982.268 197.845 979.128 200.2L980.328 201.8ZM989.648 188.641L996.648 172.141L994.807 171.359L987.807 187.859L989.648 188.641ZM996.545 172.327L999.545 168.077L997.911 166.923L994.911 171.173L996.545 172.327ZM999.651 167.884L1047.9 51.884L1046.05 51.1159L997.804 167.116L999.651 167.884ZM1046.98 52.5H1084.48V50.5H1046.98V52.5ZM1083.56 51.1084L1022.81 193.858L1024.65 194.642L1085.4 51.8916L1083.56 51.1084ZM1022.8 193.879C1018.49 204.64 1013.55 213.024 1007.99 219.073L1009.46 220.427C1015.24 214.143 1020.29 205.526 1024.66 194.621L1022.8 193.879ZM1007.98 219.084C1002.58 225.145 996.543 229.375 989.884 231.811L990.571 233.689C997.579 231.125 1003.88 226.688 1009.47 220.416L1007.98 219.084ZM989.876 231.814C983.337 234.266 976.042 235.5 967.978 235.5V237.5C976.247 237.5 983.785 236.234 990.579 233.686L989.876 231.814ZM991.896 190.855L931.896 51.1055L930.059 51.8945L990.059 191.645L991.896 190.855ZM930.978 52.5H971.228V50.5H930.978V52.5ZM970.303 51.882L1016.8 164.382L1018.65 163.618L972.152 51.118L970.303 51.882ZM1017.01 163.299L990.264 190.549L991.691 191.951L1018.44 164.701L1017.01 163.299Z" fill="#9F9F9F" mask="url(#path-1-outside-1_72_858)"/>
</svg>
