<svg width="1144" height="266" viewBox="0 0 1144 266" fill="none" xmlns="http://www.w3.org/2000/svg">
<mask id="path-1-outside-1_112_261" maskUnits="userSpaceOnUse" x="40" y="28" width="1087" height="239" fill="black">
<rect fill="white" x="40" y="28" width="1087" height="239"/>
<path d="M41.3584 215V40H81.8584V215H41.3584ZM202.39 78.5C213.056 78.5 222.556 80.6667 230.89 85C239.39 89.1667 246.056 95.6667 250.89 104.5C255.723 113.167 258.14 124.333 258.14 138V215H219.14V144C219.14 133.167 216.723 125.167 211.89 120C207.223 114.833 200.556 112.25 191.89 112.25C185.723 112.25 180.14 113.583 175.14 116.25C170.306 118.75 166.473 122.667 163.64 128C160.973 133.333 159.64 140.167 159.64 148.5V215H120.64V80.5H157.89V117.75L150.89 106.5C155.723 97.5 162.64 90.5833 171.64 85.75C180.64 80.9167 190.89 78.5 202.39 78.5ZM352.218 217C339.551 217 328.134 214.167 317.968 208.5C307.801 202.667 299.718 194.583 293.718 184.25C287.884 173.917 284.968 161.75 284.968 147.75C284.968 133.583 287.884 121.333 293.718 111C299.718 100.667 307.801 92.6667 317.968 87C328.134 81.3333 339.551 78.5 352.218 78.5C363.551 78.5 373.468 81 381.968 86C390.468 91 397.051 98.5833 401.718 108.75C406.384 118.917 408.718 131.917 408.718 147.75C408.718 163.417 406.468 176.417 401.968 186.75C397.468 196.917 390.968 204.5 382.468 209.5C374.134 214.5 364.051 217 352.218 217ZM358.968 185C365.301 185 371.051 183.5 376.218 180.5C381.384 177.5 385.468 173.25 388.468 167.75C391.634 162.083 393.218 155.417 393.218 147.75C393.218 139.917 391.634 133.25 388.468 127.75C385.468 122.25 381.384 118 376.218 115C371.051 112 365.301 110.5 358.968 110.5C352.468 110.5 346.634 112 341.468 115C336.301 118 332.134 122.25 328.968 127.75C325.968 133.25 324.468 139.917 324.468 147.75C324.468 155.417 325.968 162.083 328.968 167.75C332.134 173.25 336.301 177.5 341.468 180.5C346.634 183.5 352.468 185 358.968 185ZM394.218 215V187.5L394.968 147.5L392.468 107.75V29.5H431.468V215H394.218ZM524.313 217C513.147 217 503.147 214.833 494.313 210.5C485.647 206.167 478.897 199.583 474.063 190.75C469.23 181.75 466.813 170.333 466.813 156.5V80.5H505.813V150.75C505.813 161.917 508.147 170.167 512.813 175.5C517.647 180.667 524.397 183.25 533.063 183.25C539.063 183.25 544.397 182 549.063 179.5C553.73 176.833 557.397 172.833 560.063 167.5C562.73 162 564.063 155.167 564.063 147V80.5H603.063V215H566.063V178L572.813 188.75C568.313 198.083 561.647 205.167 552.813 210C544.147 214.667 534.647 217 524.313 217ZM684.444 217C672.944 217 661.861 215.667 651.194 213C640.694 210.167 632.361 206.667 626.194 202.5L639.194 174.5C645.361 178.333 652.611 181.5 660.944 184C669.444 186.333 677.778 187.5 685.944 187.5C694.944 187.5 701.278 186.417 704.944 184.25C708.778 182.083 710.694 179.083 710.694 175.25C710.694 172.083 709.194 169.75 706.194 168.25C703.361 166.583 699.528 165.333 694.694 164.5C689.861 163.667 684.528 162.833 678.694 162C673.028 161.167 667.278 160.083 661.444 158.75C655.611 157.25 650.278 155.083 645.444 152.25C640.611 149.417 636.694 145.583 633.694 140.75C630.861 135.917 629.444 129.667 629.444 122C629.444 113.5 631.861 106 636.694 99.5C641.694 93 648.861 87.9167 658.194 84.25C667.528 80.4167 678.694 78.5 691.694 78.5C700.861 78.5 710.194 79.5 719.694 81.5C729.194 83.5 737.111 86.4167 743.444 90.25L730.444 118C723.944 114.167 717.361 111.583 710.694 110.25C704.194 108.75 697.861 108 691.694 108C683.028 108 676.694 109.167 672.694 111.5C668.694 113.833 666.694 116.833 666.694 120.5C666.694 123.833 668.111 126.333 670.944 128C673.944 129.667 677.861 131 682.694 132C687.528 133 692.778 133.917 698.444 134.75C704.278 135.417 710.111 136.5 715.944 138C721.778 139.5 727.028 141.667 731.694 144.5C736.528 147.167 740.444 150.917 743.444 155.75C746.444 160.417 747.944 166.583 747.944 174.25C747.944 182.583 745.444 190 740.444 196.5C735.444 202.833 728.194 207.833 718.694 211.5C709.361 215.167 697.944 217 684.444 217ZM827.007 217C811.174 217 798.84 213 790.007 205C781.174 196.833 776.757 184.75 776.757 168.75V50.75H815.757V168.25C815.757 173.917 817.257 178.333 820.257 181.5C823.257 184.5 827.34 186 832.507 186C838.674 186 843.924 184.333 848.257 181L858.757 208.5C854.757 211.333 849.924 213.5 844.257 215C838.757 216.333 833.007 217 827.007 217ZM756.007 113.5V83.5H849.257V113.5H756.007ZM880.649 215V80.5H917.899V118.5L912.649 107.5C916.649 98 923.066 90.8333 931.899 86C940.733 81 951.483 78.5 964.149 78.5V114.5C962.483 114.333 960.983 114.25 959.649 114.25C958.316 114.083 956.899 114 955.399 114C944.733 114 936.066 117.083 929.399 123.25C922.899 129.25 919.649 138.667 919.649 151.5V215H880.649ZM1008.98 265.5C1001.98 265.5 995.061 264.417 988.228 262.25C981.394 260.083 975.811 257.083 971.478 253.25L985.728 225.5C988.728 228.167 992.144 230.25 995.978 231.75C999.978 233.25 1003.89 234 1007.73 234C1013.23 234 1017.56 232.667 1020.73 230C1024.06 227.5 1027.06 223.25 1029.73 217.25L1036.73 200.75L1039.73 196.5L1087.98 80.5H1125.48L1064.73 223.25C1060.39 234.083 1055.39 242.583 1049.73 248.75C1044.23 254.917 1038.06 259.25 1031.23 261.75C1024.56 264.25 1017.14 265.5 1008.98 265.5ZM1031.98 220.25L971.978 80.5H1012.23L1058.73 193L1031.98 220.25Z"/>
</mask>
<path d="M41.3584 215H40.3584V216H41.3584V215ZM41.3584 40V39H40.3584V40H41.3584ZM81.8584 40H82.8584V39H81.8584V40ZM81.8584 215V216H82.8584V215H81.8584ZM42.3584 215V40H40.3584V215H42.3584ZM41.3584 41H81.8584V39H41.3584V41ZM80.8584 40V215H82.8584V40H80.8584ZM81.8584 214H41.3584V216H81.8584V214ZM230.89 85L230.428 85.8872L230.439 85.8927L230.449 85.8979L230.89 85ZM250.89 104.5L250.012 104.98L250.016 104.987L250.89 104.5ZM258.14 215V216H259.14V215H258.14ZM219.14 215H218.14V216H219.14V215ZM211.89 120L211.148 120.67L211.153 120.677L211.159 120.683L211.89 120ZM175.14 116.25L175.599 117.138L175.61 117.132L175.14 116.25ZM163.64 128L162.757 127.531L162.751 127.542L162.745 127.553L163.64 128ZM159.64 215V216H160.64V215H159.64ZM120.64 215H119.64V216H120.64V215ZM120.64 80.5V79.5H119.64V80.5H120.64ZM157.89 80.5H158.89V79.5H157.89V80.5ZM157.89 117.75L157.041 118.278L158.89 121.25V117.75H157.89ZM150.89 106.5L150.009 106.027L149.735 106.537L150.041 107.028L150.89 106.5ZM171.64 85.75L172.113 86.631L171.64 85.75ZM202.39 79.5C212.918 79.5 222.256 81.6375 230.428 85.8872L231.351 84.1128C222.857 79.6958 213.195 77.5 202.39 77.5V79.5ZM230.449 85.8979C238.752 89.9678 245.271 96.3156 250.012 104.98L251.767 104.02C246.841 95.0178 240.027 88.3655 231.33 84.1021L230.449 85.8979ZM250.016 104.987C254.741 113.459 257.14 124.443 257.14 138H259.14C259.14 124.224 256.705 112.874 251.763 104.013L250.016 104.987ZM257.14 138V215H259.14V138H257.14ZM258.14 214H219.14V216H258.14V214ZM220.14 215V144H218.14V215H220.14ZM220.14 144C220.14 133.044 217.699 124.746 212.62 119.317L211.159 120.683C215.747 125.587 218.14 133.29 218.14 144H220.14ZM212.632 119.33C207.731 113.904 200.765 111.25 191.89 111.25V113.25C200.348 113.25 206.715 115.763 211.148 120.67L212.632 119.33ZM191.89 111.25C185.574 111.25 179.826 112.617 174.669 115.368L175.61 117.132C180.453 114.55 185.872 113.25 191.89 113.25V111.25ZM174.68 115.362C169.647 117.965 165.674 122.039 162.757 127.531L164.523 128.469C167.272 123.295 170.966 119.535 175.599 117.138L174.68 115.362ZM162.745 127.553C159.987 133.069 158.64 140.069 158.64 148.5H160.64C160.64 140.264 161.959 133.598 164.534 128.447L162.745 127.553ZM158.64 148.5V215H160.64V148.5H158.64ZM159.64 214H120.64V216H159.64V214ZM121.64 215V80.5H119.64V215H121.64ZM120.64 81.5H157.89V79.5H120.64V81.5ZM156.89 80.5V117.75H158.89V80.5H156.89ZM158.739 117.222L151.739 105.972L150.041 107.028L157.041 118.278L158.739 117.222ZM151.771 106.973C156.511 98.1462 163.286 91.3714 172.113 86.631L171.167 84.869C161.993 89.7953 154.935 96.8538 150.009 106.027L151.771 106.973ZM172.113 86.631C180.95 81.8852 191.034 79.5 202.39 79.5V77.5C190.746 77.5 180.329 79.9482 171.167 84.869L172.113 86.631ZM317.968 208.5L317.47 209.367L317.481 209.373L317.968 208.5ZM293.718 184.25L292.847 184.742L292.853 184.752L293.718 184.25ZM293.718 111L292.853 110.498L292.847 110.508L293.718 111ZM317.968 87L317.481 86.1265L317.968 87ZM381.968 86L382.475 85.1381L381.968 86ZM401.718 108.75L402.627 108.333L401.718 108.75ZM401.968 186.75L402.882 187.155L402.885 187.149L401.968 186.75ZM382.468 209.5L381.961 208.638L381.953 208.643L382.468 209.5ZM376.218 180.5L375.716 179.635L376.218 180.5ZM388.468 167.75L387.595 167.262L387.59 167.271L388.468 167.75ZM388.468 127.75L387.59 128.229L387.595 128.239L387.601 128.249L388.468 127.75ZM376.218 115L375.716 115.865L376.218 115ZM341.468 115L341.97 115.865L341.468 115ZM328.968 127.75L328.101 127.251L328.095 127.261L328.09 127.271L328.968 127.75ZM328.968 167.75L328.084 168.218L328.092 168.234L328.101 168.249L328.968 167.75ZM341.468 180.5L341.97 179.635L341.468 180.5ZM394.218 215H393.218V216H394.218V215ZM394.218 187.5L393.218 187.481L393.218 187.491V187.5H394.218ZM394.968 147.5L395.968 147.519L395.968 147.478L395.966 147.437L394.968 147.5ZM392.468 107.75H391.468V107.781L391.47 107.813L392.468 107.75ZM392.468 29.5V28.5H391.468V29.5H392.468ZM431.468 29.5H432.468V28.5H431.468V29.5ZM431.468 215V216H432.468V215H431.468ZM352.218 216C339.706 216 328.46 213.203 318.455 207.627L317.481 209.373C327.809 215.13 339.396 218 352.218 218V216ZM318.465 207.633C308.454 201.888 300.496 193.932 294.583 183.748L292.853 184.752C298.939 195.234 307.148 203.445 317.47 209.367L318.465 207.633ZM294.589 183.758C288.854 173.6 285.968 161.609 285.968 147.75H283.968C283.968 161.891 286.915 174.233 292.847 184.742L294.589 183.758ZM285.968 147.75C285.968 133.722 288.855 121.648 294.589 111.492L292.847 110.508C286.914 121.018 283.968 133.444 283.968 147.75H285.968ZM294.583 111.502C300.495 101.32 308.449 93.4502 318.455 87.8735L317.481 86.1265C307.153 91.8831 298.941 100.013 292.853 110.498L294.583 111.502ZM318.455 87.8735C328.46 82.297 339.706 79.5 352.218 79.5V77.5C339.396 77.5 327.809 80.3697 317.481 86.1265L318.455 87.8735ZM352.218 79.5C363.4 79.5 373.136 81.9651 381.461 86.8619L382.475 85.1381C373.799 80.0349 363.702 77.5 352.218 77.5V79.5ZM381.461 86.8619C389.761 91.7447 396.216 99.1604 400.809 109.167L402.627 108.333C397.887 98.0062 391.174 90.2553 382.475 85.1381L381.461 86.8619ZM400.809 109.167C405.396 119.16 407.718 132.005 407.718 147.75H409.718C409.718 131.828 407.373 118.673 402.627 108.333L400.809 109.167ZM407.718 147.75C407.718 163.329 405.479 176.182 401.051 186.351L402.885 187.149C407.456 176.651 409.718 163.504 409.718 147.75H407.718ZM401.053 186.345C396.627 196.346 390.258 203.757 381.961 208.638L382.975 210.362C391.678 205.243 398.309 197.487 402.882 187.155L401.053 186.345ZM381.953 208.643C373.806 213.531 363.909 216 352.218 216V218C364.193 218 374.463 215.469 382.982 210.357L381.953 208.643ZM358.968 186C365.466 186 371.391 184.459 376.72 181.365L375.716 179.635C370.711 182.541 365.136 184 358.968 184V186ZM376.72 181.365C382.053 178.268 386.263 173.881 389.346 168.229L387.59 167.271C384.673 172.619 380.716 176.732 375.716 179.635L376.72 181.365ZM389.341 168.238C392.605 162.397 394.218 155.556 394.218 147.75H392.218C392.218 155.277 390.664 161.77 387.595 167.262L389.341 168.238ZM394.218 147.75C394.218 139.782 392.607 132.935 389.334 127.251L387.601 128.249C390.662 133.565 392.218 140.051 392.218 147.75H394.218ZM389.346 127.271C386.263 121.619 382.053 117.232 376.72 114.135L375.716 115.865C380.716 118.768 384.673 122.881 387.59 128.229L389.346 127.271ZM376.72 114.135C371.391 111.041 365.466 109.5 358.968 109.5V111.5C365.136 111.5 370.711 112.959 375.716 115.865L376.72 114.135ZM358.968 109.5C352.307 109.5 346.298 111.039 340.966 114.135L341.97 115.865C346.971 112.961 352.628 111.5 358.968 111.5V109.5ZM340.966 114.135C335.638 117.229 331.35 121.609 328.101 127.251L329.834 128.249C332.919 122.891 336.964 118.771 341.97 115.865L340.966 114.135ZM328.09 127.271C324.992 132.95 323.468 139.791 323.468 147.75H325.468C325.468 140.043 326.943 133.55 329.846 128.229L328.09 127.271ZM323.468 147.75C323.468 155.548 324.994 162.381 328.084 168.218L329.852 167.282C326.941 161.785 325.468 155.285 325.468 147.75H323.468ZM328.101 168.249C331.35 173.891 335.638 178.271 340.966 181.365L341.97 179.635C336.964 176.729 332.919 172.609 329.834 167.251L328.101 168.249ZM340.966 181.365C346.298 184.461 352.307 186 358.968 186V184C352.628 184 346.971 182.539 341.97 179.635L340.966 181.365ZM395.218 215V187.5H393.218V215H395.218ZM395.218 187.519L395.968 147.519L393.968 147.481L393.218 187.481L395.218 187.519ZM395.966 147.437L393.466 107.687L391.47 107.813L393.97 147.563L395.966 147.437ZM393.468 107.75V29.5H391.468V107.75H393.468ZM392.468 30.5H431.468V28.5H392.468V30.5ZM430.468 29.5V215H432.468V29.5H430.468ZM431.468 214H394.218V216H431.468V214ZM494.313 210.5L493.866 211.394L493.873 211.398L494.313 210.5ZM474.063 190.75L473.182 191.223L473.186 191.23L474.063 190.75ZM466.813 80.5V79.5H465.813V80.5H466.813ZM505.813 80.5H506.813V79.5H505.813V80.5ZM512.813 175.5L512.061 176.159L512.072 176.171L512.083 176.183L512.813 175.5ZM549.063 179.5L549.536 180.381L549.548 180.375L549.56 180.368L549.063 179.5ZM560.063 167.5L560.958 167.947L560.963 167.936L560.063 167.5ZM564.063 80.5V79.5H563.063V80.5H564.063ZM603.063 80.5H604.063V79.5H603.063V80.5ZM603.063 215V216H604.063V215H603.063ZM566.063 215H565.063V216H566.063V215ZM566.063 178L566.91 177.468L565.063 174.527V178H566.063ZM572.813 188.75L573.714 189.184L573.954 188.686L573.66 188.218L572.813 188.75ZM552.813 210L553.288 210.88L553.294 210.877L552.813 210ZM524.313 216C513.279 216 503.433 213.86 494.754 209.602L493.873 211.398C502.861 215.807 513.015 218 524.313 218V216ZM494.761 209.606C486.284 205.367 479.68 198.932 474.941 190.27L473.186 191.23C478.113 200.235 485.01 206.966 493.866 211.394L494.761 209.606ZM474.944 190.277C470.212 181.465 467.813 170.224 467.813 156.5H465.813C465.813 170.443 468.248 182.035 473.182 191.223L474.944 190.277ZM467.813 156.5V80.5H465.813V156.5H467.813ZM466.813 81.5H505.813V79.5H466.813V81.5ZM504.813 80.5V150.75H506.813V80.5H504.813ZM504.813 150.75C504.813 162.026 507.165 170.563 512.061 176.159L513.566 174.841C509.129 169.77 506.813 161.807 506.813 150.75H504.813ZM512.083 176.183C517.147 181.596 524.187 184.25 533.063 184.25V182.25C524.607 182.25 518.147 179.737 513.544 174.817L512.083 176.183ZM533.063 184.25C539.206 184.25 544.705 182.969 549.536 180.381L548.591 178.619C544.088 181.031 538.921 182.25 533.063 182.25V184.25ZM549.56 180.368C554.416 177.593 558.213 173.437 560.958 167.947L559.169 167.053C556.581 172.23 553.044 176.074 548.567 178.632L549.56 180.368ZM560.963 167.936C563.714 162.263 565.063 155.269 565.063 147H563.063C563.063 155.064 561.746 161.737 559.164 167.064L560.963 167.936ZM565.063 147V80.5H563.063V147H565.063ZM564.063 81.5H603.063V79.5H564.063V81.5ZM602.063 80.5V215H604.063V80.5H602.063ZM603.063 214H566.063V216H603.063V214ZM567.063 215V178H565.063V215H567.063ZM565.217 178.532L571.967 189.282L573.66 188.218L566.91 177.468L565.217 178.532ZM571.913 188.316C567.5 197.467 560.978 204.393 552.333 209.123L553.294 210.877C562.315 205.941 569.126 198.7 573.714 189.184L571.913 188.316ZM552.339 209.12C543.826 213.704 534.49 216 524.313 216V218C534.804 218 544.468 215.63 553.288 210.88L552.339 209.12ZM651.194 213L650.934 213.965L650.943 213.968L650.952 213.97L651.194 213ZM626.194 202.5L625.287 202.079L624.929 202.852L625.634 203.329L626.194 202.5ZM639.194 174.5L639.722 173.651L638.763 173.054L638.287 174.079L639.194 174.5ZM660.944 184L660.657 184.958L660.668 184.961L660.68 184.964L660.944 184ZM704.944 184.25L704.452 183.379L704.444 183.384L704.436 183.389L704.944 184.25ZM706.194 168.25L705.687 169.112L705.717 169.129L705.747 169.144L706.194 168.25ZM694.694 164.5L694.524 165.485L694.694 164.5ZM678.694 162L678.549 162.989L678.553 162.99L678.694 162ZM661.444 158.75L661.195 159.718L661.208 159.722L661.221 159.725L661.444 158.75ZM645.444 152.25L645.95 151.387L645.444 152.25ZM633.694 140.75L632.832 141.256L632.838 141.267L632.845 141.277L633.694 140.75ZM636.694 99.5L635.902 98.8903L635.897 98.8968L635.892 98.9033L636.694 99.5ZM658.194 84.25L658.56 85.1807L658.567 85.1779L658.574 85.175L658.194 84.25ZM719.694 81.5L719.9 80.5214L719.694 81.5ZM743.444 90.25L744.35 90.6742L744.731 89.86L743.962 89.3945L743.444 90.25ZM730.444 118L729.936 118.861L730.883 119.42L731.35 118.424L730.444 118ZM710.694 110.25L710.469 111.224L710.484 111.228L710.498 111.231L710.694 110.25ZM672.694 111.5L672.19 110.636L672.694 111.5ZM670.944 128L670.437 128.862L670.448 128.868L670.459 128.874L670.944 128ZM698.444 134.75L698.299 135.739L698.315 135.742L698.331 135.744L698.444 134.75ZM715.944 138L716.193 137.031L715.944 138ZM731.694 144.5L731.175 145.355L731.193 145.366L731.211 145.376L731.694 144.5ZM743.444 155.75L742.595 156.277L742.599 156.284L742.603 156.291L743.444 155.75ZM740.444 196.5L741.229 197.12L741.237 197.11L740.444 196.5ZM718.694 211.5L718.334 210.567L718.329 210.569L718.694 211.5ZM684.444 216C673.022 216 662.021 214.676 651.437 212.03L650.952 213.97C661.701 216.658 672.866 218 684.444 218V216ZM651.455 212.035C641.017 209.218 632.798 205.755 626.754 201.671L625.634 203.329C631.924 207.579 640.372 211.115 650.934 213.965L651.455 212.035ZM627.101 202.921L640.101 174.921L638.287 174.079L625.287 202.079L627.101 202.921ZM638.666 175.349C644.921 179.237 652.255 182.437 660.657 184.958L661.232 183.042C652.967 180.563 645.801 177.429 639.722 173.651L638.666 175.349ZM660.68 184.964C669.259 187.319 677.681 188.5 685.944 188.5V186.5C677.874 186.5 669.63 185.347 661.209 183.036L660.68 184.964ZM685.944 188.5C694.965 188.5 701.537 187.425 705.453 185.111L704.436 183.389C701.018 185.408 694.924 186.5 685.944 186.5V188.5ZM705.436 185.121C709.528 182.808 711.694 179.504 711.694 175.25H709.694C709.694 178.663 708.028 181.358 704.452 183.379L705.436 185.121ZM711.694 175.25C711.694 173.503 711.278 171.934 710.411 170.584C709.545 169.238 708.269 168.169 706.642 167.356L705.747 169.144C707.12 169.831 708.094 170.679 708.728 171.666C709.36 172.649 709.694 173.831 709.694 175.25H711.694ZM706.701 167.388C703.726 165.638 699.764 164.359 694.864 163.515L694.524 165.485C699.292 166.307 702.996 167.529 705.687 169.112L706.701 167.388ZM694.864 163.515C690.02 162.679 684.677 161.844 678.836 161.01L678.553 162.99C684.379 163.822 689.702 164.654 694.524 165.485L694.864 163.515ZM678.84 161.011C673.2 160.181 667.476 159.103 661.667 157.775L661.221 159.725C667.079 161.064 672.855 162.152 678.549 162.989L678.84 161.011ZM661.693 157.782C655.943 156.303 650.697 154.17 645.95 151.387L644.939 153.113C649.858 155.996 655.279 158.197 661.195 159.718L661.693 157.782ZM645.95 151.387C641.259 148.637 637.46 144.92 634.544 140.223L632.845 141.277C635.929 146.247 639.963 150.196 644.939 153.113L645.95 151.387ZM634.557 140.244C631.841 135.611 630.444 129.552 630.444 122H628.444C628.444 129.782 629.881 136.223 632.832 141.256L634.557 140.244ZM630.444 122C630.444 113.704 632.798 106.415 637.497 100.097L635.892 98.9033C630.924 105.585 628.444 113.296 628.444 122H630.444ZM637.487 100.11C642.354 93.7824 649.358 88.7959 658.56 85.1807L657.829 83.3192C648.364 87.0375 641.035 92.2176 635.902 98.8903L637.487 100.11ZM658.574 85.175C667.758 81.4032 678.789 79.5 691.694 79.5V77.5C678.6 77.5 667.298 79.4301 657.814 83.325L658.574 85.175ZM691.694 79.5C700.788 79.5 710.052 80.492 719.488 82.4785L719.9 80.5214C710.337 78.508 700.934 77.5 691.694 77.5V79.5ZM719.488 82.4785C728.911 84.4622 736.714 87.3454 742.927 91.1055L743.962 89.3945C737.508 85.4879 729.478 82.5378 719.9 80.5214L719.488 82.4785ZM742.539 89.8258L729.539 117.576L731.35 118.424L744.35 90.6742L742.539 89.8258ZM730.952 117.139C724.366 113.255 717.678 110.627 710.89 109.269L710.498 111.231C717.044 112.54 723.522 115.079 729.936 118.861L730.952 117.139ZM710.919 109.276C704.351 107.76 697.943 107 691.694 107V109C697.779 109 704.037 109.74 710.469 111.224L710.919 109.276ZM691.694 107C682.981 107 676.426 108.165 672.19 110.636L673.198 112.364C676.962 110.168 683.075 109 691.694 109V107ZM672.19 110.636C667.977 113.094 665.694 116.381 665.694 120.5H667.694C667.694 117.285 669.412 114.572 673.198 112.364L672.19 110.636ZM665.694 120.5C665.694 124.182 667.293 127.012 670.437 128.862L671.451 127.138C668.929 125.654 667.694 123.485 667.694 120.5H665.694ZM670.459 128.874C673.577 130.606 677.599 131.967 682.492 132.979L682.897 131.021C678.123 130.033 674.312 128.727 671.43 127.126L670.459 128.874ZM682.492 132.979C687.347 133.984 692.616 134.904 698.299 135.739L698.59 133.761C692.939 132.93 687.709 132.016 682.897 131.021L682.492 132.979ZM698.331 135.744C704.117 136.405 709.905 137.48 715.695 138.968L716.193 137.031C710.317 135.52 704.438 134.428 698.558 133.756L698.331 135.744ZM715.695 138.968C721.443 140.447 726.601 142.577 731.175 145.355L732.213 143.645C727.455 140.756 722.112 138.553 716.193 137.031L715.695 138.968ZM731.211 145.376C735.89 147.957 739.682 151.585 742.595 156.277L744.294 155.223C741.207 150.248 737.165 146.376 732.177 143.624L731.211 145.376ZM742.603 156.291C745.467 160.746 746.944 166.704 746.944 174.25H748.944C748.944 166.462 747.422 160.088 744.286 155.209L742.603 156.291ZM746.944 174.25C746.944 182.367 744.515 189.568 739.652 195.89L741.237 197.11C746.374 190.432 748.944 182.8 748.944 174.25H746.944ZM739.659 195.88C734.796 202.041 727.71 206.948 718.334 210.567L719.054 212.433C728.678 208.718 736.093 203.626 741.229 197.12L739.659 195.88ZM718.329 210.569C709.145 214.177 697.86 216 684.444 216V218C698.029 218 709.578 216.156 719.06 212.431L718.329 210.569ZM790.007 205L789.328 205.734L789.336 205.741L790.007 205ZM776.757 50.75V49.75H775.757V50.75H776.757ZM815.757 50.75H816.757V49.75H815.757V50.75ZM820.257 181.5L819.531 182.188L819.54 182.198L819.55 182.207L820.257 181.5ZM848.257 181L849.191 180.643L848.712 179.388L847.647 180.207L848.257 181ZM858.757 208.5L859.335 209.316L859.968 208.868L859.691 208.143L858.757 208.5ZM844.257 215L844.492 215.972L844.503 215.969L844.513 215.967L844.257 215ZM756.007 113.5H755.007V114.5H756.007V113.5ZM756.007 83.5V82.5H755.007V83.5H756.007ZM849.257 83.5H850.257V82.5H849.257V83.5ZM849.257 113.5V114.5H850.257V113.5H849.257ZM827.007 216C811.339 216 799.274 212.044 790.678 204.259L789.336 205.741C798.406 213.956 811.008 218 827.007 218V216ZM790.686 204.266C782.118 196.345 777.757 184.568 777.757 168.75H775.757C775.757 184.932 780.229 197.322 789.328 205.734L790.686 204.266ZM777.757 168.75V50.75H775.757V168.75H777.757ZM776.757 51.75H815.757V49.75H776.757V51.75ZM814.757 50.75V168.25H816.757V50.75H814.757ZM814.757 168.25C814.757 174.093 816.307 178.785 819.531 182.188L820.983 180.812C818.207 177.882 816.757 173.74 816.757 168.25H814.757ZM819.55 182.207C822.777 185.434 827.136 187 832.507 187V185C827.544 185 823.737 183.566 820.964 180.793L819.55 182.207ZM832.507 187C838.864 187 844.336 185.277 848.867 181.793L847.647 180.207C843.511 183.389 838.483 185 832.507 185V187ZM847.323 181.357L857.823 208.857L859.691 208.143L849.191 180.643L847.323 181.357ZM858.179 207.684C854.293 210.436 849.574 212.558 844.001 214.033L844.513 215.967C850.273 214.442 855.22 212.23 859.335 209.316L858.179 207.684ZM844.021 214.028C838.603 215.342 832.932 216 827.007 216V218C833.081 218 838.911 217.325 844.492 215.972L844.021 214.028ZM757.007 113.5V83.5H755.007V113.5H757.007ZM756.007 84.5H849.257V82.5H756.007V84.5ZM848.257 83.5V113.5H850.257V83.5H848.257ZM849.257 112.5H756.007V114.5H849.257V112.5ZM880.649 215H879.649V216H880.649V215ZM880.649 80.5V79.5H879.649V80.5H880.649ZM917.899 80.5H918.899V79.5H917.899V80.5ZM917.899 118.5L916.997 118.931L918.899 118.5H917.899ZM912.649 107.5L911.728 107.112L911.554 107.526L911.747 107.931L912.649 107.5ZM931.899 86L932.379 86.8773L932.386 86.8738L932.392 86.8702L931.899 86ZM964.149 78.5H965.149V77.5H964.149V78.5ZM964.149 114.5L964.05 115.495L965.149 115.605V114.5H964.149ZM959.649 114.25L959.525 115.242L959.587 115.25H959.649V114.25ZM929.399 123.25L930.078 123.985L930.078 123.984L929.399 123.25ZM919.649 215V216H920.649V215H919.649ZM881.649 215V80.5H879.649V215H881.649ZM880.649 81.5H917.899V79.5H880.649V81.5ZM916.899 80.5V118.5H918.899V80.5H916.899ZM918.802 118.069L913.552 107.069L911.747 107.931L916.997 118.931L918.802 118.069ZM913.571 107.888C917.486 98.591 923.749 91.5994 932.379 86.8773L931.419 85.1227C922.383 90.0673 915.813 97.409 911.728 107.112L913.571 107.888ZM932.392 86.8702C941.042 81.9739 951.613 79.5 964.149 79.5V77.5C951.352 77.5 940.423 80.0261 931.407 85.1297L932.392 86.8702ZM963.149 78.5V114.5H965.149V78.5H963.149ZM964.249 113.505C962.557 113.336 961.023 113.25 959.649 113.25V115.25C960.942 115.25 962.408 115.331 964.05 115.495L964.249 113.505ZM959.773 113.258C958.395 113.085 956.936 113 955.399 113V115C956.863 115 958.238 115.081 959.525 115.242L959.773 113.258ZM955.399 113C944.528 113 935.604 116.149 928.72 122.516L930.078 123.984C936.529 118.018 944.938 115 955.399 115V113ZM928.721 122.515C921.938 128.776 918.649 138.515 918.649 151.5H920.649C920.649 138.818 923.861 129.724 930.078 123.985L928.721 122.515ZM918.649 151.5V215H920.649V151.5H918.649ZM919.649 214H880.649V216H919.649V214ZM988.228 262.25L988.53 261.297L988.228 262.25ZM971.478 253.25L970.588 252.793L970.233 253.484L970.815 253.999L971.478 253.25ZM985.728 225.5L986.392 224.753L985.427 223.895L984.838 225.043L985.728 225.5ZM995.978 231.75L995.613 232.681L995.62 232.684L995.626 232.686L995.978 231.75ZM1020.73 230L1020.13 229.2L1020.1 229.217L1020.08 229.235L1020.73 230ZM1029.73 217.25L1030.64 217.656L1030.64 217.648L1030.65 217.641L1029.73 217.25ZM1036.73 200.75L1035.91 200.173L1035.85 200.261L1035.81 200.359L1036.73 200.75ZM1039.73 196.5L1040.54 197.077L1040.61 196.986L1040.65 196.884L1039.73 196.5ZM1087.98 80.5V79.5H1087.31L1087.05 80.1159L1087.98 80.5ZM1125.48 80.5L1126.4 80.8916L1126.99 79.5H1125.48V80.5ZM1064.73 223.25L1063.81 222.858L1063.8 222.868L1063.8 222.879L1064.73 223.25ZM1049.73 248.75L1048.99 248.073L1048.99 248.079L1048.98 248.084L1049.73 248.75ZM1031.23 261.75L1030.88 260.811L1030.88 260.814L1031.23 261.75ZM1031.98 220.25L1031.06 220.645L1031.65 222.014L1032.69 220.951L1031.98 220.25ZM971.978 80.5V79.5H970.46L971.059 80.8945L971.978 80.5ZM1012.23 80.5L1013.15 80.118L1012.9 79.5H1012.23V80.5ZM1058.73 193L1059.44 193.701L1059.9 193.229L1059.65 192.618L1058.73 193ZM1008.98 264.5C1002.08 264.5 995.268 263.433 988.53 261.297L987.925 263.203C994.854 265.4 1001.87 266.5 1008.98 266.5V264.5ZM988.53 261.297C981.799 259.162 976.347 256.223 972.14 252.501L970.815 253.999C975.275 257.944 980.99 261.004 987.925 263.203L988.53 261.297ZM972.367 253.707L986.617 225.957L984.838 225.043L970.588 252.793L972.367 253.707ZM985.063 226.247C988.154 228.995 991.673 231.139 995.613 232.681L996.342 230.819C992.616 229.361 989.301 227.339 986.392 224.753L985.063 226.247ZM995.626 232.686C999.726 234.224 1003.76 235 1007.73 235V233C1004.03 233 1000.23 232.276 996.329 230.814L995.626 232.686ZM1007.73 235C1013.39 235 1017.97 233.627 1021.37 230.765L1020.08 229.235C1017.15 231.706 1013.07 233 1007.73 233V235ZM1021.33 230.8C1024.85 228.155 1027.94 223.731 1030.64 217.656L1028.81 216.844C1026.18 222.769 1023.27 226.845 1020.13 229.2L1021.33 230.8ZM1030.65 217.641L1037.65 201.141L1035.81 200.359L1028.81 216.859L1030.65 217.641ZM1037.54 201.327L1040.54 197.077L1038.91 195.923L1035.91 200.173L1037.54 201.327ZM1040.65 196.884L1088.9 80.884L1087.05 80.1159L1038.8 196.116L1040.65 196.884ZM1087.98 81.5H1125.48V79.5H1087.98V81.5ZM1124.56 80.1084L1063.81 222.858L1065.65 223.642L1126.4 80.8916L1124.56 80.1084ZM1063.8 222.879C1059.49 233.64 1054.55 242.024 1048.99 248.073L1050.46 249.427C1056.24 243.143 1061.29 234.526 1065.66 223.621L1063.8 222.879ZM1048.98 248.084C1043.58 254.145 1037.54 258.375 1030.88 260.811L1031.57 262.689C1038.58 260.125 1044.88 255.688 1050.47 249.416L1048.98 248.084ZM1030.88 260.814C1024.34 263.266 1017.04 264.5 1008.98 264.5V266.5C1017.25 266.5 1024.78 265.234 1031.58 262.686L1030.88 260.814ZM1032.9 219.855L972.896 80.1055L971.059 80.8945L1031.06 220.645L1032.9 219.855ZM971.978 81.5H1012.23V79.5H971.978V81.5ZM1011.3 80.882L1057.8 193.382L1059.65 192.618L1013.15 80.118L1011.3 80.882ZM1058.01 192.299L1031.26 219.549L1032.69 220.951L1059.44 193.701L1058.01 192.299Z" fill="#9F9F9F" mask="url(#path-1-outside-1_112_261)"/>
<path d="M475.737 165V138.4H481.893V165H475.737ZM500.214 144.252C501.835 144.252 503.279 144.581 504.546 145.24C505.838 145.873 506.851 146.861 507.586 148.204C508.32 149.521 508.688 151.219 508.688 153.296V165H502.76V154.208C502.76 152.561 502.392 151.345 501.658 150.56C500.948 149.775 499.935 149.382 498.618 149.382C497.68 149.382 496.832 149.585 496.072 149.99C495.337 150.37 494.754 150.965 494.324 151.776C493.918 152.587 493.716 153.625 493.716 154.892V165H487.788V144.556H493.45V150.218L492.386 148.508C493.12 147.14 494.172 146.089 495.54 145.354C496.908 144.619 498.466 144.252 500.214 144.252ZM522.988 165.304C521.062 165.304 519.327 164.873 517.782 164.012C516.236 163.125 515.008 161.897 514.096 160.326C513.209 158.755 512.766 156.906 512.766 154.778C512.766 152.625 513.209 150.763 514.096 149.192C515.008 147.621 516.236 146.405 517.782 145.544C519.327 144.683 521.062 144.252 522.988 144.252C524.71 144.252 526.218 144.632 527.51 145.392C528.802 146.152 529.802 147.305 530.512 148.85C531.221 150.395 531.576 152.371 531.576 154.778C531.576 157.159 531.234 159.135 530.55 160.706C529.866 162.251 528.878 163.404 527.586 164.164C526.319 164.924 524.786 165.304 522.988 165.304ZM524.014 160.44C524.976 160.44 525.85 160.212 526.636 159.756C527.421 159.3 528.042 158.654 528.498 157.818C528.979 156.957 529.22 155.943 529.22 154.778C529.22 153.587 528.979 152.574 528.498 151.738C528.042 150.902 527.421 150.256 526.636 149.8C525.85 149.344 524.976 149.116 524.014 149.116C523.026 149.116 522.139 149.344 521.354 149.8C520.568 150.256 519.935 150.902 519.454 151.738C518.998 152.574 518.77 153.587 518.77 154.778C518.77 155.943 518.998 156.957 519.454 157.818C519.935 158.654 520.568 159.3 521.354 159.756C522.139 160.212 523.026 160.44 524.014 160.44ZM529.372 165V160.82L529.486 154.74L529.106 148.698V136.804H535.034V165H529.372ZM549.146 165.304C547.449 165.304 545.929 164.975 544.586 164.316C543.269 163.657 542.243 162.657 541.508 161.314C540.774 159.946 540.406 158.211 540.406 156.108V144.556H546.334V155.234C546.334 156.931 546.689 158.185 547.398 158.996C548.133 159.781 549.159 160.174 550.476 160.174C551.388 160.174 552.199 159.984 552.908 159.604C553.618 159.199 554.175 158.591 554.58 157.78C554.986 156.944 555.188 155.905 555.188 154.664V144.556H561.116V165H555.492V159.376L556.518 161.01C555.834 162.429 554.821 163.505 553.478 164.24C552.161 164.949 550.717 165.304 549.146 165.304ZM573.486 165.304C571.738 165.304 570.053 165.101 568.432 164.696C566.836 164.265 565.569 163.733 564.632 163.1L566.608 158.844C567.545 159.427 568.647 159.908 569.914 160.288C571.206 160.643 572.473 160.82 573.714 160.82C575.082 160.82 576.045 160.655 576.602 160.326C577.185 159.997 577.476 159.541 577.476 158.958C577.476 158.477 577.248 158.122 576.792 157.894C576.361 157.641 575.779 157.451 575.044 157.324C574.309 157.197 573.499 157.071 572.612 156.944C571.751 156.817 570.877 156.653 569.99 156.45C569.103 156.222 568.293 155.893 567.558 155.462C566.823 155.031 566.228 154.449 565.772 153.714C565.341 152.979 565.126 152.029 565.126 150.864C565.126 149.572 565.493 148.432 566.228 147.444C566.988 146.456 568.077 145.683 569.496 145.126C570.915 144.543 572.612 144.252 574.588 144.252C575.981 144.252 577.4 144.404 578.844 144.708C580.288 145.012 581.491 145.455 582.454 146.038L580.478 150.256C579.49 149.673 578.489 149.281 577.476 149.078C576.488 148.85 575.525 148.736 574.588 148.736C573.271 148.736 572.308 148.913 571.7 149.268C571.092 149.623 570.788 150.079 570.788 150.636C570.788 151.143 571.003 151.523 571.434 151.776C571.89 152.029 572.485 152.232 573.22 152.384C573.955 152.536 574.753 152.675 575.614 152.802C576.501 152.903 577.387 153.068 578.274 153.296C579.161 153.524 579.959 153.853 580.668 154.284C581.403 154.689 581.998 155.259 582.454 155.994C582.91 156.703 583.138 157.641 583.138 158.806C583.138 160.073 582.758 161.2 581.998 162.188C581.238 163.151 580.136 163.911 578.692 164.468C577.273 165.025 575.538 165.304 573.486 165.304ZM595.156 165.304C592.749 165.304 590.874 164.696 589.532 163.48C588.189 162.239 587.518 160.402 587.518 157.97V140.034H593.446V157.894C593.446 158.755 593.674 159.427 594.13 159.908C594.586 160.364 595.206 160.592 595.992 160.592C596.929 160.592 597.727 160.339 598.386 159.832L599.982 164.012C599.374 164.443 598.639 164.772 597.778 165C596.942 165.203 596.068 165.304 595.156 165.304ZM584.364 149.572V145.012H598.538V149.572H584.364ZM603.309 165V144.556H608.971V150.332L608.173 148.66C608.781 147.216 609.757 146.127 611.099 145.392C612.442 144.632 614.076 144.252 616.001 144.252V149.724C615.748 149.699 615.52 149.686 615.317 149.686C615.115 149.661 614.899 149.648 614.671 149.648C613.05 149.648 611.733 150.117 610.719 151.054C609.731 151.966 609.237 153.397 609.237 155.348V165H603.309ZM619.563 165V144.556H625.491V165H619.563ZM622.527 141.706C621.438 141.706 620.551 141.389 619.867 140.756C619.183 140.123 618.841 139.337 618.841 138.4C618.841 137.463 619.183 136.677 619.867 136.044C620.551 135.411 621.438 135.094 622.527 135.094C623.616 135.094 624.503 135.398 625.187 136.006C625.871 136.589 626.213 137.349 626.213 138.286C626.213 139.274 625.871 140.097 625.187 140.756C624.528 141.389 623.642 141.706 622.527 141.706ZM641.139 165.304C638.808 165.304 636.756 164.848 634.983 163.936C633.235 163.024 631.88 161.783 630.917 160.212C629.954 158.616 629.473 156.805 629.473 154.778C629.473 152.726 629.942 150.915 630.879 149.344C631.842 147.748 633.146 146.507 634.793 145.62C636.44 144.708 638.302 144.252 640.379 144.252C642.38 144.252 644.179 144.683 645.775 145.544C647.396 146.38 648.676 147.596 649.613 149.192C650.55 150.763 651.019 152.65 651.019 154.854C651.019 155.082 651.006 155.348 650.981 155.652C650.956 155.931 650.93 156.197 650.905 156.45H634.299V152.992H647.789L645.509 154.018C645.509 152.954 645.294 152.029 644.863 151.244C644.432 150.459 643.837 149.851 643.077 149.42C642.317 148.964 641.43 148.736 640.417 148.736C639.404 148.736 638.504 148.964 637.719 149.42C636.959 149.851 636.364 150.471 635.933 151.282C635.502 152.067 635.287 153.005 635.287 154.094V155.006C635.287 156.121 635.528 157.109 636.009 157.97C636.516 158.806 637.212 159.452 638.099 159.908C639.011 160.339 640.075 160.554 641.291 160.554C642.38 160.554 643.33 160.389 644.141 160.06C644.977 159.731 645.737 159.237 646.421 158.578L649.575 161.998C648.638 163.062 647.46 163.885 646.041 164.468C644.622 165.025 642.988 165.304 641.139 165.304ZM661.843 165.304C660.095 165.304 658.411 165.101 656.789 164.696C655.193 164.265 653.927 163.733 652.989 163.1L654.965 158.844C655.903 159.427 657.005 159.908 658.271 160.288C659.563 160.643 660.83 160.82 662.071 160.82C663.439 160.82 664.402 160.655 664.959 160.326C665.542 159.997 665.833 159.541 665.833 158.958C665.833 158.477 665.605 158.122 665.149 157.894C664.719 157.641 664.136 157.451 663.401 157.324C662.667 157.197 661.856 157.071 660.969 156.944C660.108 156.817 659.234 156.653 658.347 156.45C657.461 156.222 656.65 155.893 655.915 155.462C655.181 155.031 654.585 154.449 654.129 153.714C653.699 152.979 653.483 152.029 653.483 150.864C653.483 149.572 653.851 148.432 654.585 147.444C655.345 146.456 656.435 145.683 657.853 145.126C659.272 144.543 660.969 144.252 662.945 144.252C664.339 144.252 665.757 144.404 667.201 144.708C668.645 145.012 669.849 145.455 670.811 146.038L668.835 150.256C667.847 149.673 666.847 149.281 665.833 149.078C664.845 148.85 663.883 148.736 662.945 148.736C661.628 148.736 660.665 148.913 660.057 149.268C659.449 149.623 659.145 150.079 659.145 150.636C659.145 151.143 659.361 151.523 659.791 151.776C660.247 152.029 660.843 152.232 661.577 152.384C662.312 152.536 663.11 152.675 663.971 152.802C664.858 152.903 665.745 153.068 666.631 153.296C667.518 153.524 668.316 153.853 669.025 154.284C669.76 154.689 670.355 155.259 670.811 155.994C671.267 156.703 671.495 157.641 671.495 158.806C671.495 160.073 671.115 161.2 670.355 162.188C669.595 163.151 668.493 163.911 667.049 164.468C665.631 165.025 663.895 165.304 661.843 165.304Z" fill="black"/>
</svg>
