<svg width="1109" height="199" viewBox="0 0 1109 199" fill="none" xmlns="http://www.w3.org/2000/svg">
<mask id="path-1-outside-1_112_203" maskUnits="userSpaceOnUse" x="-1" y="-1" width="1111" height="201" fill="black">
<rect fill="white" x="-1" y="-1" width="1111" height="201"/>
<path d="M0.146485 197V22H75.8965C91.5632 22 105.063 24.5833 116.396 29.75C127.73 34.75 136.48 42 142.646 51.5C148.813 61 151.896 72.3333 151.896 85.5C151.896 98.5 148.813 109.75 142.646 119.25C136.48 128.75 127.73 136.083 116.396 141.25C105.063 146.25 91.5632 148.75 75.8965 148.75H22.6465L40.6465 130.5V197H0.146485ZM40.6465 135L22.6465 115.75H73.6465C86.1465 115.75 95.4798 113.083 101.646 107.75C107.813 102.417 110.896 95 110.896 85.5C110.896 75.8333 107.813 68.3333 101.646 63C95.4798 57.6667 86.1465 55 73.6465 55H22.6465L40.6465 35.75V135ZM241.816 199C227.483 199 214.733 196 203.566 190C192.566 184 183.816 175.833 177.316 165.5C170.983 155 167.816 143.083 167.816 129.75C167.816 116.25 170.983 104.333 177.316 94C183.816 83.5 192.566 75.3333 203.566 69.5C214.733 63.5 227.483 60.5 241.816 60.5C255.983 60.5 268.65 63.5 279.816 69.5C290.983 75.3333 299.733 83.4167 306.066 93.75C312.4 104.083 315.566 116.083 315.566 129.75C315.566 143.083 312.4 155 306.066 165.5C299.733 175.833 290.983 184 279.816 190C268.65 196 255.983 199 241.816 199ZM241.816 167C248.316 167 254.15 165.5 259.316 162.5C264.483 159.5 268.566 155.25 271.566 149.75C274.566 144.083 276.066 137.417 276.066 129.75C276.066 121.917 274.566 115.25 271.566 109.75C268.566 104.25 264.483 100 259.316 97C254.15 94 248.316 92.5 241.816 92.5C235.316 92.5 229.483 94 224.316 97C219.15 100 214.983 104.25 211.816 109.75C208.816 115.25 207.316 121.917 207.316 129.75C207.316 137.417 208.816 144.083 211.816 149.75C214.983 155.25 219.15 159.5 224.316 162.5C229.483 165.5 235.316 167 241.816 167ZM341.635 197V62.5H378.885V100.5L373.635 89.5C377.635 80 384.051 72.8333 392.885 68C401.718 63 412.468 60.5 425.135 60.5V96.5C423.468 96.3333 421.968 96.25 420.635 96.25C419.301 96.0833 417.885 96 416.385 96C405.718 96 397.051 99.0833 390.385 105.25C383.885 111.25 380.635 120.667 380.635 133.5V197H341.635ZM507.963 199C492.13 199 479.796 195 470.963 187C462.13 178.833 457.713 166.75 457.713 150.75V32.75H496.713V150.25C496.713 155.917 498.213 160.333 501.213 163.5C504.213 166.5 508.296 168 513.463 168C519.63 168 524.88 166.333 529.213 163L539.713 190.5C535.713 193.333 530.88 195.5 525.213 197C519.713 198.333 513.963 199 507.963 199ZM436.963 95.5V65.5H530.213V95.5H436.963ZM566.355 197V59.5C566.355 44.3333 570.855 32.25 579.855 23.25C588.855 14.0833 601.689 9.49999 618.355 9.49999C624.022 9.49999 629.439 10.0833 634.605 11.25C639.939 12.4167 644.439 14.25 648.105 16.75L637.855 45C635.689 43.5 633.272 42.3333 630.605 41.5C627.939 40.6667 625.105 40.25 622.105 40.25C616.439 40.25 612.022 41.9167 608.855 45.25C605.855 48.4167 604.355 53.25 604.355 59.75V72.25L605.355 89V197H566.355ZM545.605 95.5V65.5H638.855V95.5H545.605ZM720.576 199C706.243 199 693.493 196 682.326 190C671.326 184 662.576 175.833 656.076 165.5C649.743 155 646.576 143.083 646.576 129.75C646.576 116.25 649.743 104.333 656.076 94C662.576 83.5 671.326 75.3333 682.326 69.5C693.493 63.5 706.243 60.5 720.576 60.5C734.743 60.5 747.41 63.5 758.576 69.5C769.743 75.3333 778.493 83.4167 784.826 93.75C791.16 104.083 794.326 116.083 794.326 129.75C794.326 143.083 791.16 155 784.826 165.5C778.493 175.833 769.743 184 758.576 190C747.41 196 734.743 199 720.576 199ZM720.576 167C727.076 167 732.91 165.5 738.076 162.5C743.243 159.5 747.326 155.25 750.326 149.75C753.326 144.083 754.826 137.417 754.826 129.75C754.826 121.917 753.326 115.25 750.326 109.75C747.326 104.25 743.243 100 738.076 97C732.91 94 727.076 92.5 720.576 92.5C714.076 92.5 708.243 94 703.076 97C697.91 100 693.743 104.25 690.576 109.75C687.576 115.25 686.076 121.917 686.076 129.75C686.076 137.417 687.576 144.083 690.576 149.75C693.743 155.25 697.91 159.5 703.076 162.5C708.243 165.5 714.076 167 720.576 167ZM820.395 197V11.5H859.395V197H820.395ZM895.59 197V62.5H934.59V197H895.59ZM915.09 43.75C907.923 43.75 902.09 41.6667 897.59 37.5C893.09 33.3333 890.84 28.1667 890.84 22C890.84 15.8333 893.09 10.6667 897.59 6.49999C902.09 2.33332 907.923 0.249985 915.09 0.249985C922.257 0.249985 928.09 2.24999 932.59 6.25C937.09 10.0833 939.34 15.0833 939.34 21.25C939.34 27.75 937.09 33.1667 932.59 37.5C928.257 41.6667 922.423 43.75 915.09 43.75ZM1034.79 199C1020.45 199 1007.7 196 996.535 190C985.535 184 976.785 175.833 970.285 165.5C963.952 155 960.785 143.083 960.785 129.75C960.785 116.25 963.952 104.333 970.285 94C976.785 83.5 985.535 75.3333 996.535 69.5C1007.7 63.5 1020.45 60.5 1034.79 60.5C1048.95 60.5 1061.62 63.5 1072.79 69.5C1083.95 75.3333 1092.7 83.4167 1099.04 93.75C1105.37 104.083 1108.54 116.083 1108.54 129.75C1108.54 143.083 1105.37 155 1099.04 165.5C1092.7 175.833 1083.95 184 1072.79 190C1061.62 196 1048.95 199 1034.79 199ZM1034.79 167C1041.29 167 1047.12 165.5 1052.29 162.5C1057.45 159.5 1061.54 155.25 1064.54 149.75C1067.54 144.083 1069.04 137.417 1069.04 129.75C1069.04 121.917 1067.54 115.25 1064.54 109.75C1061.54 104.25 1057.45 100 1052.29 97C1047.12 94 1041.29 92.5 1034.79 92.5C1028.29 92.5 1022.45 94 1017.29 97C1012.12 100 1007.95 104.25 1004.79 109.75C1001.79 115.25 1000.29 121.917 1000.29 129.75C1000.29 137.417 1001.79 144.083 1004.79 149.75C1007.95 155.25 1012.12 159.5 1017.29 162.5C1022.45 165.5 1028.29 167 1034.79 167Z"/>
</mask>
<path d="M0.146486 197H-0.853514V198H0.146486V197ZM0.146486 22V21H-0.853514V22H0.146486ZM116.396 29.75L115.982 30.66L115.993 30.6649L116.396 29.75ZM142.646 51.5L141.808 52.0445L142.646 51.5ZM116.396 141.25L116.8 142.165L116.811 142.16L116.396 141.25ZM22.6465 148.75L21.9345 148.048L20.2556 149.75H22.6465V148.75ZM40.6465 130.5H41.6465V128.062L39.9345 129.798L40.6465 130.5ZM40.6465 197V198H41.6465V197H40.6465ZM40.6465 135L39.9161 135.683L41.6465 137.534V135H40.6465ZM22.6465 115.75V114.75H20.3424L21.9161 116.433L22.6465 115.75ZM22.6465 55L21.9161 54.317L20.3424 56H22.6465V55ZM40.6465 35.75H41.6465V33.2164L39.9161 35.067L40.6465 35.75ZM1.14649 197V22H-0.853514V197H1.14649ZM0.146486 23H75.8965V21H0.146486V23ZM75.8965 23C91.4558 23 104.808 25.5658 115.982 30.6599L116.811 28.8401C105.319 23.6008 91.6705 21 75.8965 21V23ZM115.993 30.6649C127.166 35.594 135.757 42.7229 141.808 52.0445L143.485 50.9555C137.203 41.2771 128.294 33.9059 116.8 28.8351L115.993 30.6649ZM141.808 52.0445C147.853 61.3574 150.896 72.4945 150.896 85.5H152.896C152.896 72.1722 149.773 60.6426 143.485 50.9555L141.808 52.0445ZM150.896 85.5C150.896 98.336 147.854 109.391 141.808 118.706L143.485 119.794C149.772 110.109 152.896 98.6639 152.896 85.5H150.896ZM141.808 118.706C135.755 128.03 127.16 135.244 115.982 140.34L116.811 142.16C128.3 136.922 137.205 129.47 143.485 119.794L141.808 118.706ZM115.993 140.335C104.816 145.266 91.4597 147.75 75.8965 147.75V149.75C91.6666 149.75 105.311 147.234 116.8 142.165L115.993 140.335ZM75.8965 147.75H22.6465V149.75H75.8965V147.75ZM23.3585 149.452L41.3585 131.202L39.9345 129.798L21.9345 148.048L23.3585 149.452ZM39.6465 130.5V197H41.6465V130.5H39.6465ZM40.6465 196H0.146486V198H40.6465V196ZM41.3769 134.317L23.3769 115.067L21.9161 116.433L39.9161 135.683L41.3769 134.317ZM22.6465 116.75H73.6465V114.75H22.6465V116.75ZM73.6465 116.75C86.2638 116.75 95.877 114.062 102.301 108.506L100.992 106.994C95.0826 112.105 86.0291 114.75 73.6465 114.75V116.75ZM102.301 108.506C108.724 102.951 111.896 95.2373 111.896 85.5H109.896C109.896 94.7627 106.902 101.882 100.992 106.994L102.301 108.506ZM111.896 85.5C111.896 75.6023 108.728 67.8026 102.301 62.2436L100.992 63.7564C106.898 68.8641 109.896 76.0644 109.896 85.5H111.896ZM102.301 62.2436C95.877 56.688 86.2638 54 73.6465 54V56C86.0291 56 95.0826 58.6453 100.992 63.7564L102.301 62.2436ZM73.6465 54H22.6465V56H73.6465V54ZM23.3769 55.683L41.3769 36.433L39.9161 35.067L21.9161 54.317L23.3769 55.683ZM39.6465 35.75V135H41.6465V35.75H39.6465ZM203.566 190L203.088 190.878L203.093 190.881L203.566 190ZM177.316 165.5L176.46 166.016L176.465 166.025L176.47 166.032L177.316 165.5ZM177.316 94L176.466 93.4736L176.464 93.4774L177.316 94ZM203.566 69.5L204.035 70.3835L204.04 70.3809L203.566 69.5ZM279.816 69.5L279.343 70.3809L279.353 70.3863L279.816 69.5ZM306.066 165.5L306.919 166.023L306.923 166.016L306.066 165.5ZM279.816 190L279.343 189.119L279.816 190ZM259.316 162.5L259.819 163.365L259.316 162.5ZM271.566 149.75L272.444 150.229L272.45 150.218L271.566 149.75ZM271.566 109.75L270.689 110.229L271.566 109.75ZM259.316 97L258.814 97.8648L259.316 97ZM224.316 97L224.819 97.8648L224.316 97ZM211.816 109.75L210.95 109.251L210.944 109.261L210.939 109.271L211.816 109.75ZM211.816 149.75L210.933 150.218L210.941 150.234L210.95 150.249L211.816 149.75ZM224.316 162.5L224.819 161.635L224.316 162.5ZM241.816 198C227.626 198 215.043 195.031 204.04 189.119L203.093 190.881C214.423 196.969 227.34 200 241.816 200V198ZM204.045 189.122C193.191 183.202 184.569 175.152 178.163 164.968L176.47 166.032C183.063 176.514 191.942 184.798 203.088 190.878L204.045 189.122ZM178.173 164.984C171.942 154.653 168.816 142.918 168.816 129.75H166.816C166.816 143.249 170.025 155.347 176.46 166.016L178.173 164.984ZM168.816 129.75C168.816 116.413 171.943 104.681 178.169 94.5226L176.464 93.4774C170.023 103.985 166.816 116.087 166.816 129.75H168.816ZM178.167 94.5263C184.573 84.1784 193.19 76.1344 204.035 70.3834L203.098 68.6165C191.943 74.5322 183.06 82.8216 176.466 93.4736L178.167 94.5263ZM204.04 70.3809C215.043 64.4688 227.626 61.5 241.816 61.5V59.5C227.34 59.5 214.423 62.5312 203.093 68.6191L204.04 70.3809ZM241.816 61.5C255.838 61.5 268.338 64.4679 279.343 70.3809L280.29 68.6191C268.961 62.5321 256.129 59.5 241.816 59.5V61.5ZM279.353 70.3863C290.366 76.1394 298.979 84.0998 305.214 94.2726L306.919 93.2274C300.487 82.7336 291.6 74.5273 280.279 68.6136L279.353 70.3863ZM305.214 94.2726C311.439 104.429 314.566 116.244 314.566 129.75H316.566C316.566 115.923 313.361 103.737 306.919 93.2274L305.214 94.2726ZM314.566 129.75C314.566 142.918 311.441 154.653 305.21 164.984L306.923 166.016C313.358 155.347 316.566 143.249 316.566 129.75H314.566ZM305.214 164.977C298.977 175.153 290.361 183.199 279.343 189.119L280.29 190.881C291.605 184.801 300.489 176.514 306.919 166.023L305.214 164.977ZM279.343 189.119C268.338 195.032 255.838 198 241.816 198V200C256.129 200 268.961 196.968 280.29 190.881L279.343 189.119ZM241.816 168C248.477 168 254.486 166.461 259.819 163.365L258.814 161.635C253.813 164.539 248.156 166 241.816 166V168ZM259.819 163.365C265.151 160.268 269.361 155.881 272.444 150.229L270.689 149.271C267.772 154.619 263.815 158.732 258.814 161.635L259.819 163.365ZM272.45 150.218C275.54 144.381 277.066 137.548 277.066 129.75H275.066C275.066 137.285 273.593 143.785 270.683 149.282L272.45 150.218ZM277.066 129.75C277.066 121.791 275.542 114.95 272.444 109.271L270.689 110.229C273.591 115.55 275.066 122.043 275.066 129.75H277.066ZM272.444 109.271C269.361 103.619 265.151 99.2316 259.819 96.1352L258.814 97.8648C263.815 100.768 267.772 104.881 270.689 110.229L272.444 109.271ZM259.819 96.1352C254.486 93.0389 248.477 91.5 241.816 91.5V93.5C248.156 93.5 253.813 94.9611 258.814 97.8648L259.819 96.1352ZM241.816 91.5C235.156 91.5 229.147 93.0389 223.814 96.1352L224.819 97.8648C229.819 94.9611 235.477 93.5 241.816 93.5V91.5ZM223.814 96.1352C218.487 99.2286 214.198 103.609 210.95 109.251L212.683 110.249C215.768 104.891 219.813 100.771 224.819 97.8648L223.814 96.1352ZM210.939 109.271C207.841 114.95 206.316 121.791 206.316 129.75H208.316C208.316 122.043 209.792 115.55 212.694 110.229L210.939 109.271ZM206.316 129.75C206.316 137.548 207.843 144.381 210.933 150.218L212.7 149.282C209.79 143.785 208.316 137.285 208.316 129.75H206.316ZM210.95 150.249C214.198 155.891 218.487 160.271 223.814 163.365L224.819 161.635C219.813 158.729 215.768 154.609 212.683 149.251L210.95 150.249ZM223.814 163.365C229.147 166.461 235.156 168 241.816 168V166C235.477 166 229.819 164.539 224.819 161.635L223.814 163.365ZM341.635 197H340.635V198H341.635V197ZM341.635 62.5V61.5H340.635V62.5H341.635ZM378.885 62.5H379.885V61.5H378.885V62.5ZM378.885 100.5L377.982 100.931L379.885 100.5H378.885ZM373.635 89.5L372.713 89.1119L372.539 89.5256L372.732 89.9307L373.635 89.5ZM392.885 68L393.365 68.8773L393.371 68.8738L393.377 68.8702L392.885 68ZM425.135 60.5H426.135V59.5H425.135V60.5ZM425.135 96.5L425.035 97.495L426.135 97.605V96.5H425.135ZM420.635 96.25L420.511 97.2423L420.573 97.25H420.635V96.25ZM390.385 105.25L391.063 105.985L391.064 105.984L390.385 105.25ZM380.635 197V198H381.635V197H380.635ZM342.635 197V62.5H340.635V197H342.635ZM341.635 63.5H378.885V61.5H341.635V63.5ZM377.885 62.5V100.5H379.885V62.5H377.885ZM379.787 100.069L374.537 89.0693L372.732 89.9307L377.982 100.931L379.787 100.069ZM374.556 89.8881C378.471 80.591 384.735 73.5994 393.365 68.8773L392.405 67.1227C383.368 72.0673 376.799 79.409 372.713 89.1119L374.556 89.8881ZM393.377 68.8702C402.028 63.9739 412.599 61.5 425.135 61.5V59.5C412.338 59.5 401.409 62.0261 392.392 67.1297L393.377 68.8702ZM424.135 60.5V96.5H426.135V60.5H424.135ZM425.234 95.505C423.543 95.3358 422.008 95.25 420.635 95.25V97.25C421.928 97.25 423.394 97.3309 425.035 97.495L425.234 95.505ZM420.759 95.2577C419.38 95.0854 417.922 95 416.385 95V97C417.848 97 419.223 97.0813 420.511 97.2423L420.759 95.2577ZM416.385 95C405.513 95 396.589 98.149 389.706 104.516L391.064 105.984C397.514 100.018 405.923 97 416.385 97V95ZM389.706 104.515C382.923 110.776 379.635 120.515 379.635 133.5H381.635C381.635 120.818 384.846 111.724 391.063 105.985L389.706 104.515ZM379.635 133.5V197H381.635V133.5H379.635ZM380.635 196H341.635V198H380.635V196ZM470.963 187L470.284 187.734L470.292 187.741L470.963 187ZM457.713 32.75V31.75H456.713V32.75H457.713ZM496.713 32.75H497.713V31.75H496.713V32.75ZM501.213 163.5L500.487 164.188L500.496 164.198L500.506 164.207L501.213 163.5ZM529.213 163L530.147 162.643L529.668 161.388L528.603 162.207L529.213 163ZM539.713 190.5L540.291 191.316L540.924 190.868L540.647 190.143L539.713 190.5ZM525.213 197L525.448 197.972L525.459 197.969L525.469 197.967L525.213 197ZM436.963 95.5H435.963V96.5H436.963V95.5ZM436.963 65.5V64.5H435.963V65.5H436.963ZM530.213 65.5H531.213V64.5H530.213V65.5ZM530.213 95.5V96.5H531.213V95.5H530.213ZM507.963 198C492.295 198 480.23 194.044 471.634 186.259L470.292 187.741C479.362 195.956 491.965 200 507.963 200V198ZM471.642 186.266C463.075 178.345 458.713 166.568 458.713 150.75H456.713C456.713 166.932 461.185 179.322 470.284 187.734L471.642 186.266ZM458.713 150.75V32.75H456.713V150.75H458.713ZM457.713 33.75H496.713V31.75H457.713V33.75ZM495.713 32.75V150.25H497.713V32.75H495.713ZM495.713 150.25C495.713 156.093 497.263 160.785 500.487 164.188L501.939 162.812C499.163 159.882 497.713 155.74 497.713 150.25H495.713ZM500.506 164.207C503.733 167.434 508.093 169 513.463 169V167C508.5 167 504.693 165.566 501.92 162.793L500.506 164.207ZM513.463 169C519.82 169 525.292 167.277 529.823 163.793L528.603 162.207C524.467 165.389 519.439 167 513.463 167V169ZM528.279 163.357L538.779 190.857L540.647 190.143L530.147 162.643L528.279 163.357ZM539.135 189.684C535.249 192.436 530.53 194.558 524.957 196.033L525.469 197.967C531.229 196.442 536.176 194.23 540.291 191.316L539.135 189.684ZM524.977 196.028C519.559 197.342 513.888 198 507.963 198V200C514.038 200 519.867 199.325 525.448 197.972L524.977 196.028ZM437.963 95.5V65.5H435.963V95.5H437.963ZM436.963 66.5H530.213V64.5H436.963V66.5ZM529.213 65.5V95.5H531.213V65.5H529.213ZM530.213 94.5H436.963V96.5H530.213V94.5ZM566.355 197H565.355V198H566.355V197ZM579.855 23.25L580.563 23.9571L580.569 23.9506L579.855 23.25ZM634.605 11.25L634.385 12.2255L634.392 12.2269L634.605 11.25ZM648.105 16.75L649.046 17.0911L649.31 16.3612L648.669 15.9238L648.105 16.75ZM637.855 45L637.286 45.8222L638.353 46.5607L638.796 45.3411L637.855 45ZM608.855 45.25L608.13 44.5612L608.13 44.5622L608.855 45.25ZM604.355 72.25H603.355V72.2798L603.357 72.3096L604.355 72.25ZM605.355 89H606.355V88.9702L606.354 88.9404L605.355 89ZM605.355 197V198H606.355V197H605.355ZM545.605 95.5H544.605V96.5H545.605V95.5ZM545.605 65.5V64.5H544.605V65.5H545.605ZM638.855 65.5H639.855V64.5H638.855V65.5ZM638.855 95.5V96.5H639.855V95.5H638.855ZM567.355 197V59.5H565.355V197H567.355ZM567.355 59.5C567.355 44.544 571.785 32.7342 580.563 23.9571L579.148 22.5429C569.926 31.7657 565.355 44.1226 565.355 59.5H567.355ZM580.569 23.9506C589.33 15.0278 601.874 10.5 618.355 10.5V8.49998C601.504 8.49998 588.381 13.1389 579.142 22.5494L580.569 23.9506ZM618.355 10.5C623.953 10.5 629.296 11.0762 634.385 12.2254L634.826 10.2746C629.582 9.09047 624.091 8.49998 618.355 8.49998V10.5ZM634.392 12.2269C639.628 13.3723 644.003 15.1629 647.542 17.5762L648.669 15.9238C644.875 13.3371 640.25 11.461 634.819 10.2731L634.392 12.2269ZM647.165 16.4089L636.915 44.6589L638.796 45.3411L649.046 17.0911L647.165 16.4089ZM638.425 44.1778C636.17 42.6169 633.661 41.4072 630.904 40.5455L630.307 42.4545C632.883 43.2595 635.208 44.3831 637.286 45.8222L638.425 44.1778ZM630.904 40.5455C628.134 39.6799 625.199 39.25 622.105 39.25V41.25C625.012 41.25 627.744 41.6535 630.307 42.4545L630.904 40.5455ZM622.105 39.25C616.233 39.25 611.528 40.9846 608.13 44.5612L609.58 45.9387C612.516 42.8487 616.645 41.25 622.105 41.25V39.25ZM608.13 44.5622C604.884 47.9881 603.355 53.1174 603.355 59.75H605.355C605.355 53.3826 606.827 48.8452 609.581 45.9377L608.13 44.5622ZM603.355 59.75V72.25H605.355V59.75H603.355ZM603.357 72.3096L604.357 89.0596L606.354 88.9404L605.354 72.1904L603.357 72.3096ZM604.355 89V197H606.355V89H604.355ZM605.355 196H566.355V198H605.355V196ZM546.605 95.5V65.5H544.605V95.5H546.605ZM545.605 66.5H638.855V64.5H545.605V66.5ZM637.855 65.5V95.5H639.855V65.5H637.855ZM638.855 94.5H545.605V96.5H638.855V94.5ZM682.326 190L681.847 190.878L681.853 190.881L682.326 190ZM656.076 165.5L655.22 166.016L655.225 166.025L655.23 166.032L656.076 165.5ZM656.076 94L655.226 93.4736L655.224 93.4774L656.076 94ZM682.326 69.5L682.795 70.3835L682.799 70.3809L682.326 69.5ZM758.576 69.5L758.103 70.3809L758.113 70.3863L758.576 69.5ZM784.826 165.5L785.679 166.023L785.682 166.016L784.826 165.5ZM758.576 190L758.103 189.119L758.576 190ZM738.076 162.5L738.578 163.365L738.076 162.5ZM750.326 149.75L751.204 150.229L751.21 150.218L750.326 149.75ZM750.326 109.75L749.448 110.229L750.326 109.75ZM738.076 97L737.574 97.8648L738.076 97ZM703.076 97L703.578 97.8648L703.076 97ZM690.576 109.75L689.71 109.251L689.704 109.261L689.698 109.271L690.576 109.75ZM690.576 149.75L689.692 150.218L689.701 150.234L689.71 150.249L690.576 149.75ZM703.076 162.5L703.578 161.635L703.076 162.5ZM720.576 198C706.386 198 693.803 195.031 682.799 189.119L681.853 190.881C693.183 196.969 706.1 200 720.576 200V198ZM682.805 189.122C671.951 183.202 663.329 175.152 656.923 164.968L655.23 166.032C661.823 176.514 670.701 184.798 681.847 190.878L682.805 189.122ZM656.932 164.984C650.701 154.653 647.576 142.918 647.576 129.75H645.576C645.576 143.249 648.784 155.347 655.22 166.016L656.932 164.984ZM647.576 129.75C647.576 116.413 650.703 104.681 656.929 94.5226L655.224 93.4774C648.783 103.985 645.576 116.087 645.576 129.75H647.576ZM656.926 94.5263C663.332 84.1784 671.95 76.1344 682.795 70.3834L681.858 68.6165C670.702 74.5322 661.82 82.8216 655.226 93.4736L656.926 94.5263ZM682.799 70.3809C693.803 64.4688 706.386 61.5 720.576 61.5V59.5C706.1 59.5 693.183 62.5312 681.853 68.6191L682.799 70.3809ZM720.576 61.5C734.597 61.5 747.098 64.4679 758.103 70.3809L759.049 68.6191C747.721 62.5321 734.888 59.5 720.576 59.5V61.5ZM758.113 70.3863C769.126 76.1394 777.739 84.0998 783.974 94.2726L785.679 93.2274C779.247 82.7336 770.36 74.5273 759.039 68.6136L758.113 70.3863ZM783.974 94.2726C790.199 104.429 793.326 116.244 793.326 129.75H795.326C795.326 115.923 792.12 103.737 785.679 93.2274L783.974 94.2726ZM793.326 129.75C793.326 142.918 790.201 154.653 783.97 164.984L785.682 166.016C792.118 155.347 795.326 143.249 795.326 129.75H793.326ZM783.974 164.977C777.737 175.153 769.121 183.199 758.103 189.119L759.049 190.881C770.365 184.801 779.249 176.514 785.679 166.023L783.974 164.977ZM758.103 189.119C747.098 195.032 734.597 198 720.576 198V200C734.888 200 747.721 196.968 759.049 190.881L758.103 189.119ZM720.576 168C727.237 168 733.246 166.461 738.578 163.365L737.574 161.635C732.573 164.539 726.916 166 720.576 166V168ZM738.578 163.365C743.911 160.268 748.121 155.881 751.204 150.229L749.448 149.271C746.531 154.619 742.575 158.732 737.574 161.635L738.578 163.365ZM751.21 150.218C754.3 144.381 755.826 137.548 755.826 129.75H753.826C753.826 137.285 752.352 143.785 749.442 149.282L751.21 150.218ZM755.826 129.75C755.826 121.791 754.302 114.95 751.204 109.271L749.448 110.229C752.351 115.55 753.826 122.043 753.826 129.75H755.826ZM751.204 109.271C748.121 103.619 743.911 99.2316 738.578 96.1352L737.574 97.8648C742.575 100.768 746.531 104.881 749.448 110.229L751.204 109.271ZM738.578 96.1352C733.246 93.0389 727.237 91.5 720.576 91.5V93.5C726.916 93.5 732.573 94.9611 737.574 97.8648L738.578 96.1352ZM720.576 91.5C713.916 91.5 707.906 93.0389 702.574 96.1352L703.578 97.8648C708.579 94.9611 714.237 93.5 720.576 93.5V91.5ZM702.574 96.1352C697.246 99.2286 692.958 103.609 689.71 109.251L691.443 110.249C694.528 104.891 698.573 100.771 703.578 97.8648L702.574 96.1352ZM689.698 109.271C686.601 114.95 685.076 121.791 685.076 129.75H687.076C687.076 122.043 688.552 115.55 691.454 110.229L689.698 109.271ZM685.076 129.75C685.076 137.548 686.602 144.381 689.692 150.218L691.46 149.282C688.55 143.785 687.076 137.285 687.076 129.75H685.076ZM689.71 150.249C692.958 155.891 697.246 160.271 702.574 163.365L703.578 161.635C698.573 158.729 694.528 154.609 691.443 149.251L689.71 150.249ZM702.574 163.365C707.906 166.461 713.916 168 720.576 168V166C714.237 166 708.579 164.539 703.578 161.635L702.574 163.365ZM820.395 197H819.395V198H820.395V197ZM820.395 11.5V10.5H819.395V11.5H820.395ZM859.395 11.5H860.395V10.5H859.395V11.5ZM859.395 197V198H860.395V197H859.395ZM821.395 197V11.5H819.395V197H821.395ZM820.395 12.5H859.395V10.5H820.395V12.5ZM858.395 11.5V197H860.395V11.5H858.395ZM859.395 196H820.395V198H859.395V196ZM895.59 197H894.59V198H895.59V197ZM895.59 62.5V61.5H894.59V62.5H895.59ZM934.59 62.5H935.59V61.5H934.59V62.5ZM934.59 197V198H935.59V197H934.59ZM897.59 37.5L896.91 38.2338L897.59 37.5ZM897.59 6.49999L898.269 7.23376V7.23375L897.59 6.49999ZM932.59 6.25L931.925 6.99741L931.933 7.00441L931.941 7.01124L932.59 6.25ZM932.59 37.5L933.283 38.2208L933.284 38.2203L932.59 37.5ZM896.59 197V62.5H894.59V197H896.59ZM895.59 63.5H934.59V61.5H895.59V63.5ZM933.59 62.5V197H935.59V62.5H933.59ZM934.59 196H895.59V198H934.59V196ZM915.09 42.75C908.13 42.75 902.554 40.7333 898.269 36.7662L896.91 38.2338C901.626 42.6001 907.717 44.75 915.09 44.75V42.75ZM898.269 36.7662C893.975 32.79 891.84 27.8898 891.84 22H889.84C889.84 28.4435 892.205 33.8766 896.91 38.2338L898.269 36.7662ZM891.84 22C891.84 16.1101 893.975 11.21 898.269 7.23376L896.91 5.76623C892.205 10.1233 889.84 15.5565 889.84 22H891.84ZM898.269 7.23375C902.554 3.26671 908.13 1.24998 915.09 1.24998V-0.750015C907.717 -0.750015 901.626 1.39993 896.91 5.76623L898.269 7.23375ZM915.09 1.24998C922.061 1.24998 927.642 3.19004 931.925 6.99741L933.254 5.50259C928.537 1.30994 922.452 -0.750015 915.09 -0.750015V1.24998ZM931.941 7.01124C936.208 10.6454 938.34 15.3618 938.34 21.25H940.34C940.34 14.8048 937.972 9.52128 933.238 5.48875L931.941 7.01124ZM938.34 21.25C938.34 27.4906 936.192 32.6432 931.896 36.7797L933.284 38.2203C937.988 33.6901 940.34 28.0094 940.34 21.25H938.34ZM931.897 36.7792C927.789 40.729 922.225 42.75 915.09 42.75V44.75C922.621 44.75 928.724 42.6044 933.283 38.2208L931.897 36.7792ZM996.535 190L996.056 190.878L996.062 190.881L996.535 190ZM970.285 165.5L969.429 166.016L969.434 166.025L969.439 166.032L970.285 165.5ZM970.285 94L969.435 93.4736L969.433 93.4774L970.285 94ZM996.535 69.5L997.004 70.3835L997.008 70.3809L996.535 69.5ZM1072.79 69.5L1072.31 70.3809L1072.32 70.3863L1072.79 69.5ZM1099.04 165.5L1099.89 166.023L1099.89 166.016L1099.04 165.5ZM1072.79 190L1072.31 189.119L1072.79 190ZM1052.29 162.5L1052.79 163.365L1052.29 162.5ZM1064.54 149.75L1065.41 150.229L1065.42 150.218L1064.54 149.75ZM1064.54 109.75L1063.66 110.229L1064.54 109.75ZM1052.29 97L1051.78 97.8648L1052.29 97ZM1017.29 97L1017.79 97.8648L1017.29 97ZM1004.79 109.75L1003.92 109.251L1003.91 109.261L1003.91 109.271L1004.79 109.75ZM1004.79 149.75L1003.9 150.218L1003.91 150.234L1003.92 150.249L1004.79 149.75ZM1017.29 162.5L1017.79 161.635L1017.29 162.5ZM1034.79 198C1020.6 198 1008.01 195.031 997.008 189.119L996.062 190.881C1007.39 196.969 1020.31 200 1034.79 200V198ZM997.014 189.122C986.16 183.202 977.538 175.152 971.132 164.968L969.439 166.032C976.032 176.514 984.91 184.798 996.056 190.878L997.014 189.122ZM971.141 164.984C964.91 154.653 961.785 142.918 961.785 129.75H959.785C959.785 143.249 962.993 155.347 969.429 166.016L971.141 164.984ZM961.785 129.75C961.785 116.413 964.911 104.681 971.138 94.5226L969.433 93.4774C962.992 103.985 959.785 116.087 959.785 129.75H961.785ZM971.135 94.5263C977.541 84.1784 986.159 76.1344 997.004 70.3834L996.067 68.6165C984.911 74.5322 976.029 82.8216 969.435 93.4736L971.135 94.5263ZM997.008 70.3809C1008.01 64.4688 1020.6 61.5 1034.79 61.5V59.5C1020.31 59.5 1007.39 62.5312 996.062 68.6191L997.008 70.3809ZM1034.79 61.5C1048.81 61.5 1061.31 64.4679 1072.31 70.3809L1073.26 68.6191C1061.93 62.5321 1049.1 59.5 1034.79 59.5V61.5ZM1072.32 70.3863C1083.34 76.1394 1091.95 84.0998 1098.18 94.2726L1099.89 93.2274C1093.46 82.7336 1084.57 74.5273 1073.25 68.6136L1072.32 70.3863ZM1098.18 94.2726C1104.41 104.429 1107.54 116.244 1107.54 129.75H1109.54C1109.54 115.923 1106.33 103.737 1099.89 93.2274L1098.18 94.2726ZM1107.54 129.75C1107.54 142.918 1104.41 154.653 1098.18 164.984L1099.89 166.016C1106.33 155.347 1109.54 143.249 1109.54 129.75H1107.54ZM1098.18 164.977C1091.95 175.153 1083.33 183.199 1072.31 189.119L1073.26 190.881C1084.57 184.801 1093.46 176.514 1099.89 166.023L1098.18 164.977ZM1072.31 189.119C1061.31 195.032 1048.81 198 1034.79 198V200C1049.1 200 1061.93 196.968 1073.26 190.881L1072.31 189.119ZM1034.79 168C1041.45 168 1047.45 166.461 1052.79 163.365L1051.78 161.635C1046.78 164.539 1041.12 166 1034.79 166V168ZM1052.79 163.365C1058.12 160.268 1062.33 155.881 1065.41 150.229L1063.66 149.271C1060.74 154.619 1056.78 158.732 1051.78 161.635L1052.79 163.365ZM1065.42 150.218C1068.51 144.381 1070.04 137.548 1070.04 129.75H1068.04C1068.04 137.285 1066.56 143.785 1063.65 149.282L1065.42 150.218ZM1070.04 129.75C1070.04 121.791 1068.51 114.95 1065.41 109.271L1063.66 110.229C1066.56 115.55 1068.04 122.043 1068.04 129.75H1070.04ZM1065.41 109.271C1062.33 103.619 1058.12 99.2316 1052.79 96.1352L1051.78 97.8648C1056.78 100.768 1060.74 104.881 1063.66 110.229L1065.41 109.271ZM1052.79 96.1352C1047.45 93.0389 1041.45 91.5 1034.79 91.5V93.5C1041.12 93.5 1046.78 94.9611 1051.78 97.8648L1052.79 96.1352ZM1034.79 91.5C1028.12 91.5 1022.12 93.0389 1016.78 96.1352L1017.79 97.8648C1022.79 94.9611 1028.45 93.5 1034.79 93.5V91.5ZM1016.78 96.1352C1011.46 99.2286 1007.17 103.609 1003.92 109.251L1005.65 110.249C1008.74 104.891 1012.78 100.771 1017.79 97.8648L1016.78 96.1352ZM1003.91 109.271C1000.81 114.95 999.285 121.791 999.285 129.75H1001.29C1001.29 122.043 1002.76 115.55 1005.66 110.229L1003.91 109.271ZM999.285 129.75C999.285 137.548 1000.81 144.381 1003.9 150.218L1005.67 149.282C1002.76 143.785 1001.29 137.285 1001.29 129.75H999.285ZM1003.92 150.249C1007.17 155.891 1011.46 160.271 1016.78 163.365L1017.79 161.635C1012.78 158.729 1008.74 154.609 1005.65 149.251L1003.92 150.249ZM1016.78 163.365C1022.12 166.461 1028.12 168 1034.79 168V166C1028.45 166 1022.79 164.539 1017.79 161.635L1016.78 163.365Z" fill="#9F9F9F" mask="url(#path-1-outside-1_112_203)"/>
</svg>
