<svg width="1058" height="199" viewBox="0 0 1058 199" fill="none" xmlns="http://www.w3.org/2000/svg">
<mask id="path-1-outside-1_112_322" maskUnits="userSpaceOnUse" x="-1" y="-1" width="1060" height="201" fill="black">
<rect fill="white" x="-1" y="-1" width="1060" height="201"/>
<path d="M0.757814 197V22H76.5078C92.1745 22 105.674 24.5833 117.008 29.75C128.341 34.75 137.091 42 143.258 51.5C149.424 61 152.508 72.3333 152.508 85.5C152.508 98.5 149.424 109.75 143.258 119.25C137.091 128.583 128.341 135.75 117.008 140.75C105.674 145.75 92.1745 148.25 76.5078 148.25H23.2578L41.2578 130.5V197H0.757814ZM112.008 197L68.2578 133.5H111.508L155.758 197H112.008ZM41.2578 135L23.2578 116H74.2578C86.7578 116 96.0912 113.333 102.258 108C108.424 102.5 111.508 95 111.508 85.5C111.508 75.8333 108.424 68.3333 102.258 63C96.0912 57.6667 86.7578 55 74.2578 55H23.2578L41.2578 35.75V135ZM248.596 199C233.262 199 219.762 196 208.096 190C196.596 184 187.679 175.833 181.346 165.5C175.012 155 171.846 143.083 171.846 129.75C171.846 116.25 174.929 104.333 181.096 94C187.429 83.5 196.012 75.3333 206.846 69.5C217.679 63.5 229.929 60.5 243.596 60.5C256.762 60.5 268.596 63.3333 279.096 69C289.762 74.5 298.179 82.5 304.346 93C310.512 103.333 313.596 115.75 313.596 130.25C313.596 131.75 313.512 133.5 313.346 135.5C313.179 137.333 313.012 139.083 312.846 140.75H203.596V118H292.346L277.346 124.75C277.346 117.75 275.929 111.667 273.096 106.5C270.262 101.333 266.346 97.3333 261.346 94.5C256.346 91.5 250.512 90 243.846 90C237.179 90 231.262 91.5 226.096 94.5C221.096 97.3333 217.179 101.417 214.346 106.75C211.512 111.917 210.096 118.083 210.096 125.25V131.25C210.096 138.583 211.679 145.083 214.846 150.75C218.179 156.25 222.762 160.5 228.596 163.5C234.596 166.333 241.596 167.75 249.596 167.75C256.762 167.75 263.012 166.667 268.346 164.5C273.846 162.333 278.846 159.083 283.346 154.75L304.096 177.25C297.929 184.25 290.179 189.667 280.846 193.5C271.512 197.167 260.762 199 248.596 199ZM373.619 197L317.119 62.5H357.369L404.369 178.25H384.369L433.119 62.5H470.619L413.869 197H373.619ZM486.533 197V62.5H525.533V197H486.533ZM506.033 43.75C498.867 43.75 493.033 41.6667 488.533 37.5C484.033 33.3333 481.783 28.1667 481.783 22C481.783 15.8333 484.033 10.6667 488.533 6.49999C493.033 2.33332 498.867 0.249985 506.033 0.249985C513.2 0.249985 519.033 2.24999 523.533 6.25C528.033 10.0833 530.283 15.0833 530.283 21.25C530.283 27.75 528.033 33.1667 523.533 37.5C519.2 41.6667 513.367 43.75 506.033 43.75ZM628.479 199C613.145 199 599.645 196 587.979 190C576.479 184 567.562 175.833 561.229 165.5C554.895 155 551.729 143.083 551.729 129.75C551.729 116.25 554.812 104.333 560.979 94C567.312 83.5 575.895 75.3333 586.729 69.5C597.562 63.5 609.812 60.5 623.479 60.5C636.645 60.5 648.479 63.3333 658.979 69C669.645 74.5 678.062 82.5 684.229 93C690.395 103.333 693.479 115.75 693.479 130.25C693.479 131.75 693.395 133.5 693.229 135.5C693.062 137.333 692.895 139.083 692.729 140.75H583.479V118H672.229L657.229 124.75C657.229 117.75 655.812 111.667 652.979 106.5C650.145 101.333 646.229 97.3333 641.229 94.5C636.229 91.5 630.395 90 623.729 90C617.062 90 611.145 91.5 605.979 94.5C600.979 97.3333 597.062 101.417 594.229 106.75C591.395 111.917 589.979 118.083 589.979 125.25V131.25C589.979 138.583 591.562 145.083 594.729 150.75C598.062 156.25 602.645 160.5 608.479 163.5C614.479 166.333 621.479 167.75 629.479 167.75C636.645 167.75 642.895 166.667 648.229 164.5C653.729 162.333 658.729 159.083 663.229 154.75L683.979 177.25C677.812 184.25 670.062 189.667 660.729 193.5C651.395 197.167 640.645 199 628.479 199ZM747.752 197L699.252 62.5H736.002L776.252 178.25H758.752L800.752 62.5H833.752L874.502 178.25H857.002L898.502 62.5H933.002L884.252 197H846.502L810.752 97.75H822.252L785.252 197H747.752ZM994.43 199C982.93 199 971.846 197.667 961.18 195C950.68 192.167 942.346 188.667 936.18 184.5L949.18 156.5C955.346 160.333 962.596 163.5 970.93 166C979.43 168.333 987.763 169.5 995.93 169.5C1004.93 169.5 1011.26 168.417 1014.93 166.25C1018.76 164.083 1020.68 161.083 1020.68 157.25C1020.68 154.083 1019.18 151.75 1016.18 150.25C1013.35 148.583 1009.51 147.333 1004.68 146.5C999.846 145.667 994.513 144.833 988.68 144C983.013 143.167 977.263 142.083 971.43 140.75C965.596 139.25 960.263 137.083 955.43 134.25C950.596 131.417 946.68 127.583 943.68 122.75C940.846 117.917 939.43 111.667 939.43 104C939.43 95.5 941.846 88 946.68 81.5C951.68 75 958.846 69.9167 968.18 66.25C977.513 62.4167 988.68 60.5 1001.68 60.5C1010.85 60.5 1020.18 61.5 1029.68 63.5C1039.18 65.5 1047.1 68.4167 1053.43 72.25L1040.43 100C1033.93 96.1667 1027.35 93.5833 1020.68 92.25C1014.18 90.75 1007.85 90 1001.68 90C993.013 90 986.68 91.1667 982.68 93.5C978.68 95.8333 976.68 98.8333 976.68 102.5C976.68 105.833 978.096 108.333 980.93 110C983.93 111.667 987.846 113 992.68 114C997.513 115 1002.76 115.917 1008.43 116.75C1014.26 117.417 1020.1 118.5 1025.93 120C1031.76 121.5 1037.01 123.667 1041.68 126.5C1046.51 129.167 1050.43 132.917 1053.43 137.75C1056.43 142.417 1057.93 148.583 1057.93 156.25C1057.93 164.583 1055.43 172 1050.43 178.5C1045.43 184.833 1038.18 189.833 1028.68 193.5C1019.35 197.167 1007.93 199 994.43 199Z"/>
</mask>
<path d="M0.757812 197H-0.242188V198H0.757812V197ZM0.757812 22V21H-0.242188V22H0.757812ZM117.008 29.75L116.593 30.66L116.604 30.6649L117.008 29.75ZM143.258 51.5L142.419 52.0445L143.258 51.5ZM143.258 119.25L144.092 119.801L144.097 119.794L143.258 119.25ZM117.008 140.75L117.411 141.665L117.008 140.75ZM23.2578 148.25L22.5557 147.538L20.8195 149.25H23.2578V148.25ZM41.2578 130.5H42.2578V128.109L40.5557 129.788L41.2578 130.5ZM41.2578 197V198H42.2578V197H41.2578ZM112.008 197L111.184 197.567L111.482 198H112.008V197ZM68.2578 133.5V132.5H66.3545L67.4343 134.067L68.2578 133.5ZM111.508 133.5L112.328 132.928L112.03 132.5H111.508V133.5ZM155.758 197V198H157.674L156.578 196.428L155.758 197ZM41.2578 135L40.5319 135.688L42.2578 137.51V135H41.2578ZM23.2578 116V115H20.9329L22.5319 116.688L23.2578 116ZM102.258 108L102.912 108.756L102.918 108.751L102.923 108.746L102.258 108ZM23.2578 55L22.5274 54.317L20.9537 56H23.2578V55ZM41.2578 35.75H42.2578V33.2164L40.5274 35.067L41.2578 35.75ZM1.75781 197V22H-0.242188V197H1.75781ZM0.757812 23H76.5078V21H0.757812V23ZM76.5078 23C92.0671 23 105.419 25.5658 116.593 30.6599L117.423 28.8401C105.93 23.6008 92.2818 21 76.5078 21V23ZM116.604 30.6649C127.777 35.594 136.368 42.7229 142.419 52.0445L144.097 50.9555C137.814 41.2771 128.905 33.9059 117.411 28.8351L116.604 30.6649ZM142.419 52.0445C148.464 61.3574 151.508 72.4945 151.508 85.5H153.508C153.508 72.1722 150.385 60.6426 144.097 50.9555L142.419 52.0445ZM151.508 85.5C151.508 98.336 148.466 109.391 142.419 118.706L144.097 119.794C150.383 110.109 153.508 98.6639 153.508 85.5H151.508ZM142.423 118.699C136.374 127.855 127.782 134.904 116.604 139.835L117.411 141.665C128.901 136.596 137.809 129.312 144.092 119.801L142.423 118.699ZM116.604 139.835C105.427 144.766 92.071 147.25 76.5078 147.25V149.25C92.278 149.25 105.922 146.734 117.411 141.665L116.604 139.835ZM76.5078 147.25H23.2578V149.25H76.5078V147.25ZM23.96 148.962L41.96 131.212L40.5557 129.788L22.5557 147.538L23.96 148.962ZM40.2578 130.5V197H42.2578V130.5H40.2578ZM41.2578 196H0.757812V198H41.2578V196ZM112.831 196.433L69.0813 132.933L67.4343 134.067L111.184 197.567L112.831 196.433ZM68.2578 134.5H111.508V132.5H68.2578V134.5ZM110.687 134.072L154.937 197.572L156.578 196.428L112.328 132.928L110.687 134.072ZM155.758 196H112.008V198H155.758V196ZM41.9838 134.312L23.9838 115.312L22.5319 116.688L40.5319 135.688L41.9838 134.312ZM23.2578 117H74.2578V115H23.2578V117ZM74.2578 117C86.8752 117 96.4883 114.312 102.912 108.756L101.604 107.244C95.694 112.355 86.6405 115 74.2578 115V117ZM102.923 108.746C109.336 103.027 112.508 95.2379 112.508 85.5H110.508C110.508 94.7621 107.513 101.973 101.592 107.254L102.923 108.746ZM112.508 85.5C112.508 75.6023 109.339 67.8026 102.912 62.2436L101.604 63.7564C107.509 68.8641 110.508 76.0644 110.508 85.5H112.508ZM102.912 62.2436C96.4883 56.688 86.8752 54 74.2578 54V56C86.6405 56 95.694 58.6453 101.604 63.7564L102.912 62.2436ZM74.2578 54H23.2578V56H74.2578V54ZM23.9882 55.683L41.9882 36.433L40.5274 35.067L22.5274 54.317L23.9882 55.683ZM40.2578 35.75V135H42.2578V35.75H40.2578ZM208.096 190L207.633 190.887L207.638 190.889L208.096 190ZM181.346 165.5L180.489 166.017L180.493 166.023L181.346 165.5ZM181.096 94L180.239 93.4835L180.237 93.4875L181.096 94ZM206.846 69.5L207.32 70.3805L207.33 70.3748L206.846 69.5ZM279.096 69L278.621 69.88L278.629 69.8845L278.637 69.8888L279.096 69ZM304.346 93L303.483 93.5064L303.487 93.5125L304.346 93ZM313.346 135.5L314.342 135.591L314.342 135.583L313.346 135.5ZM312.846 140.75V141.75H313.751L313.841 140.85L312.846 140.75ZM203.596 140.75H202.596V141.75H203.596V140.75ZM203.596 118V117H202.596V118H203.596ZM292.346 118L292.756 118.912L292.346 117V118ZM277.346 124.75H276.346V126.297L277.756 125.662L277.346 124.75ZM273.096 106.5L272.219 106.981L273.096 106.5ZM261.346 94.5L260.831 95.3575L260.842 95.3639L260.853 95.37L261.346 94.5ZM226.096 94.5L226.589 95.3701L226.598 95.3648L226.096 94.5ZM214.346 106.75L215.223 107.231L215.229 107.219L214.346 106.75ZM214.846 150.75L213.973 151.238L213.981 151.253L213.991 151.268L214.846 150.75ZM228.596 163.5L228.138 164.389L228.153 164.397L228.169 164.404L228.596 163.5ZM268.346 164.5L267.979 163.57L267.969 163.574L268.346 164.5ZM283.346 154.75L284.081 154.072L283.388 153.321L282.652 154.03L283.346 154.75ZM304.096 177.25L304.846 177.911L305.442 177.235L304.831 176.572L304.096 177.25ZM280.846 193.5L281.211 194.431L281.219 194.428L281.226 194.425L280.846 193.5ZM248.596 198C233.395 198 220.056 195.027 208.553 189.111L207.638 190.889C219.469 196.973 233.13 200 248.596 200V198ZM208.558 189.113C197.207 183.191 188.43 175.145 182.198 164.977L180.493 166.023C186.928 176.521 195.984 184.809 207.633 190.887L208.558 189.113ZM182.202 164.984C175.971 154.653 172.846 142.918 172.846 129.75H170.846C170.846 143.249 174.054 155.347 180.489 166.016L182.202 164.984ZM172.846 129.75C172.846 116.408 175.891 104.673 181.954 94.5125L180.237 93.4875C173.967 103.994 170.846 116.092 170.846 129.75H172.846ZM181.952 94.5165C188.192 84.1704 196.644 76.1292 207.32 70.3805L206.372 68.6195C195.381 74.5375 186.666 82.8296 180.239 93.4835L181.952 94.5165ZM207.33 70.3748C218 64.4652 230.081 61.5 243.596 61.5V59.5C229.777 59.5 217.358 62.5348 206.361 68.6252L207.33 70.3748ZM243.596 61.5C256.614 61.5 268.281 64.3 278.621 69.88L279.571 68.12C268.91 62.3666 256.911 59.5 243.596 59.5V61.5ZM278.637 69.8888C289.133 75.3008 297.411 83.167 303.483 93.5064L305.208 92.4936C298.947 81.833 290.391 73.6992 279.554 68.1112L278.637 69.8888ZM303.487 93.5125C309.544 103.662 312.596 115.893 312.596 130.25H314.596C314.596 115.607 311.481 103.005 305.204 92.4875L303.487 93.5125ZM312.596 130.25C312.596 131.715 312.514 133.436 312.349 135.417L314.342 135.583C314.51 133.564 314.596 131.785 314.596 130.25H312.596ZM312.35 135.409C312.183 137.24 312.017 138.987 311.851 140.65L313.841 140.85C314.008 139.18 314.175 137.427 314.342 135.591L312.35 135.409ZM312.846 139.75H203.596V141.75H312.846V139.75ZM204.596 140.75V118H202.596V140.75H204.596ZM203.596 119H292.346V117H203.596V119ZM291.935 117.088L276.935 123.838L277.756 125.662L292.756 118.912L291.935 117.088ZM278.346 124.75C278.346 117.613 276.901 111.359 273.973 106.019L272.219 106.981C274.957 111.975 276.346 117.886 276.346 124.75H278.346ZM273.973 106.019C271.052 100.694 267.005 96.5573 261.839 93.63L260.853 95.37C265.687 98.1094 269.472 101.973 272.219 106.981L273.973 106.019ZM261.86 93.6425C256.684 90.5365 250.667 89 243.846 89V91C250.358 91 256.008 92.4635 260.831 95.3575L261.86 93.6425ZM243.846 89C237.024 89 230.93 90.5367 225.594 93.6352L226.598 95.3648C231.595 92.4633 237.335 91 243.846 91V89ZM225.603 93.63C220.429 96.562 216.38 100.788 213.463 106.281L215.229 107.219C217.978 102.045 221.763 98.1047 226.589 95.37L225.603 93.63ZM213.469 106.269C210.539 111.612 209.096 117.951 209.096 125.25H211.096C211.096 118.215 212.486 112.221 215.223 107.231L213.469 106.269ZM209.096 125.25V131.25H211.096V125.25H209.096ZM209.096 131.25C209.096 138.732 210.712 145.404 213.973 151.238L215.719 150.262C212.646 144.763 211.096 138.435 211.096 131.25H209.096ZM213.991 151.268C217.422 156.93 222.144 161.307 228.138 164.389L229.053 162.611C223.381 159.693 218.936 155.57 215.701 150.232L213.991 151.268ZM228.169 164.404C234.327 167.312 241.478 168.75 249.596 168.75V166.75C241.713 166.75 234.865 165.354 229.023 162.596L228.169 164.404ZM249.596 168.75C256.861 168.75 263.244 167.652 268.722 165.426L267.969 163.574C262.781 165.681 256.664 166.75 249.596 166.75V168.75ZM268.712 165.43C274.341 163.213 279.451 159.889 284.039 155.47L282.652 154.03C278.241 158.277 273.351 161.454 267.979 163.57L268.712 165.43ZM282.611 155.428L303.361 177.928L304.831 176.572L284.081 154.072L282.611 155.428ZM303.345 176.589C297.288 183.464 289.669 188.795 280.466 192.575L281.226 194.425C290.689 190.538 298.57 185.036 304.846 177.911L303.345 176.589ZM280.48 192.569C271.285 196.182 260.663 198 248.596 198V200C260.862 200 271.74 198.152 281.211 194.431L280.48 192.569ZM373.619 197L372.697 197.387L372.955 198H373.619V197ZM317.119 62.5V61.5H315.614L316.197 62.8873L317.119 62.5ZM357.369 62.5L358.296 62.1238L358.042 61.5H357.369V62.5ZM404.369 178.25V179.25H405.854L405.296 177.874L404.369 178.25ZM384.369 178.25L383.448 177.862L382.863 179.25H384.369V178.25ZM433.119 62.5V61.5H432.455L432.198 62.1118L433.119 62.5ZM470.619 62.5L471.54 62.8887L472.126 61.5H470.619V62.5ZM413.869 197V198H414.533L414.79 197.389L413.869 197ZM374.541 196.613L318.041 62.1127L316.197 62.8873L372.697 197.387L374.541 196.613ZM317.119 63.5H357.369V61.5H317.119V63.5ZM356.443 62.8762L403.443 178.626L405.296 177.874L358.296 62.1238L356.443 62.8762ZM404.369 177.25H384.369V179.25H404.369V177.25ZM385.291 178.638L434.041 62.8881L432.198 62.1118L383.448 177.862L385.291 178.638ZM433.119 63.5H470.619V61.5H433.119V63.5ZM469.698 62.1112L412.948 196.611L414.79 197.389L471.54 62.8887L469.698 62.1112ZM413.869 196H373.619V198H413.869V196ZM486.533 197H485.533V198H486.533V197ZM486.533 62.5V61.5H485.533V62.5H486.533ZM525.533 62.5H526.533V61.5H525.533V62.5ZM525.533 197V198H526.533V197H525.533ZM488.533 37.5L487.854 38.2338L488.533 37.5ZM488.533 6.49999L489.213 7.23376V7.23375L488.533 6.49999ZM523.533 6.25L522.869 6.99741L522.877 7.00441L522.885 7.01124L523.533 6.25ZM523.533 37.5L524.226 38.2208L524.227 38.2203L523.533 37.5ZM487.533 197V62.5H485.533V197H487.533ZM486.533 63.5H525.533V61.5H486.533V63.5ZM524.533 62.5V197H526.533V62.5H524.533ZM525.533 196H486.533V198H525.533V196ZM506.033 42.75C499.073 42.75 493.497 40.7333 489.213 36.7662L487.854 38.2338C492.569 42.6001 498.66 44.75 506.033 44.75V42.75ZM489.213 36.7662C484.918 32.79 482.783 27.8898 482.783 22H480.783C480.783 28.4435 483.148 33.8766 487.854 38.2338L489.213 36.7662ZM482.783 22C482.783 16.1101 484.918 11.21 489.213 7.23376L487.854 5.76623C483.148 10.1233 480.783 15.5565 480.783 22H482.783ZM489.213 7.23375C493.497 3.26671 499.073 1.24998 506.033 1.24998V-0.750015C498.66 -0.750015 492.569 1.39993 487.854 5.76623L489.213 7.23375ZM506.033 1.24998C513.004 1.24998 518.586 3.19004 522.869 6.99741L524.198 5.50259C519.481 1.30994 513.396 -0.750015 506.033 -0.750015V1.24998ZM522.885 7.01124C527.151 10.6454 529.283 15.3618 529.283 21.25H531.283C531.283 14.8048 528.916 9.52128 524.182 5.48875L522.885 7.01124ZM529.283 21.25C529.283 27.4906 527.135 32.6432 522.84 36.7797L524.227 38.2203C528.931 33.6901 531.283 28.0094 531.283 21.25H529.283ZM522.84 36.7792C518.732 40.729 513.168 42.75 506.033 42.75V44.75C513.565 44.75 519.667 42.6044 524.226 38.2208L522.84 36.7792ZM587.979 190L587.516 190.887L587.521 190.889L587.979 190ZM561.229 165.5L560.372 166.017L560.376 166.023L561.229 165.5ZM560.979 94L560.122 93.4835L560.12 93.4875L560.979 94ZM586.729 69.5L587.203 70.3805L587.213 70.3748L586.729 69.5ZM658.979 69L658.504 69.88L658.512 69.8845L658.52 69.8888L658.979 69ZM684.229 93L683.366 93.5064L683.37 93.5125L684.229 93ZM693.229 135.5L694.224 135.591L694.225 135.583L693.229 135.5ZM692.729 140.75V141.75H693.633L693.724 140.85L692.729 140.75ZM583.479 140.75H582.479V141.75H583.479V140.75ZM583.479 118V117H582.479V118H583.479ZM672.229 118L672.639 118.912L672.229 117V118ZM657.229 124.75H656.229V126.297L657.639 125.662L657.229 124.75ZM652.979 106.5L652.102 106.981L652.979 106.5ZM641.229 94.5L640.714 95.3575L640.725 95.3639L640.736 95.37L641.229 94.5ZM605.979 94.5L606.472 95.3701L606.481 95.3648L605.979 94.5ZM594.229 106.75L595.105 107.231L595.112 107.219L594.229 106.75ZM594.729 150.75L593.856 151.238L593.864 151.253L593.873 151.268L594.729 150.75ZM608.479 163.5L608.021 164.389L608.036 164.397L608.052 164.404L608.479 163.5ZM648.229 164.5L647.862 163.57L647.852 163.574L648.229 164.5ZM663.229 154.75L663.964 154.072L663.271 153.321L662.535 154.03L663.229 154.75ZM683.979 177.25L684.729 177.911L685.325 177.235L684.714 176.572L683.979 177.25ZM660.729 193.5L661.094 194.431L661.101 194.428L661.108 194.425L660.729 193.5ZM628.479 198C613.277 198 599.939 195.027 588.436 189.111L587.521 190.889C599.351 196.973 613.013 200 628.479 200V198ZM588.441 189.113C577.09 183.191 568.313 175.145 562.081 164.977L560.376 166.023C566.811 176.521 575.867 184.809 587.516 190.887L588.441 189.113ZM562.085 164.984C555.854 154.653 552.729 142.918 552.729 129.75H550.729C550.729 143.249 553.937 155.347 560.372 166.016L562.085 164.984ZM552.729 129.75C552.729 116.408 555.774 104.673 561.837 94.5125L560.12 93.4875C553.85 103.994 550.729 116.092 550.729 129.75H552.729ZM561.835 94.5165C568.075 84.1704 576.526 76.1292 587.203 70.3805L586.254 68.6195C575.264 74.5375 566.548 82.8296 560.122 93.4835L561.835 94.5165ZM587.213 70.3748C597.883 64.4652 609.963 61.5 623.479 61.5V59.5C609.66 59.5 597.241 62.5348 586.244 68.6252L587.213 70.3748ZM623.479 61.5C636.497 61.5 648.164 64.3 658.504 69.88L659.453 68.12C648.793 62.3666 636.793 59.5 623.479 59.5V61.5ZM658.52 69.8888C669.016 75.3008 677.294 83.167 683.366 93.5064L685.091 92.4936C678.83 81.833 670.274 73.6992 659.437 68.1112L658.52 69.8888ZM683.37 93.5125C689.427 103.662 692.479 115.893 692.479 130.25H694.479C694.479 115.607 691.364 103.005 685.087 92.4875L683.37 93.5125ZM692.479 130.25C692.479 131.715 692.397 133.436 692.232 135.417L694.225 135.583C694.393 133.564 694.479 131.785 694.479 130.25H692.479ZM692.233 135.409C692.066 137.24 691.9 138.987 691.733 140.65L693.724 140.85C693.891 139.18 694.057 137.427 694.224 135.591L692.233 135.409ZM692.729 139.75H583.479V141.75H692.729V139.75ZM584.479 140.75V118H582.479V140.75H584.479ZM583.479 119H672.229V117H583.479V119ZM671.818 117.088L656.818 123.838L657.639 125.662L672.639 118.912L671.818 117.088ZM658.229 124.75C658.229 117.613 656.783 111.359 653.855 106.019L652.102 106.981C654.84 111.975 656.229 117.886 656.229 124.75H658.229ZM653.855 106.019C650.935 100.694 646.887 96.5573 641.722 93.63L640.736 95.37C645.57 98.1094 649.355 101.973 652.102 106.981L653.855 106.019ZM641.743 93.6425C636.566 90.5365 630.55 89 623.729 89V91C630.24 91 635.891 92.4635 640.714 95.3575L641.743 93.6425ZM623.729 89C616.906 89 610.813 90.5367 605.476 93.6352L606.481 95.3648C611.478 92.4633 617.217 91 623.729 91V89ZM605.486 93.63C600.311 96.562 596.263 100.788 593.345 106.281L595.112 107.219C597.86 102.045 601.646 98.1047 606.472 95.37L605.486 93.63ZM593.352 106.269C590.422 111.612 588.979 117.951 588.979 125.25H590.979C590.979 118.215 592.369 112.221 595.105 107.231L593.352 106.269ZM588.979 125.25V131.25H590.979V125.25H588.979ZM588.979 131.25C588.979 138.732 590.595 145.404 593.856 151.238L595.601 150.262C592.528 144.763 590.979 138.435 590.979 131.25H588.979ZM593.873 151.268C597.304 156.93 602.027 161.307 608.021 164.389L608.936 162.611C603.263 159.693 598.819 155.57 595.584 150.232L593.873 151.268ZM608.052 164.404C614.21 167.312 621.361 168.75 629.479 168.75V166.75C621.596 166.75 614.747 165.354 608.906 162.596L608.052 164.404ZM629.479 168.75C636.744 168.75 643.127 167.652 648.605 165.426L647.852 163.574C642.664 165.681 636.547 166.75 629.479 166.75V168.75ZM648.595 165.43C654.224 163.213 659.333 159.889 663.922 155.47L662.535 154.03C658.124 158.277 653.233 161.454 647.862 163.57L648.595 165.43ZM662.493 155.428L683.243 177.928L684.714 176.572L663.964 154.072L662.493 155.428ZM683.228 176.589C677.171 183.464 669.552 188.795 660.349 192.575L661.108 194.425C670.572 190.538 678.453 185.036 684.729 177.911L683.228 176.589ZM660.363 192.569C651.168 196.182 640.546 198 628.479 198V200C640.744 200 651.622 198.152 661.094 194.431L660.363 192.569ZM747.752 197L746.811 197.339L747.049 198H747.752V197ZM699.252 62.5V61.5H697.828L698.311 62.8392L699.252 62.5ZM736.002 62.5L736.946 62.1715L736.713 61.5H736.002V62.5ZM776.252 178.25V179.25H777.658L777.196 177.922L776.252 178.25ZM758.752 178.25L757.812 177.909L757.325 179.25H758.752V178.25ZM800.752 62.5V61.5H800.051L799.812 62.1589L800.752 62.5ZM833.752 62.5L834.695 62.1679L834.46 61.5H833.752V62.5ZM874.502 178.25V179.25H875.914L875.445 177.918L874.502 178.25ZM857.002 178.25L856.061 177.913L855.581 179.25H857.002V178.25ZM898.502 62.5V61.5H897.798L897.561 62.1625L898.502 62.5ZM933.002 62.5L933.942 62.8408L934.428 61.5H933.002V62.5ZM884.252 197V198H884.953L885.192 197.341L884.252 197ZM846.502 197L845.561 197.339L845.799 198H846.502V197ZM810.752 97.75V96.75H809.329L809.811 98.0889L810.752 97.75ZM822.252 97.75L823.189 98.0993L823.692 96.75H822.252V97.75ZM785.252 197V198H785.946L786.189 197.349L785.252 197ZM748.693 196.661L700.193 62.1608L698.311 62.8392L746.811 197.339L748.693 196.661ZM699.252 63.5H736.002V61.5H699.252V63.5ZM735.057 62.8284L775.307 178.578L777.196 177.922L736.946 62.1715L735.057 62.8284ZM776.252 177.25H758.752V179.25H776.252V177.25ZM759.692 178.591L801.692 62.8411L799.812 62.1589L757.812 177.909L759.692 178.591ZM800.752 63.5H833.752V61.5H800.752V63.5ZM832.809 62.8321L873.559 178.582L875.445 177.918L834.695 62.1679L832.809 62.8321ZM874.502 177.25H857.002V179.25H874.502V177.25ZM857.943 178.587L899.443 62.8375L897.561 62.1625L856.061 177.913L857.943 178.587ZM898.502 63.5H933.002V61.5H898.502V63.5ZM932.062 62.1592L883.312 196.659L885.192 197.341L933.942 62.8408L932.062 62.1592ZM884.252 196H846.502V198H884.252V196ZM847.443 196.661L811.693 97.4111L809.811 98.0889L845.561 197.339L847.443 196.661ZM810.752 98.75H822.252V96.75H810.752V98.75ZM821.315 97.4007L784.315 196.651L786.189 197.349L823.189 98.0993L821.315 97.4007ZM785.252 196H747.752V198H785.252V196ZM961.18 195L960.919 195.965L960.928 195.968L960.937 195.97L961.18 195ZM936.18 184.5L935.273 184.079L934.914 184.852L935.62 185.329L936.18 184.5ZM949.18 156.5L949.708 155.651L948.748 155.054L948.273 156.079L949.18 156.5ZM970.93 166L970.642 166.958L970.654 166.961L970.665 166.964L970.93 166ZM1014.93 166.25L1014.44 165.379L1014.43 165.384L1014.42 165.389L1014.93 166.25ZM1016.18 150.25L1015.67 151.112L1015.7 151.129L1015.73 151.144L1016.18 150.25ZM1004.68 146.5L1004.51 147.485L1004.68 146.5ZM988.68 144L988.534 144.989L988.538 144.99L988.68 144ZM971.43 140.75L971.181 141.718L971.194 141.722L971.207 141.725L971.43 140.75ZM955.43 134.25L955.935 133.387L955.43 134.25ZM943.68 122.75L942.817 123.256L942.823 123.267L942.83 123.277L943.68 122.75ZM946.68 81.5L945.887 80.8903L945.882 80.8968L945.877 80.9033L946.68 81.5ZM968.18 66.25L968.545 67.1807L968.552 67.1779L968.56 67.175L968.18 66.25ZM1029.68 63.5L1029.89 62.5214L1029.68 63.5ZM1053.43 72.25L1054.34 72.6742L1054.72 71.86L1053.95 71.3945L1053.43 72.25ZM1040.43 100L1039.92 100.861L1040.87 101.42L1041.34 100.424L1040.43 100ZM1020.68 92.25L1020.45 93.2244L1020.47 93.2277L1020.48 93.2306L1020.68 92.25ZM982.68 93.5L982.176 92.6362L982.68 93.5ZM980.93 110L980.423 110.862L980.433 110.868L980.444 110.874L980.93 110ZM1008.43 116.75L1008.28 117.739L1008.3 117.742L1008.32 117.744L1008.43 116.75ZM1025.93 120L1026.18 119.031L1025.93 120ZM1041.68 126.5L1041.16 127.355L1041.18 127.366L1041.2 127.376L1041.68 126.5ZM1053.43 137.75L1052.58 138.277L1052.58 138.284L1052.59 138.291L1053.43 137.75ZM1050.43 178.5L1051.21 179.12L1051.22 179.11L1050.43 178.5ZM1028.68 193.5L1028.32 192.567L1028.31 192.569L1028.68 193.5ZM994.43 198C983.008 198 972.006 196.676 961.422 194.03L960.937 195.97C971.687 198.658 982.852 200 994.43 200V198ZM961.44 194.035C951.002 191.218 942.783 187.755 936.74 183.671L935.62 185.329C941.91 189.579 950.357 193.115 960.919 195.965L961.44 194.035ZM937.087 184.921L950.087 156.921L948.273 156.079L935.273 184.079L937.087 184.921ZM948.652 157.349C954.907 161.237 962.241 164.437 970.642 166.958L971.217 165.042C962.952 162.563 955.786 159.429 949.708 155.651L948.652 157.349ZM970.665 166.964C979.244 169.319 987.667 170.5 995.93 170.5V168.5C987.859 168.5 979.615 167.347 971.194 165.036L970.665 166.964ZM995.93 170.5C1004.95 170.5 1011.52 169.425 1015.44 167.111L1014.42 165.389C1011 167.408 1004.91 168.5 995.93 168.5V170.5ZM1015.42 167.121C1019.51 164.808 1021.68 161.504 1021.68 157.25H1019.68C1019.68 160.663 1018.01 163.358 1014.44 165.379L1015.42 167.121ZM1021.68 157.25C1021.68 155.503 1021.26 153.934 1020.4 152.584C1019.53 151.238 1018.25 150.169 1016.63 149.356L1015.73 151.144C1017.11 151.831 1018.08 152.679 1018.71 153.666C1019.35 154.649 1019.68 155.831 1019.68 157.25H1021.68ZM1016.69 149.388C1013.71 147.638 1009.75 146.359 1004.85 145.515L1004.51 147.485C1009.28 148.307 1012.98 149.529 1015.67 151.112L1016.69 149.388ZM1004.85 145.515C1000.01 144.679 994.662 143.844 988.821 143.01L988.538 144.99C994.364 145.822 999.688 146.654 1004.51 147.485L1004.85 145.515ZM988.825 143.011C983.186 142.181 977.461 141.103 971.653 139.775L971.207 141.725C977.065 143.064 982.84 144.152 988.534 144.989L988.825 143.011ZM971.679 139.782C965.929 138.303 960.683 136.17 955.935 133.387L954.924 135.113C959.843 137.996 965.264 140.197 971.181 141.718L971.679 139.782ZM955.935 133.387C951.245 130.637 947.445 126.92 944.529 122.223L942.83 123.277C945.914 128.247 949.948 132.196 954.924 135.113L955.935 133.387ZM944.542 122.244C941.826 117.611 940.43 111.552 940.43 104H938.43C938.43 111.782 939.867 118.223 942.817 123.256L944.542 122.244ZM940.43 104C940.43 95.7036 942.784 88.4153 947.482 82.0967L945.877 80.9033C940.909 87.5847 938.43 95.2964 938.43 104H940.43ZM947.472 82.1097C952.339 75.7824 959.343 70.7959 968.545 67.1807L967.814 65.3192C958.349 69.0375 951.02 74.2176 945.887 80.8903L947.472 82.1097ZM968.56 67.175C977.743 63.4032 988.774 61.5 1001.68 61.5V59.5C988.585 59.5 977.283 61.4301 967.8 65.325L968.56 67.175ZM1001.68 61.5C1010.77 61.5 1020.04 62.492 1029.47 64.4785L1029.89 62.5214C1020.32 60.508 1010.92 59.5 1001.68 59.5V61.5ZM1029.47 64.4785C1038.9 66.4622 1046.7 69.3454 1052.91 73.1055L1053.95 71.3945C1047.49 67.4879 1039.46 64.5378 1029.89 62.5214L1029.47 64.4785ZM1052.52 71.8258L1039.52 99.5758L1041.34 100.424L1054.34 72.6742L1052.52 71.8258ZM1040.94 99.1386C1034.35 95.2546 1027.66 92.627 1020.88 91.2694L1020.48 93.2306C1027.03 94.5396 1033.51 97.0787 1039.92 100.861L1040.94 99.1386ZM1020.9 91.2756C1014.34 89.76 1007.93 89 1001.68 89V91C1007.76 91 1014.02 91.74 1020.45 93.2244L1020.9 91.2756ZM1001.68 89C992.966 89 986.411 90.1654 982.176 92.6362L983.184 94.3638C986.948 92.1679 993.06 91 1001.68 91V89ZM982.176 92.6362C977.962 95.0942 975.68 98.3812 975.68 102.5H977.68C977.68 99.2854 979.397 96.5725 983.184 94.3638L982.176 92.6362ZM975.68 102.5C975.68 106.182 977.279 109.012 980.423 110.862L981.437 109.138C978.914 107.654 977.68 105.485 977.68 102.5H975.68ZM980.444 110.874C983.562 112.606 987.584 113.967 992.477 114.979L992.882 113.021C988.109 112.033 984.297 110.727 981.415 109.126L980.444 110.874ZM992.477 114.979C997.332 115.984 1002.6 116.904 1008.28 117.739L1008.58 115.761C1002.92 114.93 997.694 114.016 992.882 113.021L992.477 114.979ZM1008.32 117.744C1014.1 118.405 1019.89 119.48 1025.68 120.968L1026.18 119.031C1020.3 117.52 1014.42 116.428 1008.54 115.756L1008.32 117.744ZM1025.68 120.968C1031.43 122.447 1036.59 124.577 1041.16 127.355L1042.2 125.645C1037.44 122.756 1032.1 120.553 1026.18 119.031L1025.68 120.968ZM1041.2 127.376C1045.88 129.957 1049.67 133.585 1052.58 138.277L1054.28 137.223C1051.19 132.248 1047.15 128.376 1042.16 125.624L1041.2 127.376ZM1052.59 138.291C1055.45 142.746 1056.93 148.704 1056.93 156.25H1058.93C1058.93 148.462 1057.41 142.088 1054.27 137.209L1052.59 138.291ZM1056.93 156.25C1056.93 164.367 1054.5 171.568 1049.64 177.89L1051.22 179.11C1056.36 172.432 1058.93 164.8 1058.93 156.25H1056.93ZM1049.64 177.88C1044.78 184.041 1037.7 188.948 1028.32 192.567L1029.04 194.433C1038.66 190.718 1046.08 185.626 1051.21 179.12L1049.64 177.88ZM1028.31 192.569C1019.13 196.177 1007.85 198 994.43 198V200C1008.01 200 1019.56 198.156 1029.05 194.431L1028.31 192.569Z" fill="#9F9F9F" mask="url(#path-1-outside-1_112_322)"/>
</svg>
