<svg width="1077" height="200" viewBox="0 0 1077 200" fill="none" xmlns="http://www.w3.org/2000/svg">
<mask id="path-1-outside-1_112_156" maskUnits="userSpaceOnUse" x="-2" y="-1" width="1080" height="202" fill="black">
<rect fill="white" x="-2" y="-1" width="1080" height="202"/>
<path d="M71.4502 200C57.4502 200 44.0335 198.167 31.2002 194.5C18.3669 190.667 8.03353 185.75 0.200196 179.75L13.9502 149.25C21.4502 154.583 30.2835 159 40.4502 162.5C50.7835 165.833 61.2002 167.5 71.7002 167.5C79.7002 167.5 86.1169 166.75 90.9502 165.25C95.9502 163.583 99.6169 161.333 101.95 158.5C104.284 155.667 105.45 152.417 105.45 148.75C105.45 144.083 103.617 140.417 99.9502 137.75C96.2835 134.917 91.4502 132.667 85.4502 131C79.4502 129.167 72.7835 127.5 65.4502 126C58.2835 124.333 51.0335 122.333 43.7002 120C36.5335 117.667 29.9502 114.667 23.9502 111C17.9502 107.333 13.0335 102.5 9.2002 96.5C5.53353 90.5 3.7002 82.8333 3.7002 73.5C3.7002 63.5 6.36686 54.4167 11.7002 46.25C17.2002 37.9167 25.3669 31.3333 36.2002 26.5C47.2002 21.5 60.9502 19 77.4502 19C88.4502 19 99.2835 20.3333 109.95 23C120.617 25.5 130.034 29.3333 138.2 34.5L125.7 65.25C117.534 60.5833 109.367 57.1667 101.2 55C93.0335 52.6667 85.0335 51.5 77.2002 51.5C69.3669 51.5 62.9502 52.4167 57.9502 54.25C52.9502 56.0833 49.3669 58.5 47.2002 61.5C45.0335 64.3333 43.9502 67.6667 43.9502 71.5C43.9502 76 45.7835 79.6667 49.4502 82.5C53.1169 85.1667 57.9502 87.3333 63.9502 89C69.9502 90.6667 76.5335 92.3333 83.7002 94C91.0335 95.6667 98.2835 97.5833 105.45 99.75C112.784 101.917 119.45 104.833 125.45 108.5C131.45 112.167 136.284 117 139.95 123C143.784 129 145.7 136.583 145.7 145.75C145.7 155.583 142.95 164.583 137.45 172.75C131.95 180.917 123.7 187.5 112.7 192.5C101.867 197.5 88.1169 200 71.4502 200ZM237.374 199C222.041 199 208.541 196 196.874 190C185.374 184 176.457 175.833 170.124 165.5C163.791 155 160.624 143.083 160.624 129.75C160.624 116.25 163.707 104.333 169.874 94C176.207 83.5 184.791 75.3333 195.624 69.5C206.457 63.5 218.707 60.5 232.374 60.5C245.541 60.5 257.374 63.3333 267.874 69C278.541 74.5 286.957 82.5 293.124 93C299.291 103.333 302.374 115.75 302.374 130.25C302.374 131.75 302.291 133.5 302.124 135.5C301.957 137.333 301.791 139.083 301.624 140.75H192.374V118H281.124L266.124 124.75C266.124 117.75 264.707 111.667 261.874 106.5C259.041 101.333 255.124 97.3333 250.124 94.5C245.124 91.5 239.291 90 232.624 90C225.957 90 220.041 91.5 214.874 94.5C209.874 97.3333 205.957 101.417 203.124 106.75C200.291 111.917 198.874 118.083 198.874 125.25V131.25C198.874 138.583 200.457 145.083 203.624 150.75C206.957 156.25 211.541 160.5 217.374 163.5C223.374 166.333 230.374 167.75 238.374 167.75C245.541 167.75 251.791 166.667 257.124 164.5C262.624 162.333 267.624 159.083 272.124 154.75L292.874 177.25C286.707 184.25 278.957 189.667 269.624 193.5C260.291 197.167 249.541 199 237.374 199ZM328.339 197V62.5H365.589V100.5L360.339 89.5C364.339 80 370.756 72.8333 379.589 68C388.422 63 399.172 60.5 411.839 60.5V96.5C410.172 96.3333 408.672 96.25 407.339 96.25C406.006 96.0833 404.589 96 403.089 96C392.422 96 383.756 99.0833 377.089 105.25C370.589 111.25 367.339 120.667 367.339 133.5V197H328.339ZM476.167 197L419.667 62.5H459.917L506.917 178.25H486.917L535.667 62.5H573.167L516.417 197H476.167ZM589.081 197V62.5H628.081V197H589.081ZM608.581 43.75C601.414 43.75 595.581 41.6667 591.081 37.5C586.581 33.3333 584.331 28.1667 584.331 22C584.331 15.8333 586.581 10.6667 591.081 6.49999C595.581 2.33332 601.414 0.249985 608.581 0.249985C615.748 0.249985 621.581 2.24999 626.081 6.25C630.581 10.0833 632.831 15.0833 632.831 21.25C632.831 27.75 630.581 33.1667 626.081 37.5C621.748 41.6667 615.914 43.75 608.581 43.75ZM729.276 199C714.776 199 701.86 196.083 690.526 190.25C679.193 184.25 670.276 176 663.776 165.5C657.443 155 654.276 143.083 654.276 129.75C654.276 116.25 657.443 104.333 663.776 94C670.276 83.5 679.193 75.3333 690.526 69.5C701.86 63.5 714.776 60.5 729.276 60.5C743.443 60.5 755.776 63.5 766.276 69.5C776.776 75.3333 784.526 83.75 789.526 94.75L759.276 111C755.776 104.667 751.36 100 746.026 97C740.86 94 735.193 92.5 729.026 92.5C722.36 92.5 716.36 94 711.026 97C705.693 100 701.443 104.25 698.276 109.75C695.276 115.25 693.776 121.917 693.776 129.75C693.776 137.583 695.276 144.25 698.276 149.75C701.443 155.25 705.693 159.5 711.026 162.5C716.36 165.5 722.36 167 729.026 167C735.193 167 740.86 165.583 746.026 162.75C751.36 159.75 755.776 155 759.276 148.5L789.526 165C784.526 175.833 776.776 184.25 766.276 190.25C755.776 196.083 743.443 199 729.276 199ZM877.022 199C861.689 199 848.189 196 836.522 190C825.022 184 816.106 175.833 809.772 165.5C803.439 155 800.272 143.083 800.272 129.75C800.272 116.25 803.356 104.333 809.522 94C815.856 83.5 824.439 75.3333 835.272 69.5C846.106 63.5 858.356 60.5 872.022 60.5C885.189 60.5 897.022 63.3333 907.522 69C918.189 74.5 926.606 82.5 932.772 93C938.939 103.333 942.022 115.75 942.022 130.25C942.022 131.75 941.939 133.5 941.772 135.5C941.606 137.333 941.439 139.083 941.272 140.75H832.022V118H920.772L905.772 124.75C905.772 117.75 904.356 111.667 901.522 106.5C898.689 101.333 894.772 97.3333 889.772 94.5C884.772 91.5 878.939 90 872.272 90C865.606 90 859.689 91.5 854.522 94.5C849.522 97.3333 845.606 101.417 842.772 106.75C839.939 111.917 838.522 118.083 838.522 125.25V131.25C838.522 138.583 840.106 145.083 843.272 150.75C846.606 156.25 851.189 160.5 857.022 163.5C863.022 166.333 870.022 167.75 878.022 167.75C885.189 167.75 891.439 166.667 896.772 164.5C902.272 162.333 907.272 159.083 911.772 154.75L932.522 177.25C926.356 184.25 918.606 189.667 909.272 193.5C899.939 197.167 889.189 199 877.022 199ZM1013.24 199C1001.74 199 990.654 197.667 979.987 195C969.487 192.167 961.154 188.667 954.987 184.5L967.987 156.5C974.154 160.333 981.404 163.5 989.737 166C998.237 168.333 1006.57 169.5 1014.74 169.5C1023.74 169.5 1030.07 168.417 1033.74 166.25C1037.57 164.083 1039.49 161.083 1039.49 157.25C1039.49 154.083 1037.99 151.75 1034.99 150.25C1032.15 148.583 1028.32 147.333 1023.49 146.5C1018.65 145.667 1013.32 144.833 1007.49 144C1001.82 143.167 996.071 142.083 990.237 140.75C984.404 139.25 979.071 137.083 974.237 134.25C969.404 131.417 965.487 127.583 962.487 122.75C959.654 117.917 958.237 111.667 958.237 104C958.237 95.5 960.654 88 965.487 81.5C970.487 75 977.654 69.9167 986.987 66.25C996.321 62.4167 1007.49 60.5 1020.49 60.5C1029.65 60.5 1038.99 61.5 1048.49 63.5C1057.99 65.5 1065.9 68.4167 1072.24 72.25L1059.24 100C1052.74 96.1667 1046.15 93.5833 1039.49 92.25C1032.99 90.75 1026.65 90 1020.49 90C1011.82 90 1005.49 91.1667 1001.49 93.5C997.487 95.8333 995.487 98.8333 995.487 102.5C995.487 105.833 996.904 108.333 999.737 110C1002.74 111.667 1006.65 113 1011.49 114C1016.32 115 1021.57 115.917 1027.24 116.75C1033.07 117.417 1038.9 118.5 1044.74 120C1050.57 121.5 1055.82 123.667 1060.49 126.5C1065.32 129.167 1069.24 132.917 1072.24 137.75C1075.24 142.417 1076.74 148.583 1076.74 156.25C1076.74 164.583 1074.24 172 1069.24 178.5C1064.24 184.833 1056.99 189.833 1047.49 193.5C1038.15 197.167 1026.74 199 1013.24 199Z"/>
</mask>
<path d="M31.2002 194.5L30.914 195.458L30.9255 195.462L31.2002 194.5ZM0.200195 179.75L-0.711445 179.339L-1.03728 180.062L-0.407883 180.544L0.200195 179.75ZM13.9502 149.25L14.5297 148.435L13.5385 147.73L13.0386 148.839L13.9502 149.25ZM40.4502 162.5L40.1247 163.446L40.1339 163.449L40.1432 163.452L40.4502 162.5ZM90.9502 165.25L91.2466 166.205L91.2566 166.202L91.2664 166.199L90.9502 165.25ZM101.95 158.5L101.178 157.864L101.95 158.5ZM99.9502 137.75L99.3387 138.541L99.3503 138.55L99.362 138.559L99.9502 137.75ZM85.4502 131L85.158 131.956L85.1702 131.96L85.1826 131.964L85.4502 131ZM65.4502 126L65.2237 126.974L65.2367 126.977L65.2498 126.98L65.4502 126ZM43.7002 120L43.3906 120.951L43.397 120.953L43.7002 120ZM23.9502 111L23.4287 111.853L23.9502 111ZM9.2002 96.5L8.34691 97.0214L8.35212 97.03L8.3575 97.0384L9.2002 96.5ZM11.7002 46.25L10.8656 45.6991L10.8629 45.7032L11.7002 46.25ZM36.2002 26.5L36.6077 27.4132L36.614 27.4104L36.2002 26.5ZM109.95 23L109.708 23.9701L109.715 23.9719L109.722 23.9736L109.95 23ZM138.2 34.5L139.127 34.8766L139.441 34.102L138.735 33.6549L138.2 34.5ZM125.7 65.25L125.204 66.1182L126.196 66.6852L126.627 65.6266L125.7 65.25ZM101.2 55L100.925 55.9615L100.935 55.9641L100.944 55.9666L101.2 55ZM57.9502 54.25L57.6059 53.3111L57.9502 54.25ZM47.2002 61.5L47.9946 62.1074L48.0029 62.0966L48.0109 62.0855L47.2002 61.5ZM49.4502 82.5L48.8388 83.2913L48.8503 83.3002L48.862 83.3087L49.4502 82.5ZM63.9502 89L63.6826 89.9635L63.9502 89ZM83.7002 94L83.4737 94.974L83.4786 94.9751L83.7002 94ZM105.45 99.75L105.161 100.707L105.167 100.709L105.45 99.75ZM125.45 108.5L125.972 107.647L125.45 108.5ZM139.95 123L139.097 123.521L139.102 123.53L139.107 123.538L139.95 123ZM137.45 172.75L138.28 173.309L137.45 172.75ZM112.7 192.5L112.286 191.59L112.281 191.592L112.7 192.5ZM71.4502 199C57.5386 199 44.2146 197.178 31.4749 193.538L30.9255 195.462C43.8524 199.155 57.3618 201 71.4502 201V199ZM31.4864 193.542C18.7305 189.732 8.51749 184.861 0.808273 178.956L-0.407883 180.544C7.54957 186.639 18.0032 191.602 30.914 195.458L31.4864 193.542ZM1.11184 180.161L14.8618 149.661L13.0386 148.839L-0.711445 179.339L1.11184 180.161ZM13.3707 150.065C20.9605 155.462 29.8824 159.919 40.1247 163.446L40.7757 161.554C30.6847 158.081 21.9399 153.705 14.5297 148.435L13.3707 150.065ZM40.1432 163.452C50.5723 166.816 61.0924 168.5 71.7002 168.5V166.5C61.308 166.5 50.9948 164.851 40.7572 161.548L40.1432 163.452ZM71.7002 168.5C79.7495 168.5 86.2783 167.747 91.2466 166.205L90.6538 164.295C85.9554 165.753 79.6509 166.5 71.7002 166.5V168.5ZM91.2664 166.199C96.371 164.497 100.228 162.164 102.722 159.136L101.178 157.864C99.0057 160.502 95.5294 162.67 90.634 164.301L91.2664 166.199ZM102.722 159.136C105.203 156.124 106.45 152.649 106.45 148.75H104.45C104.45 152.184 103.364 155.21 101.178 157.864L102.722 159.136ZM106.45 148.75C106.45 143.774 104.473 139.803 100.538 136.941L99.362 138.559C102.761 141.031 104.45 144.392 104.45 148.75H106.45ZM100.562 136.959C96.764 134.024 91.8021 131.727 85.7178 130.036L85.1826 131.964C91.0983 133.607 95.8031 135.809 99.3387 138.541L100.562 136.959ZM85.7424 130.044C79.7071 128.2 73.0092 126.525 65.6506 125.02L65.2498 126.98C72.5579 128.475 79.1933 130.134 85.158 131.956L85.7424 130.044ZM65.6767 125.026C58.537 123.366 51.3126 121.373 44.0034 119.047L43.397 120.953C50.7545 123.294 58.03 125.301 65.2237 126.974L65.6767 125.026ZM44.0098 119.049C36.912 116.738 30.4005 113.77 24.4716 110.147L23.4287 111.853C29.4999 115.563 36.155 118.595 43.3906 120.951L44.0098 119.049ZM24.4716 110.147C18.6029 106.56 13.7955 101.835 10.0429 95.9616L8.3575 97.0384C12.2715 103.165 17.2975 108.106 23.4287 111.853L24.4716 110.147ZM10.0535 95.9785C6.50931 90.179 4.7002 82.7079 4.7002 73.5H2.7002C2.7002 82.9587 4.55775 90.821 8.34691 97.0214L10.0535 95.9785ZM4.7002 73.5C4.7002 63.689 7.31312 54.7966 12.5375 46.7968L10.8629 45.7032C5.4206 54.0368 2.7002 63.311 2.7002 73.5H4.7002ZM12.5348 46.8008C17.9115 38.6543 25.9151 32.1837 36.6076 27.4132L35.7928 25.5868C24.8186 30.4829 16.4889 37.179 10.8656 45.6991L12.5348 46.8008ZM36.614 27.4104C47.4457 22.4869 61.0438 20 77.4502 20V18C60.8566 18 46.9547 20.5131 35.7864 25.5896L36.614 27.4104ZM77.4502 20C88.3685 20 99.1204 21.3233 109.708 23.9701L110.193 22.0298C99.4467 19.3433 88.5319 18 77.4502 18V20ZM109.722 23.9736C120.294 26.4515 129.605 30.2454 137.666 35.3451L138.735 33.6549C130.462 28.4212 120.939 24.5485 110.178 22.0264L109.722 23.9736ZM137.274 34.1234L124.774 64.8734L126.627 65.6266L139.127 34.8766L137.274 34.1234ZM126.196 64.3818C117.963 59.6769 109.716 56.2247 101.457 54.0334L100.944 55.9666C109.018 58.1086 117.104 61.4898 125.204 66.1182L126.196 64.3818ZM101.475 54.0385C93.2264 51.6817 85.1339 50.5 77.2002 50.5V52.5C84.9331 52.5 92.8407 53.6516 100.925 55.9615L101.475 54.0385ZM77.2002 50.5C69.2996 50.5 62.7551 51.4231 57.6059 53.3111L58.2944 55.1889C63.1453 53.4102 69.4342 52.5 77.2002 52.5V50.5ZM57.6059 53.3111C52.4972 55.1843 48.7138 57.6963 46.3895 60.9145L48.0109 62.0855C50.0199 59.3037 53.4032 56.9823 58.2944 55.1889L57.6059 53.3111ZM46.4058 60.8925C44.0956 63.9137 42.9502 67.4646 42.9502 71.5H44.9502C44.9502 67.8688 45.9715 64.753 47.9946 62.1074L46.4058 60.8925ZM42.9502 71.5C42.9502 76.3203 44.9355 80.2752 48.8388 83.2913L50.0616 81.7087C46.6315 79.0582 44.9502 75.6797 44.9502 71.5H42.9502ZM48.862 83.3087C52.6541 86.0666 57.6074 88.276 63.6826 89.9635L64.2178 88.0365C58.293 86.3907 53.5796 84.2667 50.0384 81.6913L48.862 83.3087ZM63.6826 89.9635C69.6984 91.6346 76.2956 93.3047 83.4737 94.974L83.9267 93.026C76.7714 91.362 70.202 89.6988 64.2178 88.0365L63.6826 89.9635ZM83.4786 94.9751C90.7892 96.6366 98.0166 98.5473 105.161 100.707L105.74 98.7928C98.5504 96.6193 91.2778 94.6967 83.9218 93.0249L83.4786 94.9751ZM105.167 100.709C112.424 102.853 119.009 105.736 124.929 109.353L125.972 107.647C119.891 103.931 113.143 100.98 105.734 98.791L105.167 100.709ZM124.929 109.353C130.793 112.937 135.513 117.657 139.097 123.521L140.803 122.479C137.054 116.343 132.107 111.396 125.972 107.647L124.929 109.353ZM139.107 123.538C142.812 129.337 144.7 136.72 144.7 145.75H146.7C146.7 136.447 144.755 128.663 140.793 122.462L139.107 123.538ZM144.7 145.75C144.7 155.384 142.01 164.19 136.621 172.191L138.28 173.309C143.891 164.977 146.7 155.783 146.7 145.75H144.7ZM136.621 172.191C131.245 180.173 123.156 186.649 112.286 191.59L113.114 193.41C124.244 188.351 132.655 181.66 138.28 173.309L136.621 172.191ZM112.281 191.592C101.621 196.512 88.0259 199 71.4502 199V201C88.2078 201 102.113 198.488 113.119 193.408L112.281 191.592ZM196.874 190L196.411 190.887L196.417 190.889L196.874 190ZM170.124 165.5L169.268 166.017L169.271 166.023L170.124 165.5ZM169.874 94L169.018 93.4835L169.015 93.4875L169.874 94ZM195.624 69.5L196.098 70.3805L196.109 70.3748L195.624 69.5ZM267.874 69L267.399 69.88L267.407 69.8845L267.416 69.8888L267.874 69ZM293.124 93L292.262 93.5064L292.265 93.5125L293.124 93ZM302.124 135.5L303.12 135.591L303.121 135.583L302.124 135.5ZM301.624 140.75V141.75H302.529L302.619 140.85L301.624 140.75ZM192.374 140.75H191.374V141.75H192.374V140.75ZM192.374 118V117H191.374V118H192.374ZM281.124 118L281.534 118.912L281.124 117V118ZM266.124 124.75H265.124V126.297L266.534 125.662L266.124 124.75ZM261.874 106.5L260.997 106.981L261.874 106.5ZM250.124 94.5L249.61 95.3575L249.62 95.3639L249.631 95.37L250.124 94.5ZM214.874 94.5L215.367 95.3701L215.376 95.3648L214.874 94.5ZM203.124 106.75L204.001 107.231L204.007 107.219L203.124 106.75ZM203.624 150.75L202.751 151.238L202.76 151.253L202.769 151.268L203.624 150.75ZM217.374 163.5L216.917 164.389L216.932 164.397L216.947 164.404L217.374 163.5ZM257.124 164.5L256.757 163.57L256.748 163.574L257.124 164.5ZM272.124 154.75L272.859 154.072L272.166 153.321L271.43 154.03L272.124 154.75ZM292.874 177.25L293.624 177.911L294.22 177.235L293.609 176.572L292.874 177.25ZM269.624 193.5L269.99 194.431L269.997 194.428L270.004 194.425L269.624 193.5ZM237.374 198C222.173 198 208.834 195.027 197.331 189.111L196.417 190.889C208.247 196.973 221.908 200 237.374 200V198ZM197.337 189.113C185.985 183.191 177.209 175.145 170.977 164.977L169.271 166.023C175.706 176.521 184.763 184.809 196.411 190.887L197.337 189.113ZM170.98 164.984C164.749 154.653 161.624 142.918 161.624 129.75H159.624C159.624 143.249 162.832 155.347 169.268 166.016L170.98 164.984ZM161.624 129.75C161.624 116.408 164.669 104.673 170.733 94.5125L169.015 93.4875C162.745 103.994 159.624 116.092 159.624 129.75H161.624ZM170.73 94.5165C176.971 84.1704 185.422 76.1292 196.098 70.3805L195.15 68.6195C184.159 74.5375 175.444 82.8296 169.018 93.4835L170.73 94.5165ZM196.109 70.3748C206.779 64.4652 218.859 61.5 232.374 61.5V59.5C218.556 59.5 206.136 62.5348 195.14 68.6252L196.109 70.3748ZM232.374 61.5C245.392 61.5 257.06 64.3 267.399 69.88L268.349 68.12C257.688 62.3666 245.689 59.5 232.374 59.5V61.5ZM267.416 69.8888C277.912 75.3008 286.189 83.167 292.262 93.5064L293.986 92.4936C287.725 81.833 279.17 73.6992 268.332 68.1112L267.416 69.8888ZM292.265 93.5125C298.322 103.662 301.374 115.893 301.374 130.25H303.374C303.374 115.607 300.259 103.005 293.983 92.4875L292.265 93.5125ZM301.374 130.25C301.374 131.715 301.293 133.436 301.128 135.417L303.121 135.583C303.289 133.564 303.374 131.785 303.374 130.25H301.374ZM301.128 135.409C300.962 137.24 300.795 138.987 300.629 140.65L302.619 140.85C302.786 139.18 302.953 137.427 303.12 135.591L301.128 135.409ZM301.624 139.75H192.374V141.75H301.624V139.75ZM193.374 140.75V118H191.374V140.75H193.374ZM192.374 119H281.124V117H192.374V119ZM280.714 117.088L265.714 123.838L266.534 125.662L281.534 118.912L280.714 117.088ZM267.124 124.75C267.124 117.613 265.679 111.359 262.751 106.019L260.997 106.981C263.736 111.975 265.124 117.886 265.124 124.75H267.124ZM262.751 106.019C259.831 100.694 255.783 96.5573 250.617 93.63L249.631 95.37C254.465 98.1094 258.251 101.973 260.997 106.981L262.751 106.019ZM250.639 93.6425C245.462 90.5365 239.445 89 232.624 89V91C239.136 91 244.786 92.4635 249.61 95.3575L250.639 93.6425ZM232.624 89C225.802 89 219.708 90.5367 214.372 93.6352L215.376 95.3648C220.373 92.4633 226.113 91 232.624 91V89ZM214.381 93.63C209.207 96.562 205.159 100.788 202.241 106.281L204.007 107.219C206.756 102.045 210.541 98.1047 215.367 95.37L214.381 93.63ZM202.247 106.269C199.317 111.612 197.874 117.951 197.874 125.25H199.874C199.874 118.215 201.264 112.221 204.001 107.231L202.247 106.269ZM197.874 125.25V131.25H199.874V125.25H197.874ZM197.874 131.25C197.874 138.732 199.491 145.404 202.751 151.238L204.497 150.262C201.424 144.763 199.874 138.435 199.874 131.25H197.874ZM202.769 151.268C206.2 156.93 210.922 161.307 216.917 164.389L217.831 162.611C212.159 159.693 207.715 155.57 204.479 150.232L202.769 151.268ZM216.947 164.404C223.105 167.312 230.256 168.75 238.374 168.75V166.75C230.492 166.75 223.643 165.354 217.801 162.596L216.947 164.404ZM238.374 168.75C245.639 168.75 252.022 167.652 257.5 165.426L256.748 163.574C251.559 165.681 245.442 166.75 238.374 166.75V168.75ZM257.491 165.43C263.119 163.213 268.229 159.889 272.818 155.47L271.43 154.03C267.019 158.277 262.129 161.454 256.758 163.57L257.491 165.43ZM271.389 155.428L292.139 177.928L293.609 176.572L272.859 154.072L271.389 155.428ZM292.124 176.589C286.067 183.464 278.447 188.795 269.244 192.575L270.004 194.425C279.468 190.538 287.348 185.036 293.624 177.911L292.124 176.589ZM269.258 192.569C260.063 196.182 249.441 198 237.374 198V200C249.64 200 260.518 198.152 269.99 194.431L269.258 192.569ZM328.339 197H327.339V198H328.339V197ZM328.339 62.5V61.5H327.339V62.5H328.339ZM365.589 62.5H366.589V61.5H365.589V62.5ZM365.589 100.5L364.686 100.931L366.589 100.5H365.589ZM360.339 89.5L359.417 89.1119L359.243 89.5256L359.436 89.9307L360.339 89.5ZM379.589 68L380.069 68.8773L380.075 68.8738L380.081 68.8702L379.589 68ZM411.839 60.5H412.839V59.5H411.839V60.5ZM411.839 96.5L411.739 97.495L412.839 97.605V96.5H411.839ZM407.339 96.25L407.215 97.2423L407.277 97.25H407.339V96.25ZM377.089 105.25L377.767 105.985L377.768 105.984L377.089 105.25ZM367.339 197V198H368.339V197H367.339ZM329.339 197V62.5H327.339V197H329.339ZM328.339 63.5H365.589V61.5H328.339V63.5ZM364.589 62.5V100.5H366.589V62.5H364.589ZM366.491 100.069L361.241 89.0693L359.436 89.9307L364.686 100.931L366.491 100.069ZM361.26 89.8881C365.175 80.591 371.439 73.5994 380.069 68.8773L379.109 67.1227C370.072 72.0673 363.503 79.409 359.417 89.1119L361.26 89.8881ZM380.081 68.8702C388.732 63.9739 399.303 61.5 411.839 61.5V59.5C399.042 59.5 388.113 62.0261 379.096 67.1297L380.081 68.8702ZM410.839 60.5V96.5H412.839V60.5H410.839ZM411.938 95.505C410.247 95.3358 408.713 95.25 407.339 95.25V97.25C408.632 97.25 410.098 97.3309 411.739 97.495L411.938 95.505ZM407.463 95.2577C406.084 95.0854 404.626 95 403.089 95V97C404.552 97 405.927 97.0813 407.215 97.2423L407.463 95.2577ZM403.089 95C392.217 95 383.293 98.149 376.41 104.516L377.768 105.984C384.218 100.018 392.627 97 403.089 97V95ZM376.411 104.515C369.628 110.776 366.339 120.515 366.339 133.5H368.339C368.339 120.818 371.55 111.724 377.767 105.985L376.411 104.515ZM366.339 133.5V197H368.339V133.5H366.339ZM367.339 196H328.339V198H367.339V196ZM476.167 197L475.245 197.387L475.502 198H476.167V197ZM419.667 62.5V61.5H418.162L418.745 62.8873L419.667 62.5ZM459.917 62.5L460.844 62.1238L460.59 61.5H459.917V62.5ZM506.917 178.25V179.25H508.402L507.844 177.874L506.917 178.25ZM486.917 178.25L485.995 177.862L485.411 179.25H486.917V178.25ZM535.667 62.5V61.5H535.003L534.745 62.1118L535.667 62.5ZM573.167 62.5L574.088 62.8887L574.674 61.5H573.167V62.5ZM516.417 197V198H517.08L517.338 197.389L516.417 197ZM477.089 196.613L420.589 62.1127L418.745 62.8873L475.245 197.387L477.089 196.613ZM419.667 63.5H459.917V61.5H419.667V63.5ZM458.99 62.8762L505.99 178.626L507.844 177.874L460.844 62.1238L458.99 62.8762ZM506.917 177.25H486.917V179.25H506.917V177.25ZM487.839 178.638L536.589 62.8881L534.745 62.1118L485.995 177.862L487.839 178.638ZM535.667 63.5H573.167V61.5H535.667V63.5ZM572.246 62.1112L515.496 196.611L517.338 197.389L574.088 62.8887L572.246 62.1112ZM516.417 196H476.167V198H516.417V196ZM589.081 197H588.081V198H589.081V197ZM589.081 62.5V61.5H588.081V62.5H589.081ZM628.081 62.5H629.081V61.5H628.081V62.5ZM628.081 197V198H629.081V197H628.081ZM591.081 37.5L590.402 38.2338L591.081 37.5ZM591.081 6.49999L591.76 7.23376V7.23375L591.081 6.49999ZM626.081 6.25L625.417 6.99741L625.425 7.00441L625.433 7.01124L626.081 6.25ZM626.081 37.5L626.774 38.2208L626.775 38.2203L626.081 37.5ZM590.081 197V62.5H588.081V197H590.081ZM589.081 63.5H628.081V61.5H589.081V63.5ZM627.081 62.5V197H629.081V62.5H627.081ZM628.081 196H589.081V198H628.081V196ZM608.581 42.75C601.621 42.75 596.045 40.7333 591.76 36.7662L590.402 38.2338C595.117 42.6001 601.208 44.75 608.581 44.75V42.75ZM591.76 36.7662C587.466 32.79 585.331 27.8898 585.331 22H583.331C583.331 28.4435 585.696 33.8766 590.402 38.2338L591.76 36.7662ZM585.331 22C585.331 16.1101 587.466 11.21 591.76 7.23376L590.402 5.76623C585.696 10.1233 583.331 15.5565 583.331 22H585.331ZM591.76 7.23375C596.045 3.26671 601.621 1.24998 608.581 1.24998V-0.750015C601.208 -0.750015 595.117 1.39993 590.402 5.76623L591.76 7.23375ZM608.581 1.24998C615.552 1.24998 621.133 3.19004 625.417 6.99741L626.745 5.50259C622.029 1.30994 615.943 -0.750015 608.581 -0.750015V1.24998ZM625.433 7.01124C629.699 10.6454 631.831 15.3618 631.831 21.25H633.831C633.831 14.8048 631.463 9.52128 626.73 5.48875L625.433 7.01124ZM631.831 21.25C631.831 27.4906 629.683 32.6432 625.387 36.7797L626.775 38.2203C631.479 33.6901 633.831 28.0094 633.831 21.25H631.831ZM625.388 36.7792C621.28 40.729 615.716 42.75 608.581 42.75V44.75C616.113 44.75 622.215 42.6044 626.774 38.2208L625.388 36.7792ZM690.526 190.25L690.058 191.134L690.069 191.139L690.526 190.25ZM663.776 165.5L662.92 166.017L662.926 166.026L663.776 165.5ZM663.776 94L662.926 93.4736L662.924 93.4774L663.776 94ZM690.526 69.5L690.984 70.3892L690.994 70.3838L690.526 69.5ZM766.276 69.5L765.78 70.3683L765.791 70.3741L766.276 69.5ZM789.526 94.75L790 95.6309L790.824 95.1881L790.437 94.3362L789.526 94.75ZM759.276 111L758.401 111.484L758.879 112.349L759.75 111.881L759.276 111ZM746.026 97L745.524 97.8649L745.536 97.8716L746.026 97ZM711.026 97L711.517 97.8716L711.026 97ZM698.276 109.75L697.41 109.251L697.404 109.261L697.398 109.271L698.276 109.75ZM698.276 149.75L697.398 150.229L697.404 150.239L697.41 150.249L698.276 149.75ZM711.026 162.5L711.517 161.628L711.026 162.5ZM746.026 162.75L746.507 163.627L746.517 163.622L746.026 162.75ZM759.276 148.5L759.755 147.622L758.873 147.141L758.396 148.026L759.276 148.5ZM789.526 165L790.434 165.419L790.826 164.57L790.005 164.122L789.526 165ZM766.276 190.25L766.762 191.124L766.773 191.118L766.276 190.25ZM729.276 198C714.914 198 702.157 195.112 690.984 189.361L690.069 191.139C701.562 197.055 714.639 200 729.276 200V198ZM690.994 189.366C679.812 183.446 671.029 175.317 664.627 164.974L662.926 166.026C669.523 176.683 678.575 185.054 690.058 191.134L690.994 189.366ZM664.633 164.984C658.401 154.653 655.276 142.918 655.276 129.75H653.276C653.276 143.249 656.485 155.347 662.92 166.016L664.633 164.984ZM655.276 129.75C655.276 116.413 658.403 104.681 664.629 94.5226L662.924 93.4774C656.483 103.985 653.276 116.087 653.276 129.75H655.276ZM664.627 94.5263C671.028 84.1858 679.807 76.1422 690.984 70.3891L690.069 68.6109C678.579 74.5244 669.525 82.8142 662.926 93.4736L664.627 94.5263ZM690.994 70.3838C702.166 64.4696 714.918 61.5 729.276 61.5V59.5C714.635 59.5 701.554 62.5304 690.058 68.6162L690.994 70.3838ZM729.276 61.5C743.299 61.5 755.455 64.4684 765.78 70.3682L766.773 68.6317C756.097 62.5316 743.587 59.5 729.276 59.5V61.5ZM765.791 70.3741C776.102 76.1028 783.704 84.3575 788.616 95.1638L790.437 94.3362C785.349 83.1425 777.45 74.5638 766.762 68.6258L765.791 70.3741ZM789.053 93.8691L758.803 110.119L759.75 111.881L790 95.6309L789.053 93.8691ZM760.152 110.516C756.578 104.05 752.039 99.2349 746.517 96.1284L745.536 97.8716C750.68 100.765 754.974 105.283 758.401 111.484L760.152 110.516ZM746.529 96.1352C741.204 93.0437 735.363 91.5 729.026 91.5V93.5C735.023 93.5 740.515 94.9563 745.524 97.8648L746.529 96.1352ZM729.026 91.5C722.204 91.5 716.032 93.0368 710.536 96.1284L711.517 97.8716C716.687 94.9632 722.516 93.5 729.026 93.5V91.5ZM710.536 96.1284C705.04 99.2199 700.663 103.601 697.41 109.251L699.143 110.249C702.223 104.899 706.346 100.78 711.517 97.8716L710.536 96.1284ZM697.398 109.271C694.301 114.95 692.776 121.791 692.776 129.75H694.776C694.776 122.043 696.252 115.55 699.154 110.229L697.398 109.271ZM692.776 129.75C692.776 137.709 694.301 144.55 697.398 150.229L699.154 149.271C696.252 143.95 694.776 137.457 694.776 129.75H692.776ZM697.41 150.249C700.663 155.899 705.04 160.28 710.536 163.372L711.517 161.628C706.346 158.72 702.223 154.601 699.143 149.251L697.41 150.249ZM710.536 163.372C716.032 166.463 722.204 168 729.026 168V166C722.516 166 716.687 164.537 711.517 161.628L710.536 163.372ZM729.026 168C735.353 168 741.186 166.545 746.507 163.627L745.546 161.873C740.533 164.622 735.033 166 729.026 166V168ZM746.517 163.622C752.046 160.511 756.586 155.606 760.157 148.974L758.396 148.026C754.967 154.394 750.673 158.989 745.536 161.878L746.517 163.622ZM758.798 149.378L789.048 165.878L790.005 164.122L759.755 147.622L758.798 149.378ZM788.618 164.581C783.707 175.223 776.102 183.483 765.78 189.382L766.773 191.118C777.451 185.017 785.346 176.444 790.434 165.419L788.618 164.581ZM765.791 189.376C755.464 195.113 743.304 198 729.276 198V200C743.582 200 756.089 197.054 766.762 191.124L765.791 189.376ZM836.522 190L836.06 190.887L836.065 190.889L836.522 190ZM809.772 165.5L808.916 166.017L808.92 166.023L809.772 165.5ZM809.522 94L808.666 93.4835L808.664 93.4875L809.522 94ZM835.272 69.5L835.747 70.3805L835.757 70.3748L835.272 69.5ZM907.522 69L907.048 69.88L907.056 69.8845L907.064 69.8888L907.522 69ZM932.772 93L931.91 93.5064L931.914 93.5125L932.772 93ZM941.772 135.5L942.768 135.591L942.769 135.583L941.772 135.5ZM941.272 140.75V141.75H942.177L942.268 140.85L941.272 140.75ZM832.022 140.75H831.022V141.75H832.022V140.75ZM832.022 118V117H831.022V118H832.022ZM920.772 118L921.183 118.912L920.772 117V118ZM905.772 124.75H904.772V126.297L906.183 125.662L905.772 124.75ZM901.522 106.5L900.646 106.981L901.522 106.5ZM889.772 94.5L889.258 95.3575L889.269 95.3639L889.279 95.37L889.772 94.5ZM854.522 94.5L855.016 95.3701L855.025 95.3648L854.522 94.5ZM842.772 106.75L843.649 107.231L843.656 107.219L842.772 106.75ZM843.272 150.75L842.4 151.238L842.408 151.253L842.417 151.268L843.272 150.75ZM857.022 163.5L856.565 164.389L856.58 164.397L856.595 164.404L857.022 163.5ZM896.772 164.5L896.406 163.57L896.396 163.574L896.772 164.5ZM911.772 154.75L912.508 154.072L911.815 153.321L911.079 154.03L911.772 154.75ZM932.522 177.25L933.273 177.911L933.869 177.235L933.258 176.572L932.522 177.25ZM909.272 193.5L909.638 194.431L909.645 194.428L909.652 194.425L909.272 193.5ZM877.022 198C861.821 198 848.483 195.027 836.98 189.111L836.065 190.889C847.895 196.973 861.557 200 877.022 200V198ZM836.985 189.113C825.634 183.191 816.857 175.145 810.625 164.977L808.92 166.023C815.354 176.521 824.411 184.809 836.06 190.887L836.985 189.113ZM810.629 164.984C804.398 154.653 801.272 142.918 801.272 129.75H799.272C799.272 143.249 802.481 155.347 808.916 166.016L810.629 164.984ZM801.272 129.75C801.272 116.408 804.318 104.673 810.381 94.5125L808.664 93.4875C802.394 103.994 799.272 116.092 799.272 129.75H801.272ZM810.379 94.5165C816.619 84.1704 825.07 76.1292 835.747 70.3805L834.798 68.6195C823.808 74.5375 815.092 82.8296 808.666 93.4835L810.379 94.5165ZM835.757 70.3748C846.427 64.4652 858.507 61.5 872.022 61.5V59.5C858.204 59.5 845.785 62.5348 834.788 68.6252L835.757 70.3748ZM872.022 61.5C885.041 61.5 896.708 64.3 907.048 69.88L907.997 68.12C897.337 62.3666 885.337 59.5 872.022 59.5V61.5ZM907.064 69.8888C917.56 75.3008 925.838 83.167 931.91 93.5064L933.635 92.4936C927.374 81.833 918.818 73.6992 907.981 68.1112L907.064 69.8888ZM931.914 93.5125C937.971 103.662 941.022 115.893 941.022 130.25H943.022C943.022 115.607 939.908 103.005 933.631 92.4875L931.914 93.5125ZM941.022 130.25C941.022 131.715 940.941 133.436 940.776 135.417L942.769 135.583C942.937 133.564 943.022 131.785 943.022 130.25H941.022ZM940.777 135.409C940.61 137.24 940.444 138.987 940.277 140.65L942.268 140.85C942.435 139.18 942.601 137.427 942.768 135.591L940.777 135.409ZM941.272 139.75H832.022V141.75H941.272V139.75ZM833.022 140.75V118H831.022V140.75H833.022ZM832.022 119H920.772V117H832.022V119ZM920.362 117.088L905.362 123.838L906.183 125.662L921.183 118.912L920.362 117.088ZM906.772 124.75C906.772 117.613 905.327 111.359 902.399 106.019L900.646 106.981C903.384 111.975 904.772 117.886 904.772 124.75H906.772ZM902.399 106.019C899.479 100.694 895.431 96.5573 890.266 93.63L889.279 95.37C894.114 98.1094 897.899 101.973 900.646 106.981L902.399 106.019ZM890.287 93.6425C885.11 90.5365 879.094 89 872.272 89V91C878.784 91 884.435 92.4635 889.258 95.3575L890.287 93.6425ZM872.272 89C865.45 89 859.357 90.5367 854.02 93.6352L855.025 95.3648C860.022 92.4633 865.761 91 872.272 91V89ZM854.029 93.63C848.855 96.562 844.807 100.788 841.889 106.281L843.656 107.219C846.404 102.045 850.19 98.1047 855.016 95.37L854.029 93.63ZM841.896 106.269C838.966 111.612 837.522 117.951 837.522 125.25H839.522C839.522 118.215 840.912 112.221 843.649 107.231L841.896 106.269ZM837.522 125.25V131.25H839.522V125.25H837.522ZM837.522 131.25C837.522 138.732 839.139 145.404 842.4 151.238L844.145 150.262C841.072 144.763 839.522 138.435 839.522 131.25H837.522ZM842.417 151.268C845.848 156.93 850.571 161.307 856.565 164.389L857.48 162.611C851.807 159.693 847.363 155.57 844.128 150.232L842.417 151.268ZM856.595 164.404C862.754 167.312 869.905 168.75 878.022 168.75V166.75C870.14 166.75 863.291 165.354 857.449 162.596L856.595 164.404ZM878.022 168.75C885.288 168.75 891.671 167.652 897.149 165.426L896.396 163.574C891.208 165.681 885.091 166.75 878.022 166.75V168.75ZM897.139 165.43C902.768 163.213 907.877 159.889 912.466 155.47L911.079 154.03C906.668 158.277 901.777 161.454 896.406 163.57L897.139 165.43ZM911.037 155.428L931.787 177.928L933.258 176.572L912.508 154.072L911.037 155.428ZM931.772 176.589C925.715 183.464 918.096 188.795 908.893 192.575L909.652 194.425C919.116 190.538 926.996 185.036 933.273 177.911L931.772 176.589ZM908.907 192.569C899.712 196.182 889.09 198 877.022 198V200C889.288 200 900.166 198.152 909.638 194.431L908.907 192.569ZM979.987 195L979.727 195.965L979.736 195.968L979.745 195.97L979.987 195ZM954.987 184.5L954.08 184.079L953.722 184.852L954.427 185.329L954.987 184.5ZM967.987 156.5L968.515 155.651L967.556 155.054L967.08 156.079L967.987 156.5ZM989.737 166L989.45 166.958L989.461 166.961L989.473 166.964L989.737 166ZM1033.74 166.25L1033.25 165.379L1033.24 165.384L1033.23 165.389L1033.74 166.25ZM1034.99 150.25L1034.48 151.112L1034.51 151.129L1034.54 151.144L1034.99 150.25ZM1023.49 146.5L1023.32 147.485L1023.49 146.5ZM1007.49 144L1007.34 144.989L1007.35 144.99L1007.49 144ZM990.237 140.75L989.988 141.718L990.001 141.722L990.015 141.725L990.237 140.75ZM974.237 134.25L974.743 133.387L974.237 134.25ZM962.487 122.75L961.625 123.256L961.631 123.267L961.638 123.277L962.487 122.75ZM965.487 81.5L964.695 80.8903L964.69 80.8968L964.685 80.9033L965.487 81.5ZM986.987 66.25L987.353 67.1807L987.36 67.1779L987.367 67.175L986.987 66.25ZM1048.49 63.5L1048.69 62.5214L1048.49 63.5ZM1072.24 72.25L1073.14 72.6742L1073.52 71.86L1072.76 71.3945L1072.24 72.25ZM1059.24 100L1058.73 100.861L1059.68 101.42L1060.14 100.424L1059.24 100ZM1039.49 92.25L1039.26 93.2244L1039.28 93.2277L1039.29 93.2306L1039.49 92.25ZM1001.49 93.5L1000.98 92.6362L1001.49 93.5ZM999.737 110L999.23 110.862L999.241 110.868L999.252 110.874L999.737 110ZM1027.24 116.75L1027.09 117.739L1027.11 117.742L1027.12 117.744L1027.24 116.75ZM1044.74 120L1044.99 119.031L1044.74 120ZM1060.49 126.5L1059.97 127.355L1059.99 127.366L1060 127.376L1060.49 126.5ZM1072.24 137.75L1071.39 138.277L1071.39 138.284L1071.4 138.291L1072.24 137.75ZM1069.24 178.5L1070.02 179.12L1070.03 179.11L1069.24 178.5ZM1047.49 193.5L1047.13 192.567L1047.12 192.569L1047.49 193.5ZM1013.24 198C1001.82 198 990.814 196.676 980.23 194.03L979.745 195.97C990.494 198.658 1001.66 200 1013.24 200V198ZM980.248 194.035C969.81 191.218 961.591 187.755 955.547 183.671L954.427 185.329C960.717 189.579 969.165 193.115 979.727 195.965L980.248 194.035ZM955.894 184.921L968.894 156.921L967.08 156.079L954.08 184.079L955.894 184.921ZM967.459 157.349C973.714 161.237 981.048 164.437 989.45 166.958L990.025 165.042C981.76 162.563 974.594 159.429 968.515 155.651L967.459 157.349ZM989.473 166.964C998.052 169.319 1006.47 170.5 1014.74 170.5V168.5C1006.67 168.5 998.423 167.347 990.002 165.036L989.473 166.964ZM1014.74 170.5C1023.76 170.5 1030.33 169.425 1034.25 167.111L1033.23 165.389C1029.81 167.408 1023.72 168.5 1014.74 168.5V170.5ZM1034.23 167.121C1038.32 164.808 1040.49 161.504 1040.49 157.25H1038.49C1038.49 160.663 1036.82 163.358 1033.25 165.379L1034.23 167.121ZM1040.49 157.25C1040.49 155.503 1040.07 153.934 1039.2 152.584C1038.34 151.238 1037.06 150.169 1035.43 149.356L1034.54 151.144C1035.91 151.831 1036.89 152.679 1037.52 153.666C1038.15 154.649 1038.49 155.831 1038.49 157.25H1040.49ZM1035.49 149.388C1032.52 147.638 1028.56 146.359 1023.66 145.515L1023.32 147.485C1028.08 148.307 1031.79 149.529 1034.48 151.112L1035.49 149.388ZM1023.66 145.515C1018.81 144.679 1013.47 143.844 1007.63 143.01L1007.35 144.99C1013.17 145.822 1018.5 146.654 1023.32 147.485L1023.66 145.515ZM1007.63 143.011C1001.99 142.181 996.269 141.103 990.46 139.775L990.015 141.725C995.872 143.064 1001.65 144.152 1007.34 144.989L1007.63 143.011ZM990.486 139.782C984.736 138.303 979.49 136.17 974.743 133.387L973.732 135.113C978.651 137.996 984.072 140.197 989.988 141.718L990.486 139.782ZM974.743 133.387C970.052 130.637 966.253 126.92 963.337 122.223L961.638 123.277C964.722 128.247 968.756 132.196 973.732 135.113L974.743 133.387ZM963.35 122.244C960.634 117.611 959.237 111.552 959.237 104H957.237C957.237 111.782 958.674 118.223 961.625 123.256L963.35 122.244ZM959.237 104C959.237 95.7036 961.591 88.4153 966.29 82.0967L964.685 80.9033C959.717 87.5847 957.237 95.2964 957.237 104H959.237ZM966.28 82.1097C971.147 75.7824 978.151 70.7959 987.353 67.1807L986.622 65.3192C977.157 69.0375 969.828 74.2176 964.695 80.8903L966.28 82.1097ZM987.367 67.175C996.551 63.4032 1007.58 61.5 1020.49 61.5V59.5C1007.39 59.5 996.091 61.4301 986.607 65.325L987.367 67.175ZM1020.49 61.5C1029.58 61.5 1038.85 62.492 1048.28 64.4785L1048.69 62.5214C1039.13 60.508 1029.73 59.5 1020.49 59.5V61.5ZM1048.28 64.4785C1057.7 66.4622 1065.51 69.3454 1071.72 73.1055L1072.76 71.3945C1066.3 67.4879 1058.27 64.5378 1048.69 62.5214L1048.28 64.4785ZM1071.33 71.8258L1058.33 99.5758L1060.14 100.424L1073.14 72.6742L1071.33 71.8258ZM1059.75 99.1386C1053.16 95.2546 1046.47 92.627 1039.68 91.2694L1039.29 93.2306C1045.84 94.5396 1052.32 97.0787 1058.73 100.861L1059.75 99.1386ZM1039.71 91.2756C1033.14 89.76 1026.74 89 1020.49 89V91C1026.57 91 1032.83 91.74 1039.26 93.2244L1039.71 91.2756ZM1020.49 89C1011.77 89 1005.22 90.1654 1000.98 92.6362L1001.99 94.3638C1005.76 92.1679 1011.87 91 1020.49 91V89ZM1000.98 92.6362C996.77 95.0942 994.487 98.3812 994.487 102.5H996.487C996.487 99.2854 998.205 96.5725 1001.99 94.3638L1000.98 92.6362ZM994.487 102.5C994.487 106.182 996.086 109.012 999.23 110.862L1000.24 109.138C997.722 107.654 996.487 105.485 996.487 102.5H994.487ZM999.252 110.874C1002.37 112.606 1006.39 113.967 1011.28 114.979L1011.69 113.021C1006.92 112.033 1003.1 110.727 1000.22 109.126L999.252 110.874ZM1011.28 114.979C1016.14 115.984 1021.41 116.904 1027.09 117.739L1027.38 115.761C1021.73 114.93 1016.5 114.016 1011.69 113.021L1011.28 114.979ZM1027.12 117.744C1032.91 118.405 1038.7 119.48 1044.49 120.968L1044.99 119.031C1039.11 117.52 1033.23 116.428 1027.35 115.756L1027.12 117.744ZM1044.49 120.968C1050.24 122.447 1055.39 124.577 1059.97 127.355L1061.01 125.645C1056.25 122.756 1050.91 120.553 1044.99 119.031L1044.49 120.968ZM1060 127.376C1064.68 129.957 1068.48 133.585 1071.39 138.277L1073.09 137.223C1070 132.248 1065.96 128.376 1060.97 125.624L1060 127.376ZM1071.4 138.291C1074.26 142.746 1075.74 148.704 1075.74 156.25H1077.74C1077.74 148.462 1076.21 142.088 1073.08 137.209L1071.4 138.291ZM1075.74 156.25C1075.74 164.367 1073.31 171.568 1068.44 177.89L1070.03 179.11C1075.17 172.432 1077.74 164.8 1077.74 156.25H1075.74ZM1068.45 177.88C1063.59 184.041 1056.5 188.948 1047.13 192.567L1047.85 194.433C1057.47 190.718 1064.89 185.626 1070.02 179.12L1068.45 177.88ZM1047.12 192.569C1037.94 196.177 1026.65 198 1013.24 198V200C1026.82 200 1038.37 198.156 1047.85 194.431L1047.12 192.569Z" fill="#9F9F9F" mask="url(#path-1-outside-1_112_156)"/>
</svg>
