<svg width="694" height="177" viewBox="0 0 694 177" fill="none" xmlns="http://www.w3.org/2000/svg">
<mask id="path-1-outside-1_277_235" maskUnits="userSpaceOnUse" x="-1" y="-1" width="696" height="179" fill="black">
<rect fill="white" x="-1" y="-1" width="696" height="179"/>
<path d="M56.2871 175V33H0.287109V-1.19209e-05H152.787V33H96.7871V175H56.2871ZM224.906 177C209.573 177 196.073 174 184.406 168C172.906 162 163.99 153.833 157.656 143.5C151.323 133 148.156 121.083 148.156 107.75C148.156 94.25 151.24 82.3333 157.406 72C163.74 61.5 172.323 53.3333 183.156 47.5C193.99 41.5 206.24 38.5 219.906 38.5C233.073 38.5 244.906 41.3333 255.406 47C266.073 52.5 274.49 60.5 280.656 71C286.823 81.3333 289.906 93.75 289.906 108.25C289.906 109.75 289.823 111.5 289.656 113.5C289.49 115.333 289.323 117.083 289.156 118.75H179.906V96H268.656L253.656 102.75C253.656 95.75 252.24 89.6667 249.406 84.5C246.573 79.3333 242.656 75.3333 237.656 72.5C232.656 69.5 226.823 68 220.156 68C213.49 68 207.573 69.5 202.406 72.5C197.406 75.3333 193.49 79.4167 190.656 84.75C187.823 89.9167 186.406 96.0833 186.406 103.25V109.25C186.406 116.583 187.99 123.083 191.156 128.75C194.49 134.25 199.073 138.5 204.906 141.5C210.906 144.333 217.906 145.75 225.906 145.75C233.073 145.75 239.323 144.667 244.656 142.5C250.156 140.333 255.156 137.083 259.656 132.75L280.406 155.25C274.24 162.25 266.49 167.667 257.156 171.5C247.823 175.167 237.073 177 224.906 177ZM394.709 175V148.75L392.209 143V96C392.209 87.6667 389.626 81.1667 384.459 76.5C379.459 71.8333 371.709 69.5 361.209 69.5C354.042 69.5 346.959 70.6667 339.959 73C333.126 75.1667 327.292 78.1667 322.459 82L308.459 54.75C315.792 49.5833 324.626 45.5833 334.959 42.75C345.292 39.9167 355.792 38.5 366.459 38.5C386.959 38.5 402.876 43.3333 414.209 53C425.542 62.6667 431.209 77.75 431.209 98.25V175H394.709ZM353.709 177C343.209 177 334.209 175.25 326.709 171.75C319.209 168.083 313.459 163.167 309.459 157C305.459 150.833 303.459 143.917 303.459 136.25C303.459 128.25 305.376 121.25 309.209 115.25C313.209 109.25 319.459 104.583 327.959 101.25C336.459 97.75 347.542 96 361.209 96H396.959V118.75H365.459C356.292 118.75 349.959 120.25 346.459 123.25C343.126 126.25 341.459 130 341.459 134.5C341.459 139.5 343.376 143.5 347.209 146.5C351.209 149.333 356.626 150.75 363.459 150.75C369.959 150.75 375.792 149.25 380.959 146.25C386.126 143.083 389.876 138.5 392.209 132.5L398.209 150.5C395.376 159.167 390.209 165.75 382.709 170.25C375.209 174.75 365.542 177 353.709 177ZM638.756 38.5C649.423 38.5 658.839 40.6667 667.006 45C675.339 49.1667 681.839 55.6667 686.506 64.5C691.339 73.1667 693.756 84.3333 693.756 98V175H654.756V104C654.756 93.1667 652.506 85.1667 648.006 80C643.506 74.8333 637.173 72.25 629.006 72.25C623.339 72.25 618.256 73.5833 613.756 76.25C609.256 78.75 605.756 82.5833 603.256 87.75C600.756 92.9167 599.506 99.5 599.506 107.5V175H560.506V104C560.506 93.1667 558.256 85.1667 553.756 80C549.423 74.8333 543.173 72.25 535.006 72.25C529.339 72.25 524.256 73.5833 519.756 76.25C515.256 78.75 511.756 82.5833 509.256 87.75C506.756 92.9167 505.506 99.5 505.506 107.5V175H466.506V40.5H503.756V77.25L496.756 66.5C501.423 57.3333 508.006 50.4167 516.506 45.75C525.173 40.9167 535.006 38.5 546.006 38.5C558.339 38.5 569.089 41.6667 578.256 48C587.589 54.1667 593.756 63.6667 596.756 76.5L583.006 72.75C587.506 62.25 594.673 53.9167 604.506 47.75C614.506 41.5833 625.923 38.5 638.756 38.5Z"/>
</mask>
<path d="M56.2871 175H55.2871V176H56.2871V175ZM56.2871 33H57.2871V32H56.2871V33ZM0.287109 33H-0.712891V34H0.287109V33ZM0.287109 -1.14441e-05V-1.00001H-0.712891V-1.14441e-05H0.287109ZM152.787 -1.14441e-05H153.787V-1.00001H152.787V-1.14441e-05ZM152.787 33V34H153.787V33H152.787ZM96.7871 33V32H95.7871V33H96.7871ZM96.7871 175V176H97.7871V175H96.7871ZM57.2871 175V33H55.2871V175H57.2871ZM56.2871 32H0.287109V34H56.2871V32ZM1.28711 33V-1.14441e-05H-0.712891V33H1.28711ZM0.287109 0.999989H152.787V-1.00001H0.287109V0.999989ZM151.787 -1.14441e-05V33H153.787V-1.14441e-05H151.787ZM152.787 32H96.7871V34H152.787V32ZM95.7871 33V175H97.7871V33H95.7871ZM96.7871 174H56.2871V176H96.7871V174ZM184.406 168L183.944 168.887L183.949 168.889L184.406 168ZM157.656 143.5L156.8 144.017L156.804 144.023L157.656 143.5ZM157.406 72L156.55 71.4835L156.548 71.4875L157.406 72ZM183.156 47.5L183.63 48.3805L183.641 48.3748L183.156 47.5ZM255.406 47L254.931 47.88L254.94 47.8845L254.948 47.8888L255.406 47ZM280.656 71L279.794 71.5064L279.798 71.5125L280.656 71ZM289.656 113.5L290.652 113.591L290.653 113.583L289.656 113.5ZM289.156 118.75V119.75H290.061L290.151 118.85L289.156 118.75ZM179.906 118.75H178.906V119.75H179.906V118.75ZM179.906 96V95H178.906V96H179.906ZM268.656 96L269.067 96.9119L268.656 95V96ZM253.656 102.75H252.656V104.297L254.067 103.662L253.656 102.75ZM249.406 84.5L248.529 84.9808L249.406 84.5ZM237.656 72.5L237.142 73.3575L237.152 73.3639L237.163 73.37L237.656 72.5ZM202.406 72.5L202.899 73.3701L202.908 73.3648L202.406 72.5ZM190.656 84.75L191.533 85.2309L191.539 85.2191L190.656 84.75ZM191.156 128.75L190.283 129.238L190.292 129.253L190.301 129.268L191.156 128.75ZM204.906 141.5L204.449 142.389L204.464 142.397L204.479 142.404L204.906 141.5ZM244.656 142.5L244.29 141.57L244.28 141.574L244.656 142.5ZM259.656 132.75L260.391 132.072L259.699 131.321L258.963 132.03L259.656 132.75ZM280.406 155.25L281.157 155.911L281.752 155.235L281.141 154.572L280.406 155.25ZM257.156 171.5L257.522 172.431L257.529 172.428L257.536 172.425L257.156 171.5ZM224.906 176C209.705 176 196.367 173.027 184.864 167.111L183.949 168.889C195.779 174.973 209.441 178 224.906 178V176ZM184.869 167.113C173.518 161.191 164.741 153.145 158.509 142.977L156.804 144.023C163.238 154.521 172.295 162.809 183.944 168.887L184.869 167.113ZM158.513 142.984C152.281 132.653 149.156 120.918 149.156 107.75H147.156C147.156 121.249 150.364 133.347 156.8 144.016L158.513 142.984ZM149.156 107.75C149.156 94.4079 152.202 82.6726 158.265 72.5125L156.548 71.4875C150.277 81.9941 147.156 94.0921 147.156 107.75H149.156ZM158.263 72.5165C164.503 62.1704 172.954 54.1292 183.63 48.3805L182.682 46.6195C171.692 52.5375 162.976 60.8296 156.55 71.4835L158.263 72.5165ZM183.641 48.3748C194.311 42.4652 206.391 39.5 219.906 39.5V37.5C206.088 37.5 193.668 40.5348 182.672 46.6252L183.641 48.3748ZM219.906 39.5C232.925 39.5 244.592 42.3 254.931 47.88L255.881 46.12C245.221 40.3666 233.221 37.5 219.906 37.5V39.5ZM254.948 47.8888C265.444 53.3008 273.722 61.167 279.794 71.5064L281.519 70.4936C275.258 59.833 266.702 51.6992 255.865 46.1112L254.948 47.8888ZM279.798 71.5125C285.854 81.6618 288.906 93.8934 288.906 108.25H290.906C290.906 93.6066 287.791 81.0048 281.515 70.4875L279.798 71.5125ZM288.906 108.25C288.906 109.715 288.825 111.436 288.66 113.417L290.653 113.583C290.821 111.564 290.906 109.785 290.906 108.25H288.906ZM288.66 113.409C288.494 115.24 288.328 116.987 288.161 118.65L290.151 118.85C290.318 117.18 290.485 115.427 290.652 113.591L288.66 113.409ZM289.156 117.75H179.906V119.75H289.156V117.75ZM180.906 118.75V96H178.906V118.75H180.906ZM179.906 97H268.656V95H179.906V97ZM268.246 95.0881L253.246 101.838L254.067 103.662L269.067 96.9119L268.246 95.0881ZM254.656 102.75C254.656 95.6135 253.211 89.3586 250.283 84.0192L248.529 84.9808C251.268 89.9747 252.656 95.8865 252.656 102.75H254.656ZM250.283 84.0192C247.363 78.694 243.315 74.5573 238.149 71.63L237.163 73.37C241.997 76.1094 245.783 79.9727 248.529 84.9808L250.283 84.0192ZM238.171 71.6425C232.994 68.5365 226.978 67 220.156 67V69C226.668 69 232.318 70.4635 237.142 73.3575L238.171 71.6425ZM220.156 67C213.334 67 207.24 68.5367 201.904 71.6352L202.908 73.3648C207.905 70.4633 213.645 69 220.156 69V67ZM201.913 71.63C196.739 74.562 192.691 78.7885 189.773 84.2808L191.539 85.2191C194.288 80.0449 198.073 76.1047 202.899 73.37L201.913 71.63ZM189.779 84.2692C186.85 89.6119 185.406 95.9513 185.406 103.25H187.406C187.406 96.2153 188.796 90.2214 191.533 85.2308L189.779 84.2692ZM185.406 103.25V109.25H187.406V103.25H185.406ZM185.406 109.25C185.406 116.732 187.023 123.404 190.283 129.238L192.029 128.262C188.956 122.763 187.406 116.435 187.406 109.25H185.406ZM190.301 129.268C193.732 134.93 198.455 139.307 204.449 142.389L205.364 140.611C199.691 137.693 195.247 133.57 192.011 128.232L190.301 129.268ZM204.479 142.404C210.637 145.312 217.788 146.75 225.906 146.75V144.75C218.024 144.75 211.175 143.354 205.333 140.596L204.479 142.404ZM225.906 146.75C233.171 146.75 239.554 145.652 245.033 143.426L244.28 141.574C239.091 143.681 232.974 144.75 225.906 144.75V146.75ZM245.023 143.43C250.651 141.213 255.761 137.889 260.35 133.47L258.963 132.03C254.551 136.277 249.661 139.454 244.29 141.57L245.023 143.43ZM258.921 133.428L279.671 155.928L281.141 154.572L260.391 132.072L258.921 133.428ZM279.656 154.589C273.599 161.464 265.979 166.795 256.776 170.575L257.536 172.425C267 168.538 274.88 163.036 281.157 155.911L279.656 154.589ZM256.791 170.569C247.596 174.182 236.974 176 224.906 176V178C237.172 178 248.05 176.152 257.522 172.431L256.791 170.569ZM394.709 175H393.709V176H394.709V175ZM394.709 148.75H395.709V148.542L395.626 148.351L394.709 148.75ZM392.209 143H391.209V143.208L391.292 143.399L392.209 143ZM384.459 76.5L383.777 77.231L383.783 77.2366L383.789 77.2421L384.459 76.5ZM339.959 73L340.261 73.9532L340.268 73.951L340.275 73.9487L339.959 73ZM322.459 82L321.57 82.457L322.126 83.5403L323.08 82.7835L322.459 82ZM308.459 54.75L307.883 53.9325L307.172 54.4334L307.57 55.207L308.459 54.75ZM334.959 42.75L334.695 41.7856L334.959 42.75ZM414.209 53L414.858 52.2392L414.209 53ZM431.209 175V176H432.209V175H431.209ZM326.709 171.75L326.27 172.648L326.278 172.652L326.286 172.656L326.709 171.75ZM309.459 157L310.298 156.456L309.459 157ZM309.209 115.25L308.377 114.695L308.372 114.703L308.366 114.712L309.209 115.25ZM327.959 101.25L328.324 102.181L328.332 102.178L328.34 102.175L327.959 101.25ZM396.959 96H397.959V95H396.959V96ZM396.959 118.75V119.75H397.959V118.75H396.959ZM346.459 123.25L345.808 122.491L345.799 122.499L345.79 122.507L346.459 123.25ZM347.209 146.5L346.593 147.288L346.612 147.302L346.631 147.316L347.209 146.5ZM380.959 146.25L381.461 147.115L381.471 147.109L381.482 147.103L380.959 146.25ZM392.209 132.5L393.158 132.184L392.281 129.555L391.277 132.138L392.209 132.5ZM398.209 150.5L399.159 150.811L399.262 150.497L399.158 150.184L398.209 150.5ZM382.709 170.25L382.195 169.393L382.709 170.25ZM395.709 175V148.75H393.709V175H395.709ZM395.626 148.351L393.126 142.601L391.292 143.399L393.792 149.149L395.626 148.351ZM393.209 143V96H391.209V143H393.209ZM393.209 96C393.209 87.4445 390.547 80.6513 385.129 75.7579L383.789 77.2421C388.704 81.682 391.209 87.8889 391.209 96H393.209ZM385.141 75.7689C379.878 70.8569 371.831 68.5 361.209 68.5V70.5C371.587 70.5 379.04 72.8098 383.777 77.231L385.141 75.7689ZM361.209 68.5C353.932 68.5 346.742 69.685 339.643 72.0513L340.275 73.9487C347.176 71.6483 354.153 70.5 361.209 70.5V68.5ZM339.657 72.0468C332.726 74.2443 326.78 77.2965 321.838 81.2165L323.08 82.7835C327.804 79.0368 333.525 76.089 340.261 73.9532L339.657 72.0468ZM323.348 81.543L309.348 54.293L307.57 55.207L321.57 82.457L323.348 81.543ZM309.035 55.5675C316.257 50.479 324.981 46.5229 335.223 43.7144L334.695 41.7856C324.271 44.6437 315.327 48.6877 307.883 53.9325L309.035 55.5675ZM335.223 43.7144C345.471 40.9046 355.882 39.5 366.459 39.5V37.5C355.703 37.5 345.114 38.9287 334.695 41.7856L335.223 43.7144ZM366.459 39.5C386.81 39.5 402.466 44.298 413.56 53.7608L414.858 52.2392C403.286 42.3687 387.108 37.5 366.459 37.5V39.5ZM413.56 53.7608C424.596 63.1736 430.209 77.9273 430.209 98.25H432.209C432.209 77.5727 426.489 62.1598 414.858 52.2392L413.56 53.7608ZM430.209 98.25V175H432.209V98.25H430.209ZM431.209 174H394.709V176H431.209V174ZM353.709 176C343.317 176 334.469 174.268 327.132 170.844L326.286 172.656C333.949 176.232 343.101 178 353.709 178V176ZM327.148 170.852C319.789 167.254 314.186 162.451 310.298 156.456L308.62 157.544C312.732 163.883 318.629 168.913 326.27 172.648L327.148 170.852ZM310.298 156.456C306.408 150.458 304.459 143.732 304.459 136.25H302.459C302.459 144.101 304.51 151.208 308.62 157.544L310.298 156.456ZM304.459 136.25C304.459 128.416 306.333 121.608 310.052 115.788L308.366 114.712C304.418 120.892 302.459 128.084 302.459 136.25H304.459ZM310.041 115.805C313.901 110.015 319.964 105.46 328.324 102.181L327.594 100.319C318.954 103.707 312.517 108.485 308.377 114.695L310.041 115.805ZM328.34 102.175C336.675 98.7425 347.615 97 361.209 97V95C347.469 95 336.243 96.7575 327.578 100.325L328.34 102.175ZM361.209 97H396.959V95H361.209V97ZM395.959 96V118.75H397.959V96H395.959ZM396.959 117.75H365.459V119.75H396.959V117.75ZM365.459 117.75C356.255 117.75 349.599 119.242 345.808 122.491L347.11 124.009C350.319 121.258 356.33 119.75 365.459 119.75V117.75ZM345.79 122.507C342.245 125.697 340.459 129.718 340.459 134.5H342.459C342.459 130.282 344.006 126.803 347.128 123.993L345.79 122.507ZM340.459 134.5C340.459 139.798 342.51 144.092 346.593 147.288L347.825 145.712C344.242 142.908 342.459 139.202 342.459 134.5H340.459ZM346.631 147.316C350.855 150.308 356.498 151.75 363.459 151.75V149.75C356.753 149.75 351.563 148.359 347.787 145.684L346.631 147.316ZM363.459 151.75C370.119 151.75 376.129 150.211 381.461 147.115L380.457 145.385C375.456 148.289 369.799 149.75 363.459 149.75V151.75ZM381.482 147.103C386.847 143.814 390.734 139.053 393.141 132.862L391.277 132.138C389.018 137.947 385.405 142.352 380.436 145.397L381.482 147.103ZM391.26 132.816L397.26 150.816L399.158 150.184L393.158 132.184L391.26 132.816ZM397.258 150.189C394.496 158.638 389.479 165.022 382.195 169.393L383.224 171.107C390.939 166.478 396.255 159.696 399.159 150.811L397.258 150.189ZM382.195 169.393C374.895 173.772 365.423 176 353.709 176V178C365.662 178 375.523 175.728 383.224 171.107L382.195 169.393ZM667.006 45L666.537 45.8833L666.548 45.889L666.559 45.8944L667.006 45ZM686.506 64.5L685.622 64.9671L685.627 64.9771L685.633 64.9871L686.506 64.5ZM693.756 175V176H694.756V175H693.756ZM654.756 175H653.756V176H654.756V175ZM648.006 80L648.76 79.3432L648.006 80ZM613.756 76.25L614.242 77.1242L614.254 77.1174L614.266 77.1103L613.756 76.25ZM603.256 87.75L604.156 88.1856L603.256 87.75ZM599.506 175V176H600.506V175H599.506ZM560.506 175H559.506V176H560.506V175ZM553.756 80L552.99 80.6426L552.996 80.6497L553.002 80.6568L553.756 80ZM519.756 76.25L520.242 77.1242L520.254 77.1174L520.266 77.1103L519.756 76.25ZM509.256 87.75L510.156 88.1856L509.256 87.75ZM505.506 175V176H506.506V175H505.506ZM466.506 175H465.506V176H466.506V175ZM466.506 40.5V39.5H465.506V40.5H466.506ZM503.756 40.5H504.756V39.5H503.756V40.5ZM503.756 77.25L502.918 77.7957L504.756 80.6183V77.25H503.756ZM496.756 66.5L495.865 66.0463L495.602 66.5614L495.918 67.0457L496.756 66.5ZM516.506 45.75L516.987 46.6266L516.993 46.6234L516.506 45.75ZM578.256 48L577.687 48.8227L577.696 48.8286L577.705 48.8343L578.256 48ZM596.756 76.5L596.493 77.4648L598.112 77.9062L597.73 76.2724L596.756 76.5ZM583.006 72.75L582.087 72.3561L581.634 73.4124L582.743 73.7148L583.006 72.75ZM604.506 47.75L603.981 46.8988L603.975 46.9028L604.506 47.75ZM638.756 39.5C649.284 39.5 658.536 41.6376 666.537 45.8833L667.475 44.1166C659.143 39.6957 649.561 37.5 638.756 37.5V39.5ZM666.559 45.8944C674.692 49.9609 681.045 56.3042 685.622 64.9671L687.39 64.0329C682.633 55.0291 675.987 48.3725 667.453 44.1056L666.559 45.8944ZM685.633 64.9871C690.357 73.4592 692.756 84.4425 692.756 98H694.756C694.756 84.2241 692.321 72.8742 687.379 64.0129L685.633 64.9871ZM692.756 98V175H694.756V98H692.756ZM693.756 174H654.756V176H693.756V174ZM655.756 175V104H653.756V175H655.756ZM655.756 104C655.756 93.0583 653.488 84.772 648.76 79.3432L647.252 80.6568C651.523 85.5613 653.756 93.2751 653.756 104H655.756ZM648.76 79.3432C644.033 73.9164 637.401 71.25 629.006 71.25V73.25C636.944 73.25 642.978 75.7502 647.252 80.6568L648.76 79.3432ZM629.006 71.25C623.175 71.25 617.913 72.624 613.246 75.3897L614.266 77.1103C618.599 74.5426 623.503 73.25 629.006 73.25V71.25ZM613.27 75.3758C608.57 77.9872 604.935 81.9846 602.356 87.3144L604.156 88.1856C606.577 83.182 609.942 79.5128 614.242 77.1242L613.27 75.3758ZM602.356 87.3144C599.769 92.6595 598.506 99.4049 598.506 107.5H600.506C600.506 99.5951 601.742 93.1738 604.156 88.1856L602.356 87.3144ZM598.506 107.5V175H600.506V107.5H598.506ZM599.506 174H560.506V176H599.506V174ZM561.506 175V104H559.506V175H561.506ZM561.506 104C561.506 93.0583 559.238 84.772 554.51 79.3432L553.002 80.6568C557.273 85.5613 559.506 93.2751 559.506 104H561.506ZM554.522 79.3574C549.959 73.9164 543.4 71.25 535.006 71.25V73.25C542.945 73.25 548.886 75.7502 552.99 80.6426L554.522 79.3574ZM535.006 71.25C529.175 71.25 523.913 72.624 519.246 75.3897L520.266 77.1103C524.599 74.5426 529.503 73.25 535.006 73.25V71.25ZM519.27 75.3758C514.57 77.9872 510.935 81.9846 508.356 87.3144L510.156 88.1856C512.577 83.182 515.942 79.5128 520.242 77.1242L519.27 75.3758ZM508.356 87.3144C505.769 92.6595 504.506 99.4049 504.506 107.5H506.506C506.506 99.5951 507.742 93.1738 510.156 88.1856L508.356 87.3144ZM504.506 107.5V175H506.506V107.5H504.506ZM505.506 174H466.506V176H505.506V174ZM467.506 175V40.5H465.506V175H467.506ZM466.506 41.5H503.756V39.5H466.506V41.5ZM502.756 40.5V77.25H504.756V40.5H502.756ZM504.594 76.7043L497.594 65.9543L495.918 67.0457L502.918 77.7957L504.594 76.7043ZM497.647 66.9537C502.228 57.9545 508.674 51.1906 516.987 46.6266L516.025 44.8734C507.338 49.6427 500.617 56.7122 495.865 66.0463L497.647 66.9537ZM516.993 46.6234C525.495 41.8818 535.157 39.5 546.006 39.5V37.5C534.854 37.5 524.85 39.9515 516.019 44.8766L516.993 46.6234ZM546.006 39.5C558.159 39.5 568.706 42.6171 577.687 48.8227L578.824 47.1773C569.473 40.7162 558.52 37.5 546.006 37.5V39.5ZM577.705 48.8343C586.787 54.8355 592.829 64.0958 595.782 76.7276L597.73 76.2724C594.682 63.2375 588.391 53.4978 578.807 47.1657L577.705 48.8343ZM597.019 75.5352L583.269 71.7852L582.743 73.7148L596.493 77.4648L597.019 75.5352ZM583.925 73.1439C588.344 62.8341 595.373 54.6576 605.037 48.5972L603.975 46.9028C593.972 53.1757 586.668 61.6659 582.087 72.3561L583.925 73.1439ZM605.031 48.6012C614.859 42.5407 626.09 39.5 638.756 39.5V37.5C625.755 37.5 614.153 40.626 603.981 46.8988L605.031 48.6012Z" fill="#9F9F9F" mask="url(#path-1-outside-1_277_235)"/>
</svg>
