<svg width="1074" height="181" viewBox="0 0 1074 181" fill="none" xmlns="http://www.w3.org/2000/svg">
<mask id="path-1-outside-1_63_95" maskUnits="userSpaceOnUse" x="-1" y="-1" width="1076" height="183" fill="black">
<rect fill="white" x="-1" y="-1" width="1076" height="183"/>
<path d="M58.1475 178L0.897461 2.99999H42.8975L92.6475 158H71.6475L123.647 2.99999H161.147L211.147 158H190.897L241.897 2.99999H280.647L223.397 178H179.897L135.647 42H147.147L101.647 178H58.1475ZM423.257 2.99999H463.757V178H423.257V2.99999ZM343.757 178H303.257V2.99999H343.757V178ZM426.257 106.25H340.757V72H426.257V106.25ZM548.661 178V106.5L557.911 131L480.911 2.99999H523.911L582.911 101.25H558.161L617.411 2.99999H657.161L580.161 131L589.161 106.5V178H548.661ZM822.657 181C797.824 181 778.407 174.083 764.407 160.25C750.407 146.417 743.407 126.667 743.407 101V2.99999H783.907V99.5C783.907 116.167 787.324 128.167 794.157 135.5C800.991 142.833 810.574 146.5 822.907 146.5C835.241 146.5 844.824 142.833 851.657 135.5C858.491 128.167 861.907 116.167 861.907 99.5V2.99999H901.907V101C901.907 126.667 894.907 146.417 880.907 160.25C866.907 174.083 847.491 181 822.657 181ZM999.429 181C985.429 181 972.012 179.167 959.179 175.5C946.345 171.667 936.012 166.75 928.179 160.75L941.929 130.25C949.429 135.583 958.262 140 968.429 143.5C978.762 146.833 989.179 148.5 999.679 148.5C1007.68 148.5 1014.1 147.75 1018.93 146.25C1023.93 144.583 1027.6 142.333 1029.93 139.5C1032.26 136.667 1033.43 133.417 1033.43 129.75C1033.43 125.083 1031.6 121.417 1027.93 118.75C1024.26 115.917 1019.43 113.667 1013.43 112C1007.43 110.167 1000.76 108.5 993.429 107C986.262 105.333 979.012 103.333 971.679 101C964.512 98.6667 957.929 95.6667 951.929 92C945.929 88.3333 941.012 83.5 937.179 77.5C933.512 71.5 931.679 63.8333 931.679 54.5C931.679 44.5 934.345 35.4167 939.679 27.25C945.179 18.9167 953.345 12.3333 964.179 7.49999C975.179 2.49999 988.929 -3.09944e-06 1005.43 -3.09944e-06C1016.43 -3.09944e-06 1027.26 1.33333 1037.93 3.99999C1048.6 6.49999 1058.01 10.3333 1066.18 15.5L1053.68 46.25C1045.51 41.5833 1037.35 38.1667 1029.18 36C1021.01 33.6667 1013.01 32.5 1005.18 32.5C997.345 32.5 990.929 33.4167 985.929 35.25C980.929 37.0833 977.345 39.5 975.179 42.5C973.012 45.3333 971.929 48.6667 971.929 52.5C971.929 57 973.762 60.6667 977.429 63.5C981.095 66.1667 985.929 68.3333 991.929 70C997.929 71.6667 1004.51 73.3333 1011.68 75C1019.01 76.6667 1026.26 78.5833 1033.43 80.75C1040.76 82.9167 1047.43 85.8333 1053.43 89.5C1059.43 93.1667 1064.26 98 1067.93 104C1071.76 110 1073.68 117.583 1073.68 126.75C1073.68 136.583 1070.93 145.583 1065.43 153.75C1059.93 161.917 1051.68 168.5 1040.68 173.5C1029.85 178.5 1016.1 181 999.429 181Z"/>
</mask>
<path d="M58.1475 178L57.197 178.311L57.4225 179H58.1475V178ZM0.897461 2.99999V1.99999H-0.481834L-0.0529709 3.31092L0.897461 2.99999ZM42.8975 2.99999L43.8496 2.69438L43.6267 1.99999H42.8975V2.99999ZM92.6475 158V159H94.0187L93.5996 157.694L92.6475 158ZM71.6475 158L70.6994 157.682L70.2572 159H71.6475V158ZM123.647 2.99999V1.99999H122.928L122.699 2.68193L123.647 2.99999ZM161.147 2.99999L162.099 2.69299L161.876 1.99999H161.147V2.99999ZM211.147 158V159H212.521L212.099 157.693L211.147 158ZM190.897 158L189.948 157.687L189.516 159H190.897V158ZM241.897 2.99999V1.99999H241.174L240.948 2.68744L241.897 2.99999ZM280.647 2.99999L281.598 3.31092L282.027 1.99999H280.647V2.99999ZM223.397 178V179H224.122L224.348 178.311L223.397 178ZM179.897 178L178.947 178.309L179.171 179H179.897V178ZM135.647 42V41H134.271L134.697 42.3094L135.647 42ZM147.147 42L148.096 42.3173L148.537 41H147.147V42ZM101.647 178V179H102.367L102.596 178.317L101.647 178ZM59.0979 177.689L1.8479 2.68906L-0.0529709 3.31092L57.197 178.311L59.0979 177.689ZM0.897461 3.99999H42.8975V1.99999H0.897461V3.99999ZM41.9453 3.3056L91.6953 158.306L93.5996 157.694L43.8496 2.69438L41.9453 3.3056ZM92.6475 157H71.6475V159H92.6475V157ZM72.5955 158.318L124.596 3.31805L122.699 2.68193L70.6994 157.682L72.5955 158.318ZM123.647 3.99999H161.147V1.99999H123.647V3.99999ZM160.196 3.30699L210.196 158.307L212.099 157.693L162.099 2.69299L160.196 3.30699ZM211.147 157H190.897V159H211.147V157ZM191.847 158.313L242.847 3.31254L240.948 2.68744L189.948 157.687L191.847 158.313ZM241.897 3.99999H280.647V1.99999H241.897V3.99999ZM279.697 2.68906L222.447 177.689L224.348 178.311L281.598 3.31092L279.697 2.68906ZM223.397 177H179.897V179H223.397V177ZM180.848 177.691L136.598 41.6906L134.697 42.3094L178.947 178.309L180.848 177.691ZM135.647 43H147.147V41H135.647V43ZM146.199 41.6827L100.699 177.683L102.596 178.317L148.096 42.3173L146.199 41.6827ZM101.647 177H58.1475V179H101.647V177ZM423.257 2.99999V1.99999H422.257V2.99999H423.257ZM463.757 2.99999H464.757V1.99999H463.757V2.99999ZM463.757 178V179H464.757V178H463.757ZM423.257 178H422.257V179H423.257V178ZM343.757 178V179H344.757V178H343.757ZM303.257 178H302.257V179H303.257V178ZM303.257 2.99999V1.99999H302.257V2.99999H303.257ZM343.757 2.99999H344.757V1.99999H343.757V2.99999ZM426.257 106.25V107.25H427.257V106.25H426.257ZM340.757 106.25H339.757V107.25H340.757V106.25ZM340.757 72V71H339.757V72H340.757ZM426.257 72H427.257V71H426.257V72ZM423.257 3.99999H463.757V1.99999H423.257V3.99999ZM462.757 2.99999V178H464.757V2.99999H462.757ZM463.757 177H423.257V179H463.757V177ZM424.257 178V2.99999H422.257V178H424.257ZM343.757 177H303.257V179H343.757V177ZM304.257 178V2.99999H302.257V178H304.257ZM303.257 3.99999H343.757V1.99999H303.257V3.99999ZM342.757 2.99999V178H344.757V2.99999H342.757ZM426.257 105.25H340.757V107.25H426.257V105.25ZM341.757 106.25V72H339.757V106.25H341.757ZM340.757 73H426.257V71H340.757V73ZM425.257 72V106.25H427.257V72H425.257ZM548.661 178H547.661V179H548.661V178ZM548.661 106.5L549.597 106.147L547.661 106.5H548.661ZM557.911 131L557.054 131.515L558.847 130.647L557.911 131ZM480.911 2.99999V1.99999H479.143L480.054 3.51547L480.911 2.99999ZM523.911 2.99999L524.768 2.48517L524.477 1.99999H523.911V2.99999ZM582.911 101.25V102.25H584.678L583.768 100.735L582.911 101.25ZM558.161 101.25L557.305 100.734L556.39 102.25H558.161V101.25ZM617.411 2.99999V1.99999H616.846L616.555 2.48357L617.411 2.99999ZM657.161 2.99999L658.018 3.51547L658.93 1.99999H657.161V2.99999ZM580.161 131L579.222 130.655L581.018 131.515L580.161 131ZM589.161 106.5H590.161L588.222 106.155L589.161 106.5ZM589.161 178V179H590.161V178H589.161ZM549.661 178V106.5H547.661V178H549.661ZM547.726 106.853L556.976 131.353L558.847 130.647L549.597 106.147L547.726 106.853ZM558.768 130.485L481.768 2.48451L480.054 3.51547L557.054 131.515L558.768 130.485ZM480.911 3.99999H523.911V1.99999H480.911V3.99999ZM523.054 3.5148L582.054 101.765L583.768 100.735L524.768 2.48517L523.054 3.5148ZM582.911 100.25H558.161V102.25H582.911V100.25ZM559.017 101.766L618.267 3.51641L616.555 2.48357L557.305 100.734L559.017 101.766ZM617.411 3.99999H657.161V1.99999H617.411V3.99999ZM656.304 2.48451L579.304 130.485L581.018 131.515L658.018 3.51547L656.304 2.48451ZM581.1 131.345L590.1 106.845L588.222 106.155L579.222 130.655L581.1 131.345ZM588.161 106.5V178H590.161V106.5H588.161ZM589.161 177H548.661V179H589.161V177ZM764.407 160.25L765.11 159.539L764.407 160.25ZM743.407 2.99999V1.99999H742.407V2.99999H743.407ZM783.907 2.99999H784.907V1.99999H783.907V2.99999ZM794.157 135.5L793.426 136.182L794.157 135.5ZM851.657 135.5L852.389 136.182L851.657 135.5ZM861.907 2.99999V1.99999H860.907V2.99999H861.907ZM901.907 2.99999H902.907V1.99999H901.907V2.99999ZM880.907 160.25L881.61 160.961L880.907 160.25ZM822.657 180C798.015 180 778.877 173.142 765.11 159.539L763.704 160.961C777.937 175.025 797.633 182 822.657 182V180ZM765.11 159.539C751.353 145.945 744.407 126.484 744.407 101H742.407C742.407 126.849 749.461 146.888 763.704 160.961L765.11 159.539ZM744.407 101V2.99999H742.407V101H744.407ZM743.407 3.99999H783.907V1.99999H743.407V3.99999ZM782.907 2.99999V99.5H784.907V2.99999H782.907ZM782.907 99.5C782.907 116.263 786.336 128.574 793.426 136.182L794.889 134.818C788.311 127.76 784.907 116.071 784.907 99.5H782.907ZM793.426 136.182C800.49 143.763 810.365 147.5 822.907 147.5V145.5C810.783 145.5 801.491 141.903 794.889 134.818L793.426 136.182ZM822.907 147.5C835.449 147.5 845.324 143.763 852.389 136.182L850.926 134.818C844.324 141.903 835.032 145.5 822.907 145.5V147.5ZM852.389 136.182C859.478 128.574 862.907 116.263 862.907 99.5H860.907C860.907 116.071 857.503 127.76 850.926 134.818L852.389 136.182ZM862.907 99.5V2.99999H860.907V99.5H862.907ZM861.907 3.99999H901.907V1.99999H861.907V3.99999ZM900.907 2.99999V101H902.907V2.99999H900.907ZM900.907 101C900.907 126.484 893.961 145.945 880.204 159.539L881.61 160.961C895.853 146.888 902.907 126.849 902.907 101H900.907ZM880.204 159.539C866.437 173.142 847.3 180 822.657 180V182C847.681 182 867.377 175.025 881.61 160.961L880.204 159.539ZM959.179 175.5L958.893 176.458L958.904 176.462L959.179 175.5ZM928.179 160.75L927.267 160.339L926.941 161.062L927.571 161.544L928.179 160.75ZM941.929 130.25L942.508 129.435L941.517 128.73L941.017 129.839L941.929 130.25ZM968.429 143.5L968.103 144.446L968.112 144.449L968.122 144.452L968.429 143.5ZM1018.93 146.25L1019.23 147.205L1019.24 147.202L1019.24 147.199L1018.93 146.25ZM1029.93 139.5L1029.16 138.864L1029.93 139.5ZM1027.93 118.75L1027.32 119.541L1027.33 119.55L1027.34 119.559L1027.93 118.75ZM1013.43 112L1013.14 112.956L1013.15 112.96L1013.16 112.964L1013.43 112ZM993.429 107L993.202 107.974L993.215 107.977L993.228 107.98L993.429 107ZM971.679 101L971.369 101.951L971.375 101.953L971.679 101ZM951.929 92L951.407 92.8533L951.929 92ZM937.179 77.5L936.325 78.0214L936.331 78.03L936.336 78.0384L937.179 77.5ZM939.679 27.25L938.844 26.6991L938.841 26.7032L939.679 27.25ZM964.179 7.49999L964.586 8.41324L964.593 8.41035L964.179 7.49999ZM1037.93 3.99999L1037.69 4.97013L1037.69 4.97192L1037.7 4.97361L1037.93 3.99999ZM1066.18 15.5L1067.11 15.8766L1067.42 15.102L1066.71 14.6549L1066.18 15.5ZM1053.68 46.25L1053.18 47.1182L1054.17 47.6852L1054.61 46.6266L1053.68 46.25ZM1029.18 36L1028.9 36.9615L1028.91 36.9641L1028.92 36.9666L1029.18 36ZM985.929 35.25L985.584 34.3111L985.929 35.25ZM975.179 42.5L975.973 43.1074L975.981 43.0966L975.989 43.0855L975.179 42.5ZM977.429 63.5L976.817 64.2913L976.829 64.3002L976.841 64.3087L977.429 63.5ZM991.929 70L991.661 70.9635L991.929 70ZM1011.68 75L1011.45 75.974L1011.46 75.9751L1011.68 75ZM1033.43 80.75L1033.14 81.7072L1033.15 81.709L1033.43 80.75ZM1053.43 89.5L1053.95 88.6467L1053.43 89.5ZM1067.93 104L1067.08 104.521L1067.08 104.53L1067.09 104.538L1067.93 104ZM1065.43 153.75L1066.26 154.309L1065.43 153.75ZM1040.68 173.5L1040.26 172.59L1040.26 172.592L1040.68 173.5ZM999.429 180C985.517 180 972.193 178.178 959.453 174.538L958.904 176.462C971.831 180.155 985.34 182 999.429 182V180ZM959.465 174.542C946.709 170.732 936.496 165.861 928.787 159.956L927.571 161.544C935.528 167.639 945.982 172.602 958.893 176.458L959.465 174.542ZM929.09 161.161L942.84 130.661L941.017 129.839L927.267 160.339L929.09 161.161ZM941.349 131.065C948.939 136.462 957.861 140.919 968.103 144.446L968.754 142.554C958.663 139.081 949.918 134.705 942.508 129.435L941.349 131.065ZM968.122 144.452C978.551 147.816 989.071 149.5 999.679 149.5V147.5C989.286 147.5 978.973 145.851 968.736 142.548L968.122 144.452ZM999.679 149.5C1007.73 149.5 1014.26 148.747 1019.23 147.205L1018.63 145.295C1013.93 146.753 1007.63 147.5 999.679 147.5V149.5ZM1019.24 147.199C1024.35 145.497 1028.21 143.164 1030.7 140.136L1029.16 138.864C1026.98 141.502 1023.51 143.67 1018.61 145.301L1019.24 147.199ZM1030.7 140.136C1033.18 137.124 1034.43 133.649 1034.43 129.75H1032.43C1032.43 133.184 1031.34 136.21 1029.16 138.864L1030.7 140.136ZM1034.43 129.75C1034.43 124.774 1032.45 120.803 1028.52 117.941L1027.34 119.559C1030.74 122.031 1032.43 125.392 1032.43 129.75H1034.43ZM1028.54 117.959C1024.74 115.024 1019.78 112.727 1013.7 111.036L1013.16 112.964C1019.08 114.607 1023.78 116.809 1027.32 119.541L1028.54 117.959ZM1013.72 111.044C1007.69 109.2 1000.99 107.525 993.629 106.02L993.228 107.98C1000.54 109.475 1007.17 111.134 1013.14 112.956L1013.72 111.044ZM993.655 106.026C986.516 104.366 979.291 102.373 971.982 100.047L971.375 101.953C978.733 104.294 986.009 106.301 993.202 107.974L993.655 106.026ZM971.988 100.049C964.891 97.7382 958.379 94.7699 952.45 91.1467L951.407 92.8533C957.478 96.5634 964.134 99.5951 971.369 101.951L971.988 100.049ZM952.45 91.1467C946.581 87.5603 941.774 82.8353 938.021 76.9616L936.336 78.0384C940.25 84.1647 945.276 89.1064 951.407 92.8533L952.45 91.1467ZM938.032 76.9785C934.488 71.179 932.679 63.7079 932.679 54.5H930.679C930.679 63.9587 932.536 71.821 936.325 78.0214L938.032 76.9785ZM932.679 54.5C932.679 44.689 935.292 35.7966 940.516 27.7968L938.841 26.7032C933.399 35.0368 930.679 44.311 930.679 54.5H932.679ZM940.513 27.8008C945.89 19.6543 953.894 13.1837 964.586 8.41322L963.771 6.58676C952.797 11.4829 944.467 18.179 938.844 26.6991L940.513 27.8008ZM964.593 8.41035C975.424 3.48686 989.022 0.999996 1005.43 0.999996V-1C988.835 -1 974.933 1.51313 963.765 6.58962L964.593 8.41035ZM1005.43 0.999996C1016.35 0.999996 1027.1 2.32331 1037.69 4.97013L1038.17 3.02985C1027.43 0.343346 1016.51 -1 1005.43 -1V0.999996ZM1037.7 4.97361C1048.27 7.45151 1057.58 11.2454 1065.64 16.3451L1066.71 14.6549C1058.44 9.42121 1048.92 5.54847 1038.16 3.02637L1037.7 4.97361ZM1065.25 15.1234L1052.75 45.8734L1054.61 46.6266L1067.11 15.8766L1065.25 15.1234ZM1054.17 45.3818C1045.94 40.6769 1037.69 37.2247 1029.44 35.0334L1028.92 36.9666C1037 39.1086 1045.08 42.4898 1053.18 47.1182L1054.17 45.3818ZM1029.45 35.0385C1021.2 32.6817 1013.11 31.5 1005.18 31.5V33.5C1012.91 33.5 1020.82 34.6516 1028.9 36.9615L1029.45 35.0385ZM1005.18 31.5C997.278 31.5 990.734 32.4231 985.584 34.3111L986.273 36.1889C991.124 34.4102 997.413 33.5 1005.18 33.5V31.5ZM985.584 34.3111C980.476 36.1843 976.692 38.6963 974.368 41.9145L975.989 43.0855C977.998 40.3037 981.382 37.9823 986.273 36.1889L985.584 34.3111ZM974.384 41.8925C972.074 44.9137 970.929 48.4646 970.929 52.5H972.929C972.929 48.8688 973.95 45.753 975.973 43.1074L974.384 41.8925ZM970.929 52.5C970.929 57.3203 972.914 61.2752 976.817 64.2913L978.04 62.7087C974.61 60.0582 972.929 56.6797 972.929 52.5H970.929ZM976.841 64.3087C980.633 67.0666 985.586 69.276 991.661 70.9635L992.196 69.0365C986.272 67.3907 981.558 65.2667 978.017 62.6913L976.841 64.3087ZM991.661 70.9635C997.677 72.6346 1004.27 74.3047 1011.45 75.974L1011.91 74.026C1004.75 72.362 998.181 70.6988 992.196 69.0365L991.661 70.9635ZM1011.46 75.9751C1018.77 77.6366 1026 79.5473 1033.14 81.7072L1033.72 79.7928C1026.53 77.6193 1019.26 75.6967 1011.9 74.0249L1011.46 75.9751ZM1033.15 81.709C1040.4 83.8531 1046.99 86.7359 1052.91 90.3533L1053.95 88.6467C1047.87 84.9308 1041.12 81.9802 1033.71 79.791L1033.15 81.709ZM1052.91 90.3533C1058.77 93.9372 1063.49 98.6568 1067.08 104.521L1068.78 103.479C1065.03 97.3432 1060.09 92.3961 1053.95 88.6467L1052.91 90.3533ZM1067.09 104.538C1070.79 110.337 1072.68 117.72 1072.68 126.75H1074.68C1074.68 117.447 1072.73 109.663 1068.77 103.462L1067.09 104.538ZM1072.68 126.75C1072.68 136.384 1069.99 145.19 1064.6 153.191L1066.26 154.309C1071.87 145.977 1074.68 136.783 1074.68 126.75H1072.68ZM1064.6 153.191C1059.22 161.173 1051.13 167.649 1040.26 172.59L1041.09 174.41C1052.22 169.351 1060.63 162.66 1066.26 154.309L1064.6 153.191ZM1040.26 172.592C1029.6 177.512 1016 180 999.429 180V182C1016.19 182 1030.09 179.488 1041.1 174.408L1040.26 172.592Z" fill="#9F9F9F" mask="url(#path-1-outside-1_63_95)"/>
</svg>
